Jaldi-Regular.ufo
<glyph name="exclam" format="1">
  <advance width="522"/>
  <unicode hex="0021"/>
  <outline>
    <contour>
      <point x="273" y="360" type="line" smooth="yes"/>
      <point x="309" y="360"/>
      <point x="326" y="374"/>
      <point x="327" y="399" type="curve" smooth="yes"/>
      <point x="343" y="669"/>
      <point x="360" y="939"/>
      <point x="375" y="1209" type="curve"/>
      <point x="375" y="1234"/>
      <point x="356" y="1249"/>
      <point x="306" y="1249" type="curve" smooth="yes"/>
      <point x="271" y="1249" type="line" smooth="yes"/>
      <point x="220" y="1249"/>
      <point x="199" y="1234"/>
      <point x="199" y="1209" type="curve" smooth="yes"/>
      <point x="199" y="399" type="line" smooth="yes"/>
      <point x="199" y="374"/>
      <point x="215" y="360"/>
      <point x="253" y="360" type="curve"/>
    </contour>
    <contour>
      <point x="280" y="-3" type="line" smooth="yes"/>
      <point x="329" y="-3"/>
      <point x="350" y="10"/>
      <point x="350" y="36" type="curve" smooth="yes"/>
      <point x="350" y="153" type="line" smooth="yes"/>
      <point x="350" y="178"/>
      <point x="329" y="192"/>
      <point x="280" y="192" type="curve" smooth="yes"/>
      <point x="249" y="192" type="line" smooth="yes"/>
      <point x="199" y="192"/>
      <point x="178" y="178"/>
      <point x="178" y="153" type="curve" smooth="yes"/>
      <point x="178" y="36" type="line" smooth="yes"/>
      <point x="178" y="10"/>
      <point x="199" y="-3"/>
      <point x="249" y="-3" type="curve" smooth="yes"/>
    </contour>
  </outline>
</glyph>
<glyph name="quotedbl" format="1">
  <advance width="568"/>
  <unicode hex="0022"/>
  <outline>
    <contour>
      <point x="397" y="839" type="line"/>
      <point x="420" y="839"/>
      <point x="432" y="846"/>
      <point x="435" y="860" type="curve"/>
      <point x="450" y="976"/>
      <point x="476" y="1193"/>
      <point x="476" y="1209" type="curve"/>
      <point x="476" y="1234"/>
      <point x="455" y="1249"/>
      <point x="406" y="1249" type="curve" smooth="yes"/>
      <point x="387" y="1249" type="line" smooth="yes"/>
      <point x="338" y="1249"/>
      <point x="317" y="1234"/>
      <point x="317" y="1209" type="curve" smooth="yes"/>
      <point x="317" y="1188" type="line"/>
      <point x="356" y="860" type="line"/>
      <point x="360" y="846"/>
      <point x="372" y="839"/>
      <point x="394" y="839" type="curve"/>
    </contour>
    <contour>
      <point x="169" y="839" type="line"/>
      <point x="192" y="839"/>
      <point x="205" y="846"/>
      <point x="208" y="860" type="curve"/>
      <point x="222" y="976"/>
      <point x="249" y="1193"/>
      <point x="249" y="1209" type="curve"/>
      <point x="249" y="1234"/>
      <point x="228" y="1249"/>
      <point x="178" y="1249" type="curve" smooth="yes"/>
      <point x="160" y="1249" type="line" smooth="yes"/>
      <point x="111" y="1249"/>
      <point x="89" y="1234"/>
      <point x="89" y="1209" type="curve" smooth="yes"/>
      <point x="89" y="1188" type="line"/>
      <point x="128" y="860" type="line"/>
      <point x="131" y="846"/>
      <point x="145" y="839"/>
      <point x="167" y="839" type="curve"/>
    </contour>
  </outline>
</glyph>
<glyph name="numbersign" format="1">
  <advance width="249"/>
  <unicode hex="0023"/>
  <outline>
    <contour>
      <point x="49" y="-1" type="line" smooth="yes"/>
      <point x="40" y="-1"/>
      <point x="36" y="1"/>
      <point x="36" y="7" type="curve" smooth="yes"/>
      <point x="36" y="10.5"/>
      <point x="38" y="22"/>
      <point x="51" y="91.5" type="curve"/>
      <point x="15.5" y="91.5" type="line" smooth="yes"/>
      <point x="9" y="91.5"/>
      <point x="6" y="95.5"/>
      <point x="6" y="105.5" type="curve" smooth="yes"/>
      <point x="6" y="113" type="line" smooth="yes"/>
      <point x="6" y="123"/>
      <point x="9" y="127"/>
      <point x="15.5" y="127" type="curve" smooth="yes"/>
      <point x="58" y="127" type="line"/>
      <point x="70" y="195.5" type="line"/>
      <point x="32" y="195.5" type="line" smooth="yes"/>
      <point x="25.5" y="195.5"/>
      <point x="23" y="200"/>
      <point x="23" y="209.5" type="curve" smooth="yes"/>
      <point x="23" y="217.5" type="line" smooth="yes"/>
      <point x="23" y="227.5"/>
      <point x="25.5" y="231.5"/>
      <point x="32" y="231.5" type="curve" smooth="yes"/>
      <point x="76" y="231.5" type="line"/>
      <point x="90.5" y="309.5" type="line" smooth="yes"/>
      <point x="91.5" y="316"/>
      <point x="93" y="319.5"/>
      <point x="111" y="319.5" type="curve" smooth="yes"/>
      <point x="113" y="319.5" type="line" smooth="yes"/>
      <point x="121.5" y="319.5"/>
      <point x="126" y="317"/>
      <point x="126" y="312.5" type="curve" smooth="yes"/>
      <point x="110.5" y="231.5" type="line"/>
      <point x="166" y="231.5" type="line"/>
      <point x="180" y="309.5" type="line" smooth="yes"/>
      <point x="181" y="316"/>
      <point x="182.5" y="319.5"/>
      <point x="200.5" y="319.5" type="curve" smooth="yes"/>
      <point x="202.5" y="319.5" type="line" smooth="yes"/>
      <point x="211.5" y="319.5"/>
      <point x="216" y="317"/>
      <point x="216" y="312.5" type="curve" smooth="yes"/>
      <point x="201.5" y="231.5" type="line"/>
      <point x="233" y="231.5" type="line" smooth="yes"/>
      <point x="239.5" y="231.5"/>
      <point x="242.5" y="227.5"/>
      <point x="242.5" y="217.5" type="curve" smooth="yes"/>
      <point x="242.5" y="209.5" type="line" smooth="yes"/>
      <point x="242.5" y="200"/>
      <point x="239.5" y="195.5"/>
      <point x="233" y="195.5" type="curve" smooth="yes"/>
      <point x="194.5" y="195.5" type="line"/>
      <point x="182.5" y="127" type="line"/>
      <point x="218" y="127" type="line" smooth="yes"/>
      <point x="224.5" y="127"/>
      <point x="227.5" y="123"/>
      <point x="227.5" y="113" type="curve" smooth="yes"/>
      <point x="227.5" y="105.5" type="line" smooth="yes"/>
      <point x="227.5" y="95.5"/>
      <point x="224.5" y="91.5"/>
      <point x="218" y="91.5" type="curve" smooth="yes"/>
      <point x="175" y="91.5" type="line"/>
      <point x="161" y="9.5" type="line" smooth="yes"/>
      <point x="159.5" y="3"/>
      <point x="156.5" y="-1"/>
      <point x="140.5" y="-1" type="curve" smooth="yes"/>
      <point x="139" y="-1" type="line" smooth="yes"/>
      <point x="130" y="-1"/>
      <point x="126" y="1"/>
      <point x="126" y="7" type="curve" smooth="yes"/>
      <point x="126" y="10.5"/>
      <point x="128" y="22"/>
      <point x="140.5" y="91.5" type="curve"/>
      <point x="85.5" y="91.5" type="line"/>
      <point x="71" y="9.5" type="line" smooth="yes"/>
      <point x="69.5" y="3"/>
      <point x="67.5" y="-1"/>
      <point x="51" y="-1" type="curve" smooth="yes"/>
    </contour>
    <contour>
      <point x="92.5" y="127" type="line"/>
      <point x="147.5" y="127" type="line"/>
      <point x="160" y="195.5" type="line"/>
      <point x="105" y="195.5" type="line"/>
    </contour>
  </outline>
</glyph>
<glyph name="dollar" format="1">
  <advance width="524"/>
  <unicode hex="0024"/>
  <outline>
    <contour>
      <point x="283" y="-75"/>
      <point x="288" y="-71"/>
      <point x="288" y="-58" type="curve" smooth="yes"/>
      <point x="288" y="-6" type="line"/>
      <point x="412" y="6"/>
      <point x="490" y="82"/>
      <point x="490" y="202" type="curve" smooth="yes"/>
      <point x="490" y="348"/>
      <point x="382" y="385"/>
      <point x="288" y="420" type="curve"/>
      <point x="288" y="666" type="line"/>
      <point x="368" y="664"/>
      <point x="406" y="626"/>
      <point x="422" y="626" type="curve" smooth="yes"/>
      <point x="432" y="626"/>
      <point x="456" y="666"/>
      <point x="456" y="681" type="curve" smooth="yes"/>
      <point x="456" y="717"/>
      <point x="349" y="741"/>
      <point x="288" y="742" type="curve"/>
      <point x="288" y="785" type="line" smooth="yes"/>
      <point x="288" y="796"/>
      <point x="283" y="801"/>
      <point x="268" y="801" type="curve" smooth="yes"/>
      <point x="253" y="801"/>
      <point x="246" y="796"/>
      <point x="246" y="785" type="curve" smooth="yes"/>
      <point x="246" y="740" type="line"/>
      <point x="127" y="727"/>
      <point x="51" y="656"/>
      <point x="51" y="552" type="curve" smooth="yes"/>
      <point x="51" y="415"/>
      <point x="153" y="379"/>
      <point x="246" y="342" type="curve"/>
      <point x="246" y="71" type="line"/>
      <point x="145" y="73"/>
      <point x="86" y="128"/>
      <point x="74" y="128" type="curve" smooth="yes"/>
      <point x="63" y="128"/>
      <point x="38" y="87"/>
      <point x="38" y="71" type="curve" smooth="yes"/>
      <point x="38" y="42"/>
      <point x="127" y="-3"/>
      <point x="246" y="-7" type="curve"/>
      <point x="246" y="-58" type="line" smooth="yes"/>
      <point x="246" y="-71"/>
      <point x="253" y="-75"/>
      <point x="268" y="-75" type="curve" smooth="yes"/>
    </contour>
    <contour>
      <point x="287" y="326" type="line"/>
      <point x="347" y="300"/>
      <point x="394" y="269"/>
      <point x="394" y="202" type="curve" smooth="yes"/>
      <point x="394" y="133"/>
      <point x="350" y="85"/>
      <point x="287" y="73" type="curve"/>
    </contour>
    <contour>
      <point x="190" y="458"/>
      <point x="147" y="488"/>
      <point x="147" y="548" type="curve" smooth="yes"/>
      <point x="147" y="614"/>
      <point x="186" y="653"/>
      <point x="246" y="662" type="curve"/>
      <point x="246" y="435" type="line"/>
    </contour>
  </outline>
</glyph>
<glyph name="percent" format="1">
  <advance width="357"/>
  <unicode hex="0025"/>
  <outline>
    <contour>
      <point x="92" y="177.5" type="curve" smooth="yes"/>
      <point x="63" y="177.5"/>
      <point x="28" y="190"/>
      <point x="28" y="252.5" type="curve" smooth="yes"/>
      <point x="28" y="315.5"/>
      <point x="61" y="329"/>
      <point x="92" y="329" type="curve" smooth="yes"/>
      <point x="120.5" y="329"/>
      <point x="155.5" y="315.5"/>
      <point x="155.5" y="252.5" type="curve" smooth="yes"/>
      <point x="155.5" y="190"/>
      <point x="120" y="177.5"/>
    </contour>
    <contour>
      <point x="86" y="-3.5" type="line" smooth="yes"/>
      <point x="79" y="-3.5"/>
      <point x="75" y="-1.5"/>
      <point x="75" y="1" type="curve" smooth="yes"/>
      <point x="75" y="2"/>
      <point x="75.5" y="3.5"/>
      <point x="77" y="5.5" type="curve" smooth="yes"/>
      <point x="250.5" y="320" type="line" smooth="yes"/>
      <point x="254" y="326"/>
      <point x="260.5" y="329"/>
      <point x="269.5" y="329" type="curve" smooth="yes"/>
      <point x="271.5" y="329" type="line" smooth="yes"/>
      <point x="278.5" y="329"/>
      <point x="283" y="327"/>
      <point x="283" y="325" type="curve" smooth="yes"/>
      <point x="283" y="323.5"/>
      <point x="282" y="322"/>
      <point x="281" y="320" type="curve" smooth="yes"/>
      <point x="107" y="5.5" type="line" smooth="yes"/>
      <point x="104" y="-0.5"/>
      <point x="97.5" y="-3.5"/>
      <point x="88.5" y="-3.5" type="curve" smooth="yes"/>
    </contour>
    <contour>
      <point x="92" y="203" type="curve" smooth="yes"/>
      <point x="121" y="203"/>
      <point x="126" y="230.5"/>
      <point x="126" y="252.5" type="curve" smooth="yes"/>
      <point x="126" y="274.5"/>
      <point x="123.5" y="304"/>
      <point x="92" y="304" type="curve" smooth="yes"/>
      <point x="61" y="304"/>
      <point x="58.5" y="274.5"/>
      <point x="58.5" y="252.5" type="curve" smooth="yes"/>
      <point x="58.5" y="230.5"/>
      <point x="61.5" y="203"/>
    </contour>
    <contour>
      <point x="264.5" y="-2.5" type="curve" smooth="yes"/>
      <point x="236" y="-2.5"/>
      <point x="201" y="10.5"/>
      <point x="201" y="72.5" type="curve" smooth="yes"/>
      <point x="201" y="135.5"/>
      <point x="234" y="149"/>
      <point x="264.5" y="149" type="curve" smooth="yes"/>
      <point x="293.5" y="149"/>
      <point x="328.5" y="135.5"/>
      <point x="328.5" y="72.5" type="curve" smooth="yes"/>
      <point x="328.5" y="10.5"/>
      <point x="292.5" y="-2.5"/>
    </contour>
    <contour>
      <point x="264.5" y="23.5" type="curve" smooth="yes"/>
      <point x="294" y="23.5"/>
      <point x="298.5" y="51"/>
      <point x="298.5" y="72.5" type="curve" smooth="yes"/>
      <point x="298.5" y="94.5"/>
      <point x="296.5" y="124"/>
      <point x="264.5" y="124" type="curve" smooth="yes"/>
      <point x="234" y="124"/>
      <point x="231.5" y="94.5"/>
      <point x="231.5" y="72.5" type="curve" smooth="yes"/>
      <point x="231.5" y="51"/>
      <point x="234.5" y="23.5"/>
    </contour>
  </outline>
</glyph>
<glyph name="ampersand" format="1">
  <advance width="660"/>
  <unicode hex="0026"/>
  <outline>
    <contour>
      <point x="367" y="-7"/>
      <point x="426" y="19"/>
      <point x="460" y="39" type="curve"/>
      <point x="490" y="2"/>
      <point x="537" y="-7"/>
      <point x="569" y="-7" type="curve" smooth="yes"/>
      <point x="597" y="-7"/>
      <point x="645" y="-3"/>
      <point x="645" y="25" type="curve" smooth="yes"/>
      <point x="645" y="34"/>
      <point x="638" y="75"/>
      <point x="624" y="75" type="curve" smooth="yes"/>
      <point x="614" y="75"/>
      <point x="609" y="71"/>
      <point x="579" y="71" type="curve" smooth="yes"/>
      <point x="548" y="71"/>
      <point x="520" y="85"/>
      <point x="520" y="148" type="curve" smooth="yes"/>
      <point x="520" y="355" type="line"/>
      <point x="611" y="355" type="line" smooth="yes"/>
      <point x="625" y="355"/>
      <point x="630" y="365"/>
      <point x="630" y="386" type="curve" smooth="yes"/>
      <point x="630" y="400" type="line" smooth="yes"/>
      <point x="630" y="422"/>
      <point x="625" y="431"/>
      <point x="611" y="431" type="curve" smooth="yes"/>
      <point x="520" y="431" type="line"/>
      <point x="520" y="542" type="line" smooth="yes"/>
      <point x="520" y="557"/>
      <point x="511" y="565"/>
      <point x="490" y="565" type="curve" smooth="yes"/>
      <point x="478" y="565" type="line" smooth="yes"/>
      <point x="457" y="565"/>
      <point x="446" y="557"/>
      <point x="445" y="542" type="curve" smooth="yes"/>
      <point x="432" y="431" type="line"/>
      <point x="307" y="431" type="line" smooth="yes"/>
      <point x="205" y="431"/>
      <point x="166" y="506"/>
      <point x="166" y="559" type="curve" smooth="yes"/>
      <point x="166" y="598"/>
      <point x="183" y="670"/>
      <point x="293" y="670" type="curve" smooth="yes"/>
      <point x="327" y="670"/>
      <point x="349" y="660"/>
      <point x="358" y="660" type="curve" smooth="yes"/>
      <point x="374" y="660"/>
      <point x="381" y="708"/>
      <point x="381" y="712" type="curve" smooth="yes"/>
      <point x="381" y="741"/>
      <point x="326" y="746"/>
      <point x="290" y="746" type="curve" smooth="yes"/>
      <point x="168" y="746"/>
      <point x="77" y="688"/>
      <point x="77" y="569" type="curve" smooth="yes"/>
      <point x="77" y="490"/>
      <point x="127" y="436"/>
      <point x="187" y="413" type="curve"/>
      <point x="187" y="410" type="line"/>
      <point x="123" y="392"/>
      <point x="53" y="326"/>
      <point x="53" y="214" type="curve" smooth="yes"/>
      <point x="53" y="52"/>
      <point x="184" y="-7"/>
      <point x="288" y="-7" type="curve" smooth="yes"/>
    </contour>
    <contour>
      <point x="233" y="71"/>
      <point x="145" y="102"/>
      <point x="145" y="215" type="curve" smooth="yes"/>
      <point x="145" y="323"/>
      <point x="209" y="355"/>
      <point x="303" y="355" type="curve" smooth="yes"/>
      <point x="432" y="355" type="line"/>
      <point x="432" y="140" type="line" smooth="yes"/>
      <point x="432" y="117"/>
      <point x="434" y="102"/>
      <point x="441" y="83" type="curve"/>
      <point x="449" y="118" type="line"/>
      <point x="421" y="100"/>
      <point x="358" y="71"/>
      <point x="297" y="71" type="curve" smooth="yes"/>
    </contour>
  </outline>
</glyph>
<glyph name="quotesingle" format="1">
  <advance width="194"/>
  <unicode hex="0027"/>
  <outline>
    <contour>
      <point x="102" y="499" type="line"/>
      <point x="115" y="499"/>
      <point x="121" y="504"/>
      <point x="124" y="511" type="curve"/>
      <point x="131" y="581"/>
      <point x="148" y="709"/>
      <point x="148" y="719" type="curve"/>
      <point x="148" y="733"/>
      <point x="135" y="742"/>
      <point x="106" y="742" type="curve" smooth="yes"/>
      <point x="95" y="742" type="line" smooth="yes"/>
      <point x="66" y="742"/>
      <point x="53" y="733"/>
      <point x="53" y="719" type="curve" smooth="yes"/>
      <point x="53" y="707" type="line"/>
      <point x="76" y="511" type="line"/>
      <point x="78" y="504"/>
      <point x="85" y="499"/>
      <point x="100" y="499" type="curve"/>
    </contour>
  </outline>
</glyph>
<glyph name="parenleft" format="1">
  <advance width="141"/>
  <unicode hex="0028"/>
  <outline>
    <contour>
      <point x="121.5" y="-99" type="curve" smooth="yes"/>
      <point x="118.5" y="-99"/>
      <point x="114.5" y="-97"/>
      <point x="111.5" y="-93.5" type="curve" smooth="yes"/>
      <point x="59.5" y="-46"/>
      <point x="25.5" y="37.5"/>
      <point x="25.5" y="133.5" type="curve" smooth="yes"/>
      <point x="25.5" y="229"/>
      <point x="59.5" y="312.5"/>
      <point x="111.5" y="360" type="curve" smooth="yes"/>
      <point x="114.5" y="363.5"/>
      <point x="118" y="365"/>
      <point x="121" y="365" type="curve" smooth="yes"/>
      <point x="127" y="365"/>
      <point x="135" y="360"/>
      <point x="135" y="353" type="curve" smooth="yes"/>
      <point x="135" y="350"/>
      <point x="133.5" y="346.5"/>
      <point x="131" y="343" type="curve" smooth="yes"/>
      <point x="89.5" y="294"/>
      <point x="63.5" y="218"/>
      <point x="63.5" y="133.5" type="curve" smooth="yes"/>
      <point x="63.5" y="48.5"/>
      <point x="89.5" y="-27"/>
      <point x="130.5" y="-76.5" type="curve" smooth="yes"/>
      <point x="133.5" y="-79.5"/>
      <point x="134.5" y="-83"/>
      <point x="134.5" y="-85.5" type="curve" smooth="yes"/>
      <point x="134.5" y="-90.5"/>
      <point x="128.5" y="-99"/>
    </contour>
  </outline>
</glyph>
<glyph name="parenright" format="1">
  <advance width="536"/>
  <unicode hex="0029"/>
  <outline>
    <contour>
      <point x="85" y="-375"/>
      <point x="98" y="-370"/>
      <point x="111" y="-358" type="curve" smooth="yes"/>
      <point x="307" y="-176"/>
      <point x="437" y="145"/>
      <point x="437" y="508" type="curve" smooth="yes"/>
      <point x="437" y="873"/>
      <point x="307" y="1193"/>
      <point x="111" y="1374" type="curve" smooth="yes"/>
      <point x="98" y="1387"/>
      <point x="84" y="1394"/>
      <point x="71" y="1394" type="curve" smooth="yes"/>
      <point x="44" y="1394"/>
      <point x="22" y="1362"/>
      <point x="22" y="1344" type="curve" smooth="yes"/>
      <point x="22" y="1333"/>
      <point x="27" y="1321"/>
      <point x="37" y="1309" type="curve" smooth="yes"/>
      <point x="194" y="1121"/>
      <point x="293" y="832"/>
      <point x="293" y="508" type="curve" smooth="yes"/>
      <point x="293" y="178"/>
      <point x="191" y="-116"/>
      <point x="29" y="-302" type="curve" smooth="yes"/>
      <point x="22" y="-312"/>
      <point x="17" y="-320"/>
      <point x="17" y="-329" type="curve" smooth="yes"/>
      <point x="17" y="-350"/>
      <point x="48" y="-375"/>
      <point x="73" y="-375" type="curve" smooth="yes"/>
    </contour>
  </outline>
</glyph>
<glyph name="asterisk" format="1">
  <advance width="394"/>
  <unicode hex="002A"/>
  <outline>
    <contour>
      <point x="104" y="437"/>
      <point x="109" y="442"/>
      <point x="115" y="447" type="curve" smooth="yes"/>
      <point x="192" y="553" type="line"/>
      <point x="269" y="447" type="line" smooth="yes"/>
      <point x="273" y="442"/>
      <point x="278" y="437"/>
      <point x="285" y="437" type="curve" smooth="yes"/>
      <point x="294" y="437"/>
      <point x="307" y="449"/>
      <point x="307" y="458" type="curve" smooth="yes"/>
      <point x="307" y="463"/>
      <point x="305" y="467"/>
      <point x="303" y="473" type="curve" smooth="yes"/>
      <point x="226" y="577" type="line"/>
      <point x="331" y="612" type="line" smooth="yes"/>
      <point x="341" y="614"/>
      <point x="346" y="619"/>
      <point x="346" y="628" type="curve" smooth="yes"/>
      <point x="346" y="644"/>
      <point x="335" y="653"/>
      <point x="327" y="653" type="curve" smooth="yes"/>
      <point x="323" y="653"/>
      <point x="320" y="653"/>
      <point x="318" y="650" type="curve" smooth="yes"/>
      <point x="212" y="617" type="line"/>
      <point x="212" y="728" type="line" smooth="yes"/>
      <point x="212" y="743"/>
      <point x="206" y="750"/>
      <point x="192" y="750" type="curve" smooth="yes"/>
      <point x="177" y="750"/>
      <point x="170" y="743"/>
      <point x="170" y="728" type="curve" smooth="yes"/>
      <point x="170" y="617" type="line"/>
      <point x="66" y="650" type="line" smooth="yes"/>
      <point x="63" y="653"/>
      <point x="60" y="653"/>
      <point x="56" y="653" type="curve" smooth="yes"/>
      <point x="46" y="653"/>
      <point x="38" y="643"/>
      <point x="38" y="627" type="curve" smooth="yes"/>
      <point x="38" y="619"/>
      <point x="41" y="614"/>
      <point x="52" y="612" type="curve" smooth="yes"/>
      <point x="156" y="577" type="line"/>
      <point x="81" y="473" type="line" smooth="yes"/>
      <point x="76" y="467"/>
      <point x="75" y="463"/>
      <point x="75" y="458" type="curve" smooth="yes"/>
      <point x="75" y="449"/>
      <point x="87" y="437"/>
      <point x="99" y="437" type="curve" smooth="yes"/>
    </contour>
  </outline>
</glyph>
<glyph name="plus" format="1">
  <advance width="996"/>
  <unicode hex="002B"/>
  <outline>
    <contour>
      <point x="505" y="-3" type="line" smooth="yes"/>
      <point x="542" y="-3"/>
      <point x="558" y="7"/>
      <point x="558" y="32" type="curve" smooth="yes"/>
      <point x="558" y="350" type="line"/>
      <point x="875" y="350" type="line" smooth="yes"/>
      <point x="899" y="350"/>
      <point x="911" y="367"/>
      <point x="911" y="404" type="curve" smooth="yes"/>
      <point x="911" y="416" type="line" smooth="yes"/>
      <point x="911" y="454"/>
      <point x="899" y="469"/>
      <point x="875" y="469" type="curve" smooth="yes"/>
      <point x="558" y="469" type="line"/>
      <point x="558" y="788" type="line" smooth="yes"/>
      <point x="558" y="812"/>
      <point x="542" y="824"/>
      <point x="505" y="824" type="curve" smooth="yes"/>
      <point x="493" y="824" type="line" smooth="yes"/>
      <point x="455" y="824"/>
      <point x="440" y="812"/>
      <point x="440" y="788" type="curve" smooth="yes"/>
      <point x="440" y="469" type="line"/>
      <point x="121" y="469" type="line" smooth="yes"/>
      <point x="97" y="469"/>
      <point x="85" y="447"/>
      <point x="85" y="409" type="curve" smooth="yes"/>
      <point x="85" y="397" type="line" smooth="yes"/>
      <point x="85" y="360"/>
      <point x="97" y="350"/>
      <point x="121" y="350" type="curve"/>
      <point x="440" y="350" type="line"/>
      <point x="440" y="32" type="line" smooth="yes"/>
      <point x="440" y="7"/>
      <point x="455" y="-3"/>
      <point x="493" y="-3" type="curve" smooth="yes"/>
    </contour>
  </outline>
</glyph>
<glyph name="comma" format="1">
  <advance width="353"/>
  <unicode hex="002C"/>
  <outline>
    <contour>
      <point x="131" y="-206"/>
      <point x="256" y="-71"/>
      <point x="256" y="143" type="curve" smooth="yes"/>
      <point x="256" y="172"/>
      <point x="230" y="192"/>
      <point x="186" y="192" type="curve" smooth="yes"/>
      <point x="169" y="192" type="line" smooth="yes"/>
      <point x="121" y="192"/>
      <point x="98" y="169"/>
      <point x="98" y="135" type="curve" smooth="yes"/>
      <point x="98" y="25"/>
      <point x="77" y="-59"/>
      <point x="37" y="-137" type="curve" smooth="yes"/>
      <point x="31" y="-152"/>
      <point x="22" y="-169"/>
      <point x="22" y="-179" type="curve" smooth="yes"/>
      <point x="22" y="-201"/>
      <point x="53" y="-206"/>
      <point x="73" y="-206" type="curve" smooth="yes"/>
    </contour>
  </outline>
</glyph>
<glyph name="hyphen" format="1">
  <advance width="570"/>
  <unicode hex="002D"/>
  <outline>
    <contour>
      <point x="450" y="409" type="line" smooth="yes"/>
      <point x="475" y="409"/>
      <point x="486" y="425"/>
      <point x="486" y="462" type="curve" smooth="yes"/>
      <point x="486" y="481" type="line" smooth="yes"/>
      <point x="486" y="517"/>
      <point x="475" y="534"/>
      <point x="450" y="534" type="curve" smooth="yes"/>
      <point x="114" y="534" type="line" smooth="yes"/>
      <point x="89" y="534"/>
      <point x="78" y="517"/>
      <point x="78" y="481" type="curve" smooth="yes"/>
      <point x="78" y="462" type="line" smooth="yes"/>
      <point x="78" y="425"/>
      <point x="89" y="409"/>
      <point x="114" y="409" type="curve"/>
    </contour>
  </outline>
</glyph>
<glyph name="period" format="1">
  <advance width="353"/>
  <unicode hex="002E"/>
  <outline>
    <contour>
      <point x="192" y="-3" type="line" smooth="yes"/>
      <point x="242" y="-3"/>
      <point x="263" y="10"/>
      <point x="263" y="36" type="curve" smooth="yes"/>
      <point x="263" y="153" type="line" smooth="yes"/>
      <point x="263" y="178"/>
      <point x="242" y="192"/>
      <point x="192" y="192" type="curve" smooth="yes"/>
      <point x="162" y="192" type="line" smooth="yes"/>
      <point x="112" y="192"/>
      <point x="91" y="178"/>
      <point x="91" y="153" type="curve" smooth="yes"/>
      <point x="91" y="36" type="line" smooth="yes"/>
      <point x="91" y="10"/>
      <point x="112" y="-3"/>
      <point x="162" y="-3" type="curve" smooth="yes"/>
    </contour>
  </outline>
</glyph>
<glyph name="slash" format="1">
  <advance width="658"/>
  <unicode hex="002F"/>
  <outline>
    <contour>
      <point x="36" y="-135" type="line" smooth="yes"/>
      <point x="66" y="-135"/>
      <point x="82" y="-123"/>
      <point x="94" y="-94" type="curve" smooth="yes"/>
      <point x="645" y="1188" type="line" smooth="yes"/>
      <point x="649" y="1196"/>
      <point x="650" y="1205"/>
      <point x="650" y="1215" type="curve" smooth="yes"/>
      <point x="650" y="1236"/>
      <point x="638" y="1250"/>
      <point x="609" y="1250" type="curve" smooth="yes"/>
      <point x="601" y="1250" type="line" smooth="yes"/>
      <point x="571" y="1250"/>
      <point x="551" y="1237"/>
      <point x="539" y="1209" type="curve" smooth="yes"/>
      <point x="-13" y="-73" type="line" smooth="yes"/>
      <point x="-17" y="-82"/>
      <point x="-18" y="-91"/>
      <point x="-18" y="-100" type="curve" smooth="yes"/>
      <point x="-18" y="-121"/>
      <point x="-2" y="-135"/>
      <point x="29" y="-135" type="curve" smooth="yes"/>
    </contour>
  </outline>
</glyph>
<glyph name="zero" format="1">
  <advance width="565"/>
  <unicode hex="0030"/>
  <outline>
    <contour>
      <point x="410" y="-7"/>
      <point x="522" y="107"/>
      <point x="522" y="370" type="curve" smooth="yes"/>
      <point x="522" y="633"/>
      <point x="410" y="746"/>
      <point x="282" y="746" type="curve" smooth="yes"/>
      <point x="155" y="746"/>
      <point x="41" y="633"/>
      <point x="41" y="370" type="curve" smooth="yes"/>
      <point x="41" y="107"/>
      <point x="155" y="-7"/>
      <point x="282" y="-7" type="curve" smooth="yes"/>
    </contour>
    <contour>
      <point x="205" y="71"/>
      <point x="131" y="149"/>
      <point x="131" y="370" type="curve" smooth="yes"/>
      <point x="131" y="591"/>
      <point x="205" y="670"/>
      <point x="282" y="670" type="curve" smooth="yes"/>
      <point x="358" y="670"/>
      <point x="433" y="591"/>
      <point x="433" y="370" type="curve" smooth="yes"/>
      <point x="433" y="149"/>
      <point x="358" y="71"/>
      <point x="282" y="71" type="curve" smooth="yes"/>
    </contour>
  </outline>
</glyph>
<glyph name="one" format="1">
  <advance width="250"/>
  <unicode hex="0031"/>
  <outline>
    <contour>
      <point x="29.5" y="0" type="line" smooth="yes"/>
      <point x="23" y="0"/>
      <point x="20" y="4"/>
      <point x="20" y="14" type="curve" smooth="yes"/>
      <point x="20" y="19.5" type="line" smooth="yes"/>
      <point x="20" y="29.5"/>
      <point x="23" y="33.5"/>
      <point x="29.5" y="33.5" type="curve" smooth="yes"/>
      <point x="110.5" y="33.5" type="line"/>
      <point x="110.5" y="284.5" type="line"/>
      <point x="28" y="270.5" type="line" smooth="yes"/>
      <point x="21.5" y="270.5"/>
      <point x="18.5" y="286"/>
      <point x="18.5" y="294.5" type="curve" smooth="yes"/>
      <point x="18.5" y="299.5"/>
      <point x="21.5" y="302"/>
      <point x="27" y="303.5" type="curve" smooth="yes"/>
      <point x="135" y="327" type="line" smooth="yes"/>
      <point x="142" y="327"/>
      <point x="149.5" y="323"/>
      <point x="149.5" y="317.5" type="curve" smooth="yes"/>
      <point x="149.5" y="33.5" type="line"/>
      <point x="218.5" y="33.5" type="line" smooth="yes"/>
      <point x="225" y="33.5"/>
      <point x="228" y="29.5"/>
      <point x="228" y="19.5" type="curve" smooth="yes"/>
      <point x="228" y="14" type="line" smooth="yes"/>
      <point x="228" y="4"/>
      <point x="225" y="0"/>
      <point x="218.5" y="0" type="curve" smooth="yes"/>
    </contour>
  </outline>
</glyph>
<glyph name="two" format="1">
  <advance width="952"/>
  <unicode hex="0032"/>
  <outline>
    <contour>
      <point x="805" y="0" type="line" smooth="yes"/>
      <point x="831" y="0"/>
      <point x="841" y="17"/>
      <point x="841" y="53" type="curve" smooth="yes"/>
      <point x="841" y="73" type="line" smooth="yes"/>
      <point x="841" y="111"/>
      <point x="831" y="126"/>
      <point x="805" y="126" type="curve" smooth="yes"/>
      <point x="293" y="126" type="line"/>
      <point x="423" y="285" type="line" smooth="yes"/>
      <point x="783" y="724"/>
      <point x="831" y="783"/>
      <point x="831" y="953" type="curve" smooth="yes"/>
      <point x="831" y="1140"/>
      <point x="684" y="1256"/>
      <point x="452" y="1256" type="curve" smooth="yes"/>
      <point x="343" y="1256"/>
      <point x="131" y="1200"/>
      <point x="131" y="1126" type="curve" smooth="yes"/>
      <point x="131" y="1099"/>
      <point x="171" y="1037"/>
      <point x="189" y="1037" type="curve" smooth="yes"/>
      <point x="219" y="1037"/>
      <point x="293" y="1128"/>
      <point x="455" y="1128" type="curve" smooth="yes"/>
      <point x="592" y="1128"/>
      <point x="677" y="1056"/>
      <point x="677" y="942" type="curve" smooth="yes"/>
      <point x="677" y="868"/>
      <point x="669" y="832"/>
      <point x="556" y="684" type="curve"/>
      <point x="98" y="109" type="line"/>
      <point x="92" y="104"/>
      <point x="91" y="91"/>
      <point x="91" y="78" type="curve" smooth="yes"/>
      <point x="91" y="44"/>
      <point x="105" y="0"/>
      <point x="126" y="0" type="curve" smooth="yes"/>
    </contour>
  </outline>
</glyph>
<glyph name="three" format="1">
  <advance width="952"/>
  <unicode hex="0033"/>
  <outline>
    <contour>
      <point x="614" y="-10"/>
      <point x="834" y="87"/>
      <point x="834" y="361" type="curve" smooth="yes"/>
      <point x="834" y="548"/>
      <point x="717" y="660"/>
      <point x="610" y="688" type="curve"/>
      <point x="610" y="696" type="line"/>
      <point x="704" y="732"/>
      <point x="793" y="816"/>
      <point x="793" y="940" type="curve" smooth="yes"/>
      <point x="793" y="1152"/>
      <point x="645" y="1256"/>
      <point x="434" y="1256" type="curve" smooth="yes"/>
      <point x="326" y="1256"/>
      <point x="116" y="1215"/>
      <point x="116" y="1161" type="curve" smooth="yes"/>
      <point x="116" y="1135"/>
      <point x="155" y="1068"/>
      <point x="174" y="1068" type="curve" smooth="yes"/>
      <point x="205" y="1068"/>
      <point x="269" y="1128"/>
      <point x="430" y="1128" type="curve" smooth="yes"/>
      <point x="603" y="1128"/>
      <point x="642" y="1024"/>
      <point x="642" y="957" type="curve" smooth="yes"/>
      <point x="642" y="872"/>
      <point x="589" y="724"/>
      <point x="406" y="724" type="curve" smooth="yes"/>
      <point x="354" y="724" type="line" smooth="yes"/>
      <point x="329" y="724"/>
      <point x="319" y="708"/>
      <point x="319" y="670" type="curve" smooth="yes"/>
      <point x="319" y="650" type="line" smooth="yes"/>
      <point x="319" y="614"/>
      <point x="329" y="597"/>
      <point x="354" y="597" type="curve" smooth="yes"/>
      <point x="413" y="597" type="line" smooth="yes"/>
      <point x="573" y="597"/>
      <point x="679" y="544"/>
      <point x="679" y="363" type="curve" smooth="yes"/>
      <point x="679" y="169"/>
      <point x="530" y="118"/>
      <point x="423" y="118" type="curve" smooth="yes"/>
      <point x="265" y="118"/>
      <point x="176" y="179"/>
      <point x="143" y="179" type="curve" smooth="yes"/>
      <point x="123" y="179"/>
      <point x="80" y="125"/>
      <point x="80" y="91" type="curve" smooth="yes"/>
      <point x="80" y="46"/>
      <point x="230" y="-10"/>
      <point x="437" y="-10" type="curve" smooth="yes"/>
    </contour>
  </outline>
</glyph>
<glyph name="four" format="1">
  <advance width="250"/>
  <unicode hex="0034"/>
  <outline>
    <contour>
      <point x="175" y="-1" type="line" smooth="yes"/>
      <point x="165.5" y="-1"/>
      <point x="161" y="3"/>
      <point x="161" y="9.5" type="curve" smooth="yes"/>
      <point x="161" y="78" type="line"/>
      <point x="19.5" y="78" type="line" smooth="yes"/>
      <point x="14.5" y="78"/>
      <point x="8.5" y="92.5"/>
      <point x="8.5" y="101.5" type="curve" smooth="yes"/>
      <point x="8.5" y="104"/>
      <point x="8.5" y="106"/>
      <point x="9.5" y="106.5" type="curve" smooth="yes"/>
      <point x="162.5" y="320.5" type="line" smooth="yes"/>
      <point x="166" y="325"/>
      <point x="172" y="327"/>
      <point x="178.5" y="327" type="curve" smooth="yes"/>
      <point x="186" y="327" type="line" smooth="yes"/>
      <point x="195.5" y="327"/>
      <point x="200" y="323.5"/>
      <point x="200" y="317" type="curve" smooth="yes"/>
      <point x="200" y="111.5" type="line"/>
      <point x="231" y="111.5" type="line" smooth="yes"/>
      <point x="237.5" y="111.5"/>
      <point x="240.5" y="107"/>
      <point x="240.5" y="97.5" type="curve" smooth="yes"/>
      <point x="240.5" y="92" type="line" smooth="yes"/>
      <point x="240.5" y="82"/>
      <point x="237.5" y="78"/>
      <point x="231" y="78" type="curve" smooth="yes"/>
      <point x="200" y="78" type="line"/>
      <point x="200" y="9.5" type="line" smooth="yes"/>
      <point x="200" y="3"/>
      <point x="195.5" y="-1"/>
      <point x="186" y="-1" type="curve" smooth="yes"/>
    </contour>
    <contour>
      <point x="54.5" y="111.5" type="line"/>
      <point x="161" y="111.5" type="line"/>
      <point x="161" y="259.5" type="line"/>
      <point x="159.5" y="260.5" type="line"/>
    </contour>
  </outline>
</glyph>
<glyph name="five" format="1">
  <advance width="565"/>
  <unicode hex="0035"/>
  <outline>
    <contour>
      <point x="367" y="-7"/>
      <point x="501" y="41"/>
      <point x="501" y="226" type="curve" smooth="yes"/>
      <point x="501" y="396"/>
      <point x="360" y="446"/>
      <point x="245" y="446" type="curve" smooth="yes"/>
      <point x="191" y="446" type="line"/>
      <point x="204" y="664" type="line"/>
      <point x="433" y="664" type="line" smooth="yes"/>
      <point x="448" y="664"/>
      <point x="455" y="674"/>
      <point x="455" y="696" type="curve" smooth="yes"/>
      <point x="455" y="708" type="line" smooth="yes"/>
      <point x="455" y="730"/>
      <point x="448" y="740"/>
      <point x="433" y="740" type="curve" smooth="yes"/>
      <point x="152" y="740" type="line" smooth="yes"/>
      <point x="130" y="740"/>
      <point x="119" y="730"/>
      <point x="118" y="708" type="curve" smooth="yes"/>
      <point x="102" y="402" type="line"/>
      <point x="102" y="380"/>
      <point x="107" y="370"/>
      <point x="130" y="370" type="curve" smooth="yes"/>
      <point x="220" y="370" type="line" smooth="yes"/>
      <point x="343" y="370"/>
      <point x="411" y="319"/>
      <point x="411" y="226" type="curve" smooth="yes"/>
      <point x="411" y="120"/>
      <point x="332" y="71"/>
      <point x="246" y="71" type="curve" smooth="yes"/>
      <point x="155" y="71"/>
      <point x="107" y="110"/>
      <point x="86" y="110" type="curve" smooth="yes"/>
      <point x="75" y="110"/>
      <point x="50" y="77"/>
      <point x="50" y="57" type="curve" smooth="yes"/>
      <point x="50" y="31"/>
      <point x="130" y="-7"/>
      <point x="247" y="-7" type="curve" smooth="yes"/>
    </contour>
  </outline>
</glyph>
<glyph name="six" format="1">
  <advance width="952"/>
  <unicode hex="0036"/>
  <outline>
    <contour>
      <point x="684" y="-9"/>
      <point x="853" y="135"/>
      <point x="853" y="361" type="curve" smooth="yes"/>
      <point x="853" y="580"/>
      <point x="703" y="720"/>
      <point x="514" y="720" type="curve" smooth="yes"/>
      <point x="406" y="720"/>
      <point x="329" y="693"/>
      <point x="274" y="662" type="curve"/>
      <point x="331" y="860"/>
      <point x="471" y="1034"/>
      <point x="713" y="1135" type="curve" smooth="yes"/>
      <point x="725" y="1140"/>
      <point x="727" y="1148"/>
      <point x="727" y="1154" type="curve" smooth="yes"/>
      <point x="727" y="1175"/>
      <point x="706" y="1249"/>
      <point x="669" y="1249" type="curve" smooth="yes"/>
      <point x="549" y="1249"/>
      <point x="91" y="953"/>
      <point x="91" y="440" type="curve" smooth="yes"/>
      <point x="91" y="157"/>
      <point x="217" y="-9"/>
      <point x="469" y="-9" type="curve" smooth="yes"/>
    </contour>
    <contour>
      <point x="367" y="119"/>
      <point x="240" y="176"/>
      <point x="240" y="425" type="curve" smooth="yes"/>
      <point x="240" y="459"/>
      <point x="244" y="496"/>
      <point x="247" y="532" type="curve"/>
      <point x="297" y="560"/>
      <point x="375" y="592"/>
      <point x="469" y="592" type="curve" smooth="yes"/>
      <point x="587" y="592"/>
      <point x="703" y="529"/>
      <point x="703" y="354" type="curve" smooth="yes"/>
      <point x="703" y="191"/>
      <point x="575" y="119"/>
      <point x="478" y="119" type="curve" smooth="yes"/>
    </contour>
  </outline>
</glyph>
<glyph name="seven" format="1">
  <advance width="565"/>
  <unicode hex="0037"/>
  <outline>
    <contour>
      <point x="161" y="-2" type="line" smooth="yes"/>
      <point x="181" y="-2"/>
      <point x="197" y="4"/>
      <point x="203" y="15" type="curve" smooth="yes"/>
      <point x="516" y="675" type="line" smooth="yes"/>
      <point x="517" y="677"/>
      <point x="518" y="681"/>
      <point x="518" y="686" type="curve" smooth="yes"/>
      <point x="518" y="708"/>
      <point x="505" y="740"/>
      <point x="496" y="740" type="curve" smooth="yes"/>
      <point x="79" y="740" type="line" smooth="yes"/>
      <point x="64" y="740"/>
      <point x="57" y="730"/>
      <point x="57" y="708" type="curve" smooth="yes"/>
      <point x="57" y="696" type="line" smooth="yes"/>
      <point x="57" y="674"/>
      <point x="64" y="664"/>
      <point x="79" y="664" type="curve" smooth="yes"/>
      <point x="411" y="664" type="line"/>
      <point x="106" y="30" type="line" smooth="yes"/>
      <point x="104" y="24"/>
      <point x="102" y="21"/>
      <point x="102" y="18" type="curve" smooth="yes"/>
      <point x="102" y="2"/>
      <point x="116" y="-2"/>
      <point x="147" y="-2" type="curve" smooth="yes"/>
    </contour>
  </outline>
</glyph>
<glyph name="eight" format="1">
  <advance width="565"/>
  <unicode hex="0038"/>
  <outline>
    <contour>
      <point x="409" y="-7"/>
      <point x="511" y="63"/>
      <point x="511" y="213" type="curve" smooth="yes"/>
      <point x="511" y="329"/>
      <point x="453" y="372"/>
      <point x="384" y="403" type="curve"/>
      <point x="442" y="428"/>
      <point x="487" y="476"/>
      <point x="487" y="563" type="curve" smooth="yes"/>
      <point x="487" y="684"/>
      <point x="395" y="746"/>
      <point x="284" y="746" type="curve" smooth="yes"/>
      <point x="173" y="746"/>
      <point x="84" y="684"/>
      <point x="84" y="563" type="curve" smooth="yes"/>
      <point x="84" y="484"/>
      <point x="121" y="431"/>
      <point x="171" y="402" type="curve"/>
      <point x="106" y="371"/>
      <point x="54" y="326"/>
      <point x="54" y="213" type="curve" smooth="yes"/>
      <point x="54" y="63"/>
      <point x="155" y="-7"/>
      <point x="282" y="-7" type="curve" smooth="yes"/>
    </contour>
    <contour>
      <point x="208" y="71"/>
      <point x="145" y="117"/>
      <point x="145" y="213" type="curve" smooth="yes"/>
      <point x="145" y="295"/>
      <point x="188" y="338"/>
      <point x="241" y="370" type="curve"/>
      <point x="327" y="337"/>
      <point x="421" y="320"/>
      <point x="421" y="213" type="curve" smooth="yes"/>
      <point x="421" y="117"/>
      <point x="357" y="71"/>
      <point x="282" y="71" type="curve" smooth="yes"/>
    </contour>
    <contour>
      <point x="236" y="456"/>
      <point x="172" y="478"/>
      <point x="172" y="563" type="curve" smooth="yes"/>
      <point x="172" y="638"/>
      <point x="222" y="670"/>
      <point x="285" y="670" type="curve" smooth="yes"/>
      <point x="347" y="670"/>
      <point x="399" y="638"/>
      <point x="399" y="563" type="curve" smooth="yes"/>
      <point x="399" y="501"/>
      <point x="359" y="460"/>
      <point x="307" y="431" type="curve"/>
    </contour>
  </outline>
</glyph>
<glyph name="nine" format="1">
  <advance width="250"/>
  <unicode hex="0039"/>
  <outline>
    <contour>
      <point x="74" y="-1" type="curve" smooth="yes"/>
      <point x="64.5" y="-1"/>
      <point x="58.5" y="18"/>
      <point x="58.5" y="24" type="curve" smooth="yes"/>
      <point x="58.5" y="25"/>
      <point x="59" y="27.5"/>
      <point x="62.5" y="29" type="curve" smooth="yes"/>
      <point x="126" y="55"/>
      <point x="162.5" y="100.5"/>
      <point x="177.5" y="153" type="curve"/>
      <point x="163" y="144.5"/>
      <point x="143" y="137.5"/>
      <point x="114.5" y="137.5" type="curve" smooth="yes"/>
      <point x="65" y="137.5"/>
      <point x="25.5" y="174.5"/>
      <point x="25.5" y="231.5" type="curve" smooth="yes"/>
      <point x="25.5" y="291"/>
      <point x="70" y="328.5"/>
      <point x="126.5" y="328.5" type="curve" smooth="yes"/>
      <point x="192.5" y="328.5"/>
      <point x="225.5" y="285"/>
      <point x="225.5" y="211" type="curve" smooth="yes"/>
      <point x="225.5" y="76.5"/>
      <point x="105.5" y="-1"/>
    </contour>
    <contour>
      <point x="126.5" y="171" type="curve" smooth="yes"/>
      <point x="151" y="171"/>
      <point x="171.5" y="179.5"/>
      <point x="184.5" y="187" type="curve"/>
      <point x="185.5" y="196"/>
      <point x="186.5" y="206"/>
      <point x="186.5" y="215" type="curve" smooth="yes"/>
      <point x="186.5" y="280"/>
      <point x="153.5" y="295"/>
      <point x="124" y="295" type="curve" smooth="yes"/>
      <point x="99" y="295"/>
      <point x="65" y="276.5"/>
      <point x="65" y="233.5" type="curve" smooth="yes"/>
      <point x="65" y="188"/>
      <point x="95.5" y="171"/>
    </contour>
  </outline>
</glyph>
<glyph name="colon" format="1">
  <advance width="210"/>
  <unicode hex="003A"/>
  <outline>
    <contour>
      <point x="114" y="439" type="line" smooth="yes"/>
      <point x="144" y="439"/>
      <point x="156" y="447"/>
      <point x="156" y="462" type="curve" smooth="yes"/>
      <point x="156" y="532" type="line" smooth="yes"/>
      <point x="156" y="547"/>
      <point x="144" y="554"/>
      <point x="114" y="554" type="curve" smooth="yes"/>
      <point x="96" y="554" type="line" smooth="yes"/>
      <point x="66" y="554"/>
      <point x="54" y="547"/>
      <point x="54" y="532" type="curve" smooth="yes"/>
      <point x="54" y="462" type="line" smooth="yes"/>
      <point x="54" y="447"/>
      <point x="66" y="439"/>
      <point x="96" y="439" type="curve"/>
    </contour>
    <contour>
      <point x="114" y="-2" type="line" smooth="yes"/>
      <point x="144" y="-2"/>
      <point x="156" y="7"/>
      <point x="156" y="22" type="curve" smooth="yes"/>
      <point x="156" y="91" type="line" smooth="yes"/>
      <point x="156" y="106"/>
      <point x="144" y="115"/>
      <point x="114" y="115" type="curve" smooth="yes"/>
      <point x="96" y="115" type="line" smooth="yes"/>
      <point x="66" y="115"/>
      <point x="54" y="106"/>
      <point x="54" y="91" type="curve" smooth="yes"/>
      <point x="54" y="22" type="line" smooth="yes"/>
      <point x="54" y="7"/>
      <point x="66" y="-2"/>
      <point x="96" y="-2" type="curve" smooth="yes"/>
    </contour>
  </outline>
</glyph>
<glyph name="semicolon" format="1">
  <advance width="353"/>
  <unicode hex="003B"/>
  <outline>
    <contour>
      <point x="192" y="738" type="line" smooth="yes"/>
      <point x="242" y="738"/>
      <point x="263" y="752"/>
      <point x="263" y="777" type="curve" smooth="yes"/>
      <point x="263" y="894" type="line" smooth="yes"/>
      <point x="263" y="920"/>
      <point x="242" y="933"/>
      <point x="192" y="933" type="curve" smooth="yes"/>
      <point x="162" y="933" type="line" smooth="yes"/>
      <point x="112" y="933"/>
      <point x="91" y="920"/>
      <point x="91" y="894" type="curve" smooth="yes"/>
      <point x="91" y="777" type="line" smooth="yes"/>
      <point x="91" y="752"/>
      <point x="112" y="738"/>
      <point x="162" y="738" type="curve"/>
    </contour>
    <component base="comma"/>
  </outline>
</glyph>
<glyph name="less" format="1">
  <advance width="996"/>
  <unicode hex="003C"/>
  <outline>
    <contour>
      <point x="896" y="13"/>
      <point x="913" y="29"/>
      <point x="913" y="59" type="curve" smooth="yes"/>
      <point x="913" y="84" type="line" smooth="yes"/>
      <point x="913" y="114"/>
      <point x="898" y="133"/>
      <point x="870" y="146" type="curve" smooth="yes"/>
      <point x="237" y="406" type="line"/>
      <point x="870" y="664" type="line" smooth="yes"/>
      <point x="898" y="674"/>
      <point x="913" y="696"/>
      <point x="913" y="725" type="curve" smooth="yes"/>
      <point x="913" y="751" type="line" smooth="yes"/>
      <point x="913" y="781"/>
      <point x="896" y="797"/>
      <point x="875" y="797" type="curve" smooth="yes"/>
      <point x="866" y="797"/>
      <point x="857" y="795"/>
      <point x="848" y="792" type="curve" smooth="yes"/>
      <point x="118" y="482" type="line" smooth="yes"/>
      <point x="89" y="469"/>
      <point x="73" y="450"/>
      <point x="73" y="420" type="curve" smooth="yes"/>
      <point x="73" y="389" type="line" smooth="yes"/>
      <point x="73" y="360"/>
      <point x="89" y="340"/>
      <point x="118" y="327" type="curve"/>
      <point x="848" y="18" type="line" smooth="yes"/>
      <point x="857" y="15"/>
      <point x="866" y="13"/>
      <point x="875" y="13" type="curve" smooth="yes"/>
    </contour>
  </outline>
</glyph>
<glyph name="equal" format="1">
  <advance width="996"/>
  <unicode hex="003D"/>
  <outline>
    <contour>
      <point x="857" y="191" type="line" smooth="yes"/>
      <point x="892" y="191"/>
      <point x="911" y="210"/>
      <point x="911" y="244" type="curve" smooth="yes"/>
      <point x="911" y="258" type="line" smooth="yes"/>
      <point x="911" y="293"/>
      <point x="892" y="312"/>
      <point x="857" y="312" type="curve" smooth="yes"/>
      <point x="138" y="312" type="line" smooth="yes"/>
      <point x="105" y="312"/>
      <point x="85" y="293"/>
      <point x="85" y="258" type="curve" smooth="yes"/>
      <point x="85" y="244" type="line" smooth="yes"/>
      <point x="85" y="210"/>
      <point x="105" y="191"/>
      <point x="138" y="191" type="curve"/>
    </contour>
    <contour>
      <point x="857" y="482" type="line" smooth="yes"/>
      <point x="892" y="482"/>
      <point x="911" y="502"/>
      <point x="911" y="536" type="curve" smooth="yes"/>
      <point x="911" y="548" type="line" smooth="yes"/>
      <point x="911" y="583"/>
      <point x="892" y="601"/>
      <point x="857" y="601" type="curve" smooth="yes"/>
      <point x="138" y="601" type="line" smooth="yes"/>
      <point x="105" y="601"/>
      <point x="85" y="583"/>
      <point x="85" y="548" type="curve" smooth="yes"/>
      <point x="85" y="536" type="line" smooth="yes"/>
      <point x="85" y="502"/>
      <point x="105" y="482"/>
      <point x="138" y="482" type="curve"/>
    </contour>
  </outline>
</glyph>
<glyph name="greater" format="1">
  <advance width="996"/>
  <unicode hex="003E"/>
  <outline>
    <contour>
      <point x="128" y="10"/>
      <point x="137" y="13"/>
      <point x="146" y="17" type="curve" smooth="yes"/>
      <point x="877" y="326" type="line" smooth="yes"/>
      <point x="905" y="338"/>
      <point x="921" y="358"/>
      <point x="921" y="387" type="curve" smooth="yes"/>
      <point x="921" y="418" type="line" smooth="yes"/>
      <point x="921" y="448"/>
      <point x="905" y="468"/>
      <point x="877" y="481" type="curve" smooth="yes"/>
      <point x="146" y="790" type="line" smooth="yes"/>
      <point x="137" y="793"/>
      <point x="128" y="795"/>
      <point x="119" y="795" type="curve" smooth="yes"/>
      <point x="98" y="795"/>
      <point x="82" y="778"/>
      <point x="82" y="749" type="curve" smooth="yes"/>
      <point x="82" y="724" type="line" smooth="yes"/>
      <point x="82" y="693"/>
      <point x="97" y="672"/>
      <point x="125" y="662" type="curve" smooth="yes"/>
      <point x="758" y="404" type="line"/>
      <point x="125" y="145" type="line" smooth="yes"/>
      <point x="97" y="131"/>
      <point x="82" y="112"/>
      <point x="82" y="82" type="curve" smooth="yes"/>
      <point x="82" y="58" type="line" smooth="yes"/>
      <point x="82" y="27"/>
      <point x="98" y="10"/>
      <point x="119" y="10" type="curve" smooth="yes"/>
    </contour>
  </outline>
</glyph>
<glyph name="question" format="1">
  <advance width="470"/>
  <unicode hex="003F"/>
  <outline>
    <contour>
      <point x="205" y="213" type="line" smooth="yes"/>
      <point x="231" y="213"/>
      <point x="238" y="221"/>
      <point x="241" y="235" type="curve" smooth="yes"/>
      <point x="256" y="358"/>
      <point x="449" y="426"/>
      <point x="449" y="569" type="curve" smooth="yes"/>
      <point x="449" y="664"/>
      <point x="373" y="746"/>
      <point x="233" y="746" type="curve" smooth="yes"/>
      <point x="156" y="746"/>
      <point x="51" y="722"/>
      <point x="51" y="686" type="curve" smooth="yes"/>
      <point x="51" y="671"/>
      <point x="74" y="632"/>
      <point x="85" y="632" type="curve" smooth="yes"/>
      <point x="102" y="632"/>
      <point x="149" y="668"/>
      <point x="215" y="668" type="curve" smooth="yes"/>
      <point x="303" y="668"/>
      <point x="349" y="632"/>
      <point x="349" y="558" type="curve" smooth="yes"/>
      <point x="349" y="505"/>
      <point x="303" y="459"/>
      <point x="248" y="406" type="curve" smooth="yes"/>
      <point x="191" y="348"/>
      <point x="158" y="286"/>
      <point x="158" y="238" type="curve" smooth="yes"/>
      <point x="158" y="223"/>
      <point x="167" y="213"/>
      <point x="190" y="213" type="curve" smooth="yes"/>
    </contour>
    <contour>
      <point x="204" y="-2" type="line" smooth="yes"/>
      <point x="233" y="-2"/>
      <point x="246" y="7"/>
      <point x="246" y="22" type="curve" smooth="yes"/>
      <point x="246" y="91" type="line" smooth="yes"/>
      <point x="246" y="106"/>
      <point x="233" y="115"/>
      <point x="204" y="115" type="curve" smooth="yes"/>
      <point x="186" y="115" type="line" smooth="yes"/>
      <point x="156" y="115"/>
      <point x="144" y="106"/>
      <point x="144" y="91" type="curve" smooth="yes"/>
      <point x="144" y="22" type="line" smooth="yes"/>
      <point x="144" y="7"/>
      <point x="156" y="-2"/>
      <point x="186" y="-2" type="curve" smooth="yes"/>
    </contour>
  </outline>
</glyph>
<glyph name="at" format="1">
  <advance width="1029"/>
  <unicode hex="0040"/>
  <outline>
    <contour>
      <point x="488" y="-133"/>
      <point x="612" y="-121"/>
      <point x="612" y="-81" type="curve" smooth="yes"/>
      <point x="612" y="-64"/>
      <point x="605" y="-56"/>
      <point x="596" y="-56" type="curve" smooth="yes"/>
      <point x="571" y="-56"/>
      <point x="537" y="-86"/>
      <point x="433" y="-86" type="curve" smooth="yes"/>
      <point x="262" y="-86"/>
      <point x="147" y="50"/>
      <point x="147" y="251" type="curve" smooth="yes"/>
      <point x="147" y="502"/>
      <point x="330" y="699"/>
      <point x="564" y="699" type="curve" smooth="yes"/>
      <point x="741" y="699"/>
      <point x="859" y="581"/>
      <point x="859" y="402" type="curve" smooth="yes"/>
      <point x="859" y="248"/>
      <point x="786" y="114"/>
      <point x="708" y="114" type="curve" smooth="yes"/>
      <point x="698" y="114"/>
      <point x="666" y="114"/>
      <point x="666" y="158" type="curve" smooth="yes"/>
      <point x="666" y="183"/>
      <point x="701" y="508"/>
      <point x="701" y="508" type="curve"/>
      <point x="701" y="521"/>
      <point x="693" y="531"/>
      <point x="677" y="531" type="curve" smooth="yes"/>
      <point x="671" y="531" type="line" smooth="yes"/>
      <point x="645" y="531"/>
      <point x="645" y="515"/>
      <point x="634" y="485" type="curve"/>
      <point x="615" y="504"/>
      <point x="575" y="534"/>
      <point x="517" y="534" type="curve" smooth="yes"/>
      <point x="381" y="534"/>
      <point x="294" y="415"/>
      <point x="294" y="250" type="curve" smooth="yes"/>
      <point x="294" y="94"/>
      <point x="386" y="57"/>
      <point x="447" y="57" type="curve" smooth="yes"/>
      <point x="509" y="57"/>
      <point x="567" y="93"/>
      <point x="605" y="185" type="curve"/>
      <point x="590" y="193" type="line"/>
      <point x="590" y="146" type="line" smooth="yes"/>
      <point x="590" y="99"/>
      <point x="628" y="57"/>
      <point x="693" y="57" type="curve" smooth="yes"/>
      <point x="826" y="57"/>
      <point x="916" y="210"/>
      <point x="916" y="402" type="curve" smooth="yes"/>
      <point x="916" y="609"/>
      <point x="776" y="745"/>
      <point x="564" y="745" type="curve" smooth="yes"/>
      <point x="297" y="745"/>
      <point x="88" y="529"/>
      <point x="88" y="251" type="curve" smooth="yes"/>
      <point x="88" y="23"/>
      <point x="229" y="-133"/>
      <point x="433" y="-133" type="curve" smooth="yes"/>
    </contour>
    <contour>
      <point x="412" y="121"/>
      <point x="370" y="153"/>
      <point x="370" y="255" type="curve" smooth="yes"/>
      <point x="370" y="362"/>
      <point x="401" y="468"/>
      <point x="522" y="468" type="curve" smooth="yes"/>
      <point x="569" y="468"/>
      <point x="602" y="447"/>
      <point x="620" y="432" type="curve"/>
      <point x="613" y="409"/>
      <point x="605" y="325"/>
      <point x="600" y="272" type="curve"/>
      <point x="562" y="155"/>
      <point x="505" y="121"/>
      <point x="464" y="121" type="curve" smooth="yes"/>
    </contour>
  </outline>
</glyph>
<glyph name="A" format="1">
  <advance width="1090"/>
  <unicode hex="0041"/>
  <outline>
    <contour>
      <point x="107" y="-3" type="line" smooth="yes"/>
      <point x="143" y="-3"/>
      <point x="171" y="3"/>
      <point x="178" y="25" type="curve" smooth="yes"/>
      <point x="280" y="317" type="line"/>
      <point x="802" y="317" type="line"/>
      <point x="906" y="25" type="line" smooth="yes"/>
      <point x="914" y="3"/>
      <point x="942" y="-3"/>
      <point x="978" y="-3" type="curve" smooth="yes"/>
      <point x="993" y="-3" type="line" smooth="yes"/>
      <point x="1046" y="-3"/>
      <point x="1068" y="9"/>
      <point x="1068" y="27" type="curve" smooth="yes"/>
      <point x="1068" y="34"/>
      <point x="1067" y="41"/>
      <point x="1063" y="50" type="curve" smooth="yes"/>
      <point x="642" y="1220" type="line" smooth="yes"/>
      <point x="635" y="1241"/>
      <point x="606" y="1249"/>
      <point x="571" y="1249" type="curve" smooth="yes"/>
      <point x="519" y="1249" type="line" smooth="yes"/>
      <point x="484" y="1249"/>
      <point x="455" y="1241"/>
      <point x="448" y="1220" type="curve" smooth="yes"/>
      <point x="27" y="51" type="line" smooth="yes"/>
      <point x="24" y="41"/>
      <point x="22" y="34"/>
      <point x="22" y="27" type="curve" smooth="yes"/>
      <point x="22" y="7"/>
      <point x="44" y="-3"/>
      <point x="98" y="-3" type="curve" smooth="yes"/>
    </contour>
    <contour>
      <point x="515" y="981" type="line" smooth="yes"/>
      <point x="529" y="1015"/>
      <point x="536" y="1051"/>
      <point x="542" y="1085" type="curve"/>
      <point x="546" y="1085" type="line"/>
      <point x="551" y="1051"/>
      <point x="556" y="1014"/>
      <point x="568" y="981" type="curve" smooth="yes"/>
      <point x="754" y="452" type="line"/>
      <point x="329" y="452" type="line"/>
    </contour>
    <contour>
      <point x="1039" y="0" type="move" name="ogonek"/>
    </contour>
    <contour>
      <point x="551" y="0" type="move" name="bottom"/>
    </contour>
    <contour>
      <point x="546" y="1244" type="move" name="top"/>
    </contour>
  </outline>
</glyph>
<glyph name="B" format="1">
  <advance width="627"/>
  <unicode hex="0042"/>
  <outline>
    <contour>
      <point x="316" y="0" type="line" smooth="yes"/>
      <point x="493" y="0"/>
      <point x="592" y="66"/>
      <point x="592" y="212" type="curve" smooth="yes"/>
      <point x="592" y="351"/>
      <point x="443" y="388"/>
      <point x="443" y="388" type="curve"/>
      <point x="443" y="392" type="line"/>
      <point x="505" y="410"/>
      <point x="560" y="482"/>
      <point x="560" y="552" type="curve" smooth="yes"/>
      <point x="560" y="664"/>
      <point x="480" y="740"/>
      <point x="322" y="740" type="curve" smooth="yes"/>
      <point x="134" y="740" type="line" smooth="yes"/>
      <point x="112" y="740"/>
      <point x="102" y="730"/>
      <point x="102" y="708" type="curve" smooth="yes"/>
      <point x="102" y="32" type="line" smooth="yes"/>
      <point x="102" y="9"/>
      <point x="112" y="0"/>
      <point x="134" y="0" type="curve" smooth="yes"/>
    </contour>
    <contour>
      <point x="194" y="340" type="line"/>
      <point x="332" y="340" type="line" smooth="yes"/>
      <point x="441" y="340"/>
      <point x="495" y="294"/>
      <point x="495" y="216" type="curve" smooth="yes"/>
      <point x="495" y="133"/>
      <point x="443" y="81"/>
      <point x="349" y="81" type="curve" smooth="yes"/>
      <point x="194" y="81" type="line"/>
    </contour>
    <contour>
      <point x="194" y="660" type="line"/>
      <point x="314" y="660" type="line" smooth="yes"/>
      <point x="420" y="660"/>
      <point x="464" y="623"/>
      <point x="464" y="544" type="curve" smooth="yes"/>
      <point x="464" y="475"/>
      <point x="403" y="421"/>
      <point x="318" y="421" type="curve" smooth="yes"/>
      <point x="194" y="421" type="line"/>
    </contour>
  </outline>
</glyph>
<glyph name="C" format="1">
  <advance width="655"/>
  <unicode hex="0043"/>
  <outline>
    <contour>
      <point x="523" y="-7"/>
      <point x="618" y="41"/>
      <point x="618" y="71" type="curve" smooth="yes"/>
      <point x="618" y="83"/>
      <point x="596" y="127"/>
      <point x="582" y="127" type="curve" smooth="yes"/>
      <point x="568" y="127"/>
      <point x="509" y="74"/>
      <point x="400" y="74" type="curve" smooth="yes"/>
      <point x="234" y="74"/>
      <point x="156" y="166"/>
      <point x="156" y="369" type="curve" smooth="yes"/>
      <point x="156" y="577"/>
      <point x="235" y="666"/>
      <point x="404" y="666" type="curve" smooth="yes"/>
      <point x="506" y="666"/>
      <point x="557" y="619"/>
      <point x="568" y="619" type="curve" smooth="yes"/>
      <point x="582" y="619"/>
      <point x="604" y="662"/>
      <point x="604" y="680" type="curve" smooth="yes"/>
      <point x="604" y="709"/>
      <point x="507" y="746"/>
      <point x="402" y="746" type="curve" smooth="yes"/>
      <point x="177" y="746"/>
      <point x="60" y="623"/>
      <point x="60" y="370" type="curve" smooth="yes"/>
      <point x="60" y="113"/>
      <point x="169" y="-7"/>
      <point x="400" y="-7" type="curve" smooth="yes"/>
    </contour>
    <contour>
      <point x="375" y="740" type="move" name="top"/>
    </contour>
    <contour>
      <point x="381" y="0" type="move" name="bottom"/>
    </contour>
  </outline>
</glyph>
<glyph name="D" format="1">
  <advance width="1236"/>
  <unicode hex="0044"/>
  <outline>
    <contour>
      <point x="585" y="0" type="line" smooth="yes"/>
      <point x="891" y="0"/>
      <point x="1135" y="160"/>
      <point x="1135" y="623" type="curve" smooth="yes"/>
      <point x="1135" y="1083"/>
      <point x="891" y="1244"/>
      <point x="585" y="1244" type="curve" smooth="yes"/>
      <point x="226" y="1244" type="line" smooth="yes"/>
      <point x="189" y="1244"/>
      <point x="172" y="1229"/>
      <point x="172" y="1191" type="curve" smooth="yes"/>
      <point x="172" y="53" type="line" smooth="yes"/>
      <point x="172" y="17"/>
      <point x="189" y="0"/>
      <point x="226" y="0" type="curve" smooth="yes"/>
    </contour>
    <contour>
      <point x="329" y="1109" type="line"/>
      <point x="573" y="1109" type="line" smooth="yes"/>
      <point x="795" y="1109"/>
      <point x="973" y="976"/>
      <point x="973" y="623" type="curve" smooth="yes"/>
      <point x="973" y="266"/>
      <point x="795" y="135"/>
      <point x="573" y="135" type="curve" smooth="yes"/>
      <point x="329" y="135" type="line"/>
    </contour>
    <contour>
      <point x="619" y="623" type="move" name="center"/>
    </contour>
    <contour>
      <point x="582" y="0" type="move" name="bottom"/>
    </contour>
    <contour>
      <point x="555" y="1244" type="move" name="top"/>
    </contour>
  </outline>
</glyph>
<glyph name="E" format="1">
  <advance width="577"/>
  <unicode hex="0045"/>
  <outline>
    <contour>
      <point x="505" y="0" type="line" smooth="yes"/>
      <point x="519" y="0"/>
      <point x="525" y="9"/>
      <point x="525" y="32" type="curve" smooth="yes"/>
      <point x="525" y="49" type="line" smooth="yes"/>
      <point x="525" y="71"/>
      <point x="519" y="81"/>
      <point x="505" y="81" type="curve" smooth="yes"/>
      <point x="194" y="81" type="line"/>
      <point x="194" y="338" type="line"/>
      <point x="472" y="338" type="line" smooth="yes"/>
      <point x="486" y="338"/>
      <point x="491" y="348"/>
      <point x="491" y="370" type="curve" smooth="yes"/>
      <point x="491" y="386" type="line" smooth="yes"/>
      <point x="491" y="410"/>
      <point x="486" y="418"/>
      <point x="472" y="418" type="curve" smooth="yes"/>
      <point x="194" y="418" type="line"/>
      <point x="194" y="660" type="line"/>
      <point x="504" y="660" type="line" smooth="yes"/>
      <point x="518" y="660"/>
      <point x="523" y="669"/>
      <point x="523" y="691" type="curve" smooth="yes"/>
      <point x="523" y="708" type="line" smooth="yes"/>
      <point x="523" y="730"/>
      <point x="518" y="740"/>
      <point x="504" y="740" type="curve" smooth="yes"/>
      <point x="134" y="740" type="line" smooth="yes"/>
      <point x="112" y="740"/>
      <point x="102" y="730"/>
      <point x="102" y="708" type="curve" smooth="yes"/>
      <point x="102" y="32" type="line" smooth="yes"/>
      <point x="102" y="9"/>
      <point x="112" y="0"/>
      <point x="134" y="0" type="curve" smooth="yes"/>
    </contour>
    <contour>
      <point x="505" y="0" type="move" name="ogonek"/>
    </contour>
    <contour>
      <point x="318" y="0" type="move" name="bottom"/>
    </contour>
    <contour>
      <point x="314" y="740" type="move" name="top"/>
    </contour>
  </outline>
</glyph>
<glyph name="F" format="1">
  <advance width="235"/>
  <unicode hex="0046"/>
  <outline>
    <contour>
      <point x="64" y="-1" type="line" smooth="yes"/>
      <point x="51" y="-1"/>
      <point x="45" y="3"/>
      <point x="45" y="9.5" type="curve" smooth="yes"/>
      <point x="45" y="312" type="line" smooth="yes"/>
      <point x="45" y="322"/>
      <point x="49.5" y="326"/>
      <point x="59" y="326" type="curve" smooth="yes"/>
      <point x="206" y="326" type="line" smooth="yes"/>
      <point x="212.5" y="326"/>
      <point x="215.5" y="322"/>
      <point x="215.5" y="312" type="curve" smooth="yes"/>
      <point x="215.5" y="305" type="line" smooth="yes"/>
      <point x="215.5" y="295"/>
      <point x="212.5" y="291"/>
      <point x="206" y="291" type="curve" smooth="yes"/>
      <point x="86" y="291" type="line"/>
      <point x="86" y="184.5" type="line"/>
      <point x="197.5" y="184.5" type="line" smooth="yes"/>
      <point x="204" y="184.5"/>
      <point x="207" y="180.5"/>
      <point x="207" y="170.5" type="curve" smooth="yes"/>
      <point x="207" y="163" type="line" smooth="yes"/>
      <point x="207" y="153.5"/>
      <point x="204" y="149"/>
      <point x="197.5" y="149" type="curve" smooth="yes"/>
      <point x="86" y="149" type="line"/>
      <point x="86" y="9.5" type="line" smooth="yes"/>
      <point x="86" y="3"/>
      <point x="80.5" y="-1"/>
      <point x="67.5" y="-1" type="curve" smooth="yes"/>
    </contour>
  </outline>
</glyph>
<glyph name="G" format="1">
  <advance width="1195"/>
  <unicode hex="0047"/>
  <outline>
    <contour>
      <point x="853" y="-10"/>
      <point x="1048" y="18"/>
      <point x="1048" y="118" type="curve" smooth="yes"/>
      <point x="1048" y="589" type="line" smooth="yes"/>
      <point x="1048" y="626"/>
      <point x="1031" y="642"/>
      <point x="994" y="642" type="curve" smooth="yes"/>
      <point x="683" y="642" type="line" smooth="yes"/>
      <point x="658" y="642"/>
      <point x="647" y="626"/>
      <point x="647" y="589" type="curve" smooth="yes"/>
      <point x="647" y="560" type="line" smooth="yes"/>
      <point x="647" y="522"/>
      <point x="658" y="507"/>
      <point x="683" y="507" type="curve" smooth="yes"/>
      <point x="891" y="507" type="line"/>
      <point x="891" y="148" type="line"/>
      <point x="843" y="135"/>
      <point x="754" y="125"/>
      <point x="662" y="125" type="curve" smooth="yes"/>
      <point x="345" y="125"/>
      <point x="263" y="356"/>
      <point x="263" y="628" type="curve" smooth="yes"/>
      <point x="263" y="937"/>
      <point x="367" y="1121"/>
      <point x="681" y="1121" type="curve" smooth="yes"/>
      <point x="852" y="1121"/>
      <point x="937" y="1042"/>
      <point x="957" y="1042" type="curve" smooth="yes"/>
      <point x="980" y="1042"/>
      <point x="1017" y="1114"/>
      <point x="1017" y="1145" type="curve" smooth="yes"/>
      <point x="1017" y="1193"/>
      <point x="853" y="1256"/>
      <point x="677" y="1256" type="curve" smooth="yes"/>
      <point x="306" y="1256"/>
      <point x="102" y="1054"/>
      <point x="102" y="612" type="curve" smooth="yes"/>
      <point x="102" y="189"/>
      <point x="297" y="-10"/>
      <point x="650" y="-10" type="curve" smooth="yes"/>
    </contour>
    <contour>
      <point x="597" y="1244" type="move" name="top"/>
    </contour>
    <contour>
      <point x="688" y="0" type="move" name="bottom"/>
    </contour>
  </outline>
</glyph>
<glyph name="H" format="1">
  <advance width="342"/>
  <unicode hex="0048"/>
  <outline>
    <contour>
      <point x="171" y="326" type="move" name="Anchor-1"/>
    </contour>
    <contour>
      <point x="175" y="0" type="move" name="Anchor-0"/>
    </contour>
    <contour>
      <point x="64" y="-1" type="line" smooth="yes"/>
      <point x="51" y="-1"/>
      <point x="45" y="3"/>
      <point x="45" y="9.5" type="curve" smooth="yes"/>
      <point x="45" y="317" type="line" smooth="yes"/>
      <point x="45" y="323.5"/>
      <point x="51" y="327"/>
      <point x="64" y="327" type="curve" smooth="yes"/>
      <point x="67.5" y="327" type="line" smooth="yes"/>
      <point x="80.5" y="327"/>
      <point x="86" y="323.5"/>
      <point x="86" y="317" type="curve" smooth="yes"/>
      <point x="86" y="185" type="line"/>
      <point x="255" y="185" type="line"/>
      <point x="255" y="317" type="line" smooth="yes"/>
      <point x="255" y="323.5"/>
      <point x="260.5" y="327"/>
      <point x="273.5" y="327" type="curve" smooth="yes"/>
      <point x="277.5" y="327" type="line" smooth="yes"/>
      <point x="290.5" y="327"/>
      <point x="296" y="323.5"/>
      <point x="296" y="317" type="curve" smooth="yes"/>
      <point x="296" y="9.5" type="line" smooth="yes"/>
      <point x="296" y="3"/>
      <point x="290.5" y="-1"/>
      <point x="277.5" y="-1" type="curve" smooth="yes"/>
      <point x="273.5" y="-1" type="line" smooth="yes"/>
      <point x="260.5" y="-1"/>
      <point x="255" y="3"/>
      <point x="255" y="9.5" type="curve" smooth="yes"/>
      <point x="255" y="149.5" type="line"/>
      <point x="86" y="149.5" type="line"/>
      <point x="86" y="9.5" type="line" smooth="yes"/>
      <point x="86" y="3"/>
      <point x="80.5" y="-1"/>
      <point x="67.5" y="-1" type="curve" smooth="yes"/>
    </contour>
  </outline>
</glyph>
<glyph name="I" format="1">
  <advance width="502"/>
  <unicode hex="0049"/>
  <outline>
    <contour>
      <point x="258" y="-3" type="line" smooth="yes"/>
      <point x="307" y="-3"/>
      <point x="329" y="10"/>
      <point x="329" y="36" type="curve" smooth="yes"/>
      <point x="329" y="1209" type="line" smooth="yes"/>
      <point x="329" y="1234"/>
      <point x="307" y="1249"/>
      <point x="258" y="1249" type="curve" smooth="yes"/>
      <point x="244" y="1249" type="line" smooth="yes"/>
      <point x="194" y="1249"/>
      <point x="172" y="1234"/>
      <point x="172" y="1209" type="curve" smooth="yes"/>
      <point x="172" y="36" type="line" smooth="yes"/>
      <point x="172" y="10"/>
      <point x="194" y="-3"/>
      <point x="244" y="-3" type="curve" smooth="yes"/>
    </contour>
    <contour>
      <point x="295" y="0" type="move" name="ogonek"/>
    </contour>
    <contour>
      <point x="249" y="0" type="move" name="bottom"/>
    </contour>
    <contour>
      <point x="251" y="1244" type="move" name="top"/>
    </contour>
  </outline>
</glyph>
<glyph name="J" format="1">
  <advance width="715"/>
  <unicode hex="004A"/>
  <outline>
    <contour>
      <point x="464" y="-10"/>
      <point x="568" y="141"/>
      <point x="568" y="365" type="curve" smooth="yes"/>
      <point x="568" y="1209" type="line" smooth="yes"/>
      <point x="568" y="1234"/>
      <point x="546" y="1249"/>
      <point x="496" y="1249" type="curve" smooth="yes"/>
      <point x="482" y="1249" type="line" smooth="yes"/>
      <point x="432" y="1249"/>
      <point x="411" y="1234"/>
      <point x="411" y="1209" type="curve" smooth="yes"/>
      <point x="411" y="347" type="line" smooth="yes"/>
      <point x="411" y="194"/>
      <point x="338" y="128"/>
      <point x="162" y="128" type="curve" smooth="yes"/>
      <point x="105" y="128"/>
      <point x="64" y="145"/>
      <point x="50" y="145" type="curve" smooth="yes"/>
      <point x="22" y="145"/>
      <point x="10" y="53"/>
      <point x="10" y="46" type="curve" smooth="yes"/>
      <point x="10" y="-2"/>
      <point x="123" y="-10"/>
      <point x="191" y="-10" type="curve" smooth="yes"/>
    </contour>
    <contour>
      <point x="482" y="1244" type="move" name="top"/>
    </contour>
  </outline>
</glyph>
<glyph name="K" format="1">
  <advance width="1024"/>
  <unicode hex="004B"/>
  <outline>
    <contour>
      <point x="258" y="-3" type="line" smooth="yes"/>
      <point x="307" y="-3"/>
      <point x="329" y="10"/>
      <point x="329" y="36" type="curve" smooth="yes"/>
      <point x="329" y="592" type="line"/>
      <point x="336" y="592" type="line"/>
      <point x="845" y="20" type="line" smooth="yes"/>
      <point x="866" y="-3"/>
      <point x="903" y="-3"/>
      <point x="942" y="-3" type="curve" smooth="yes"/>
      <point x="964" y="-3" type="line" smooth="yes"/>
      <point x="1019" y="-3"/>
      <point x="1042" y="2"/>
      <point x="1042" y="22" type="curve" smooth="yes"/>
      <point x="1042" y="29"/>
      <point x="1039" y="36"/>
      <point x="1026" y="50" type="curve" smooth="yes"/>
      <point x="488" y="635" type="line"/>
      <point x="932" y="1189" type="line" smooth="yes"/>
      <point x="944" y="1203"/>
      <point x="949" y="1216"/>
      <point x="949" y="1225" type="curve" smooth="yes"/>
      <point x="949" y="1237"/>
      <point x="930" y="1249"/>
      <point x="887" y="1249" type="curve" smooth="yes"/>
      <point x="870" y="1249" type="line" smooth="yes"/>
      <point x="831" y="1249"/>
      <point x="790" y="1242"/>
      <point x="773" y="1223" type="curve" smooth="yes"/>
      <point x="336" y="665" type="line"/>
      <point x="329" y="665" type="line"/>
      <point x="329" y="1209" type="line" smooth="yes"/>
      <point x="329" y="1234"/>
      <point x="307" y="1249"/>
      <point x="258" y="1249" type="curve" smooth="yes"/>
      <point x="244" y="1249" type="line" smooth="yes"/>
      <point x="194" y="1249"/>
      <point x="172" y="1234"/>
      <point x="172" y="1209" type="curve" smooth="yes"/>
      <point x="172" y="36" type="line" smooth="yes"/>
      <point x="172" y="10"/>
      <point x="194" y="-3"/>
      <point x="244" y="-3" type="curve" smooth="yes"/>
    </contour>
    <contour>
      <point x="512" y="1244" type="move" name="top"/>
    </contour>
    <contour>
      <point x="512" y="0" type="move" name="bottom"/>
    </contour>
  </outline>
</glyph>
<glyph name="L" format="1">
  <advance width="511"/>
  <unicode hex="004C"/>
  <outline>
    <contour>
      <point x="486" y="0" type="line" smooth="yes"/>
      <point x="500" y="0"/>
      <point x="507" y="9"/>
      <point x="507" y="32" type="curve" smooth="yes"/>
      <point x="507" y="49" type="line" smooth="yes"/>
      <point x="507" y="71"/>
      <point x="500" y="81"/>
      <point x="486" y="81" type="curve" smooth="yes"/>
      <point x="194" y="81" type="line"/>
      <point x="194" y="719" type="line" smooth="yes"/>
      <point x="194" y="733"/>
      <point x="182" y="742"/>
      <point x="152" y="742" type="curve" smooth="yes"/>
      <point x="145" y="742" type="line" smooth="yes"/>
      <point x="115" y="742"/>
      <point x="102" y="733"/>
      <point x="102" y="719" type="curve" smooth="yes"/>
      <point x="102" y="32" type="line" smooth="yes"/>
      <point x="102" y="9"/>
      <point x="112" y="0"/>
      <point x="134" y="0" type="curve" smooth="yes"/>
    </contour>
    <contour>
      <point x="318" y="354" type="move" name="center"/>
    </contour>
    <contour>
      <point x="258" y="740" type="move" name="caron"/>
    </contour>
    <contour>
      <point x="153" y="742" type="move" name="top"/>
    </contour>
    <contour>
      <point x="298" y="0" type="move" name="bottom"/>
    </contour>
  </outline>
</glyph>
<glyph name="M" format="1">
  <advance width="1498"/>
  <unicode hex="004D"/>
  <outline>
    <contour>
      <point x="244" y="-3" type="line" smooth="yes"/>
      <point x="293" y="-3"/>
      <point x="315" y="10"/>
      <point x="315" y="36" type="curve" smooth="yes"/>
      <point x="315" y="1003" type="line"/>
      <point x="319" y="996" type="line"/>
      <point x="677" y="370" type="line" smooth="yes"/>
      <point x="686" y="354"/>
      <point x="699" y="347"/>
      <point x="717" y="347" type="curve" smooth="yes"/>
      <point x="788" y="347" type="line" smooth="yes"/>
      <point x="807" y="347"/>
      <point x="818" y="354"/>
      <point x="827" y="370" type="curve" smooth="yes"/>
      <point x="1181" y="985" type="line"/>
      <point x="1184" y="993" type="line"/>
      <point x="1184" y="36" type="line" smooth="yes"/>
      <point x="1184" y="10"/>
      <point x="1205" y="-3"/>
      <point x="1256" y="-3" type="curve" smooth="yes"/>
      <point x="1268" y="-3" type="line" smooth="yes"/>
      <point x="1317" y="-3"/>
      <point x="1339" y="10"/>
      <point x="1339" y="36" type="curve" smooth="yes"/>
      <point x="1339" y="1209" type="line" smooth="yes"/>
      <point x="1339" y="1234"/>
      <point x="1317" y="1249"/>
      <point x="1268" y="1249" type="curve" smooth="yes"/>
      <point x="1209" y="1249" type="line" smooth="yes"/>
      <point x="1167" y="1249"/>
      <point x="1145" y="1236"/>
      <point x="1135" y="1216" type="curve" smooth="yes"/>
      <point x="798" y="623" type="line"/>
      <point x="752" y="521" type="line"/>
      <point x="706" y="633" type="line"/>
      <point x="370" y="1216" type="line" smooth="yes"/>
      <point x="360" y="1236"/>
      <point x="338" y="1249"/>
      <point x="295" y="1249" type="curve" smooth="yes"/>
      <point x="232" y="1249" type="line" smooth="yes"/>
      <point x="181" y="1249"/>
      <point x="160" y="1234"/>
      <point x="160" y="1209" type="curve" smooth="yes"/>
      <point x="160" y="36" type="line" smooth="yes"/>
      <point x="160" y="10"/>
      <point x="181" y="-3"/>
      <point x="232" y="-3" type="curve" smooth="yes"/>
    </contour>
  </outline>
</glyph>
<glyph name="N" format="1">
  <advance width="760"/>
  <unicode hex="004E"/>
  <outline>
    <contour>
      <point x="146" y="-2" type="line" smooth="yes"/>
      <point x="174" y="-2"/>
      <point x="188" y="7"/>
      <point x="188" y="22" type="curve" smooth="yes"/>
      <point x="188" y="593" type="line"/>
      <point x="215" y="539" type="line"/>
      <point x="564" y="13" type="line" smooth="yes"/>
      <point x="571" y="3"/>
      <point x="582" y="-2"/>
      <point x="601" y="-2" type="curve" smooth="yes"/>
      <point x="623" y="-2" type="line" smooth="yes"/>
      <point x="653" y="-2"/>
      <point x="665" y="7"/>
      <point x="665" y="22" type="curve" smooth="yes"/>
      <point x="665" y="719" type="line" smooth="yes"/>
      <point x="665" y="733"/>
      <point x="653" y="742"/>
      <point x="623" y="742" type="curve" smooth="yes"/>
      <point x="615" y="742" type="line" smooth="yes"/>
      <point x="585" y="742"/>
      <point x="573" y="733"/>
      <point x="573" y="719" type="curve" smooth="yes"/>
      <point x="573" y="153" type="line"/>
      <point x="541" y="212" type="line"/>
      <point x="204" y="722" type="line" smooth="yes"/>
      <point x="194" y="738"/>
      <point x="183" y="742"/>
      <point x="160" y="742" type="curve" smooth="yes"/>
      <point x="137" y="742" type="line" smooth="yes"/>
      <point x="108" y="742"/>
      <point x="95" y="733"/>
      <point x="95" y="719" type="curve" smooth="yes"/>
      <point x="95" y="22" type="line" smooth="yes"/>
      <point x="95" y="7"/>
      <point x="108" y="-2"/>
      <point x="137" y="-2" type="curve" smooth="yes"/>
    </contour>
    <contour>
      <point x="381" y="740" type="move" name="top"/>
    </contour>
    <contour>
      <point x="381" y="0" type="move" name="bottom"/>
    </contour>
  </outline>
</glyph>
<glyph name="O" format="1">
  <advance width="1300"/>
  <unicode hex="004F"/>
  <outline>
    <contour>
      <point x="1007" y="-10"/>
      <point x="1198" y="210"/>
      <point x="1198" y="626" type="curve" smooth="yes"/>
      <point x="1198" y="1042"/>
      <point x="1007" y="1256"/>
      <point x="649" y="1256" type="curve" smooth="yes"/>
      <point x="293" y="1256"/>
      <point x="102" y="1042"/>
      <point x="102" y="626" type="curve" smooth="yes"/>
      <point x="102" y="210"/>
      <point x="293" y="-10"/>
      <point x="649" y="-10" type="curve" smooth="yes"/>
    </contour>
    <contour>
      <point x="399" y="125"/>
      <point x="263" y="299"/>
      <point x="263" y="626" type="curve" smooth="yes"/>
      <point x="263" y="953"/>
      <point x="399" y="1121"/>
      <point x="649" y="1121" type="curve" smooth="yes"/>
      <point x="899" y="1121"/>
      <point x="1037" y="953"/>
      <point x="1037" y="626" type="curve" smooth="yes"/>
      <point x="1037" y="299"/>
      <point x="899" y="125"/>
      <point x="649" y="125" type="curve" smooth="yes"/>
    </contour>
    <contour>
      <point x="788" y="0" type="move" name="ogonek"/>
    </contour>
    <contour>
      <point x="650" y="1244" type="move" name="top"/>
    </contour>
    <contour>
      <point x="857" y="1213" type="move" name="horn"/>
    </contour>
    <contour>
      <point x="653" y="0" type="move" name="bottom"/>
    </contour>
  </outline>
</glyph>
<glyph name="P" format="1">
  <advance width="1014"/>
  <unicode hex="0050"/>
  <outline>
    <contour>
      <point x="237" y="-3" type="line" smooth="yes"/>
      <point x="286" y="-3"/>
      <point x="307" y="10"/>
      <point x="307" y="36" type="curve" smooth="yes"/>
      <point x="307" y="530" type="line"/>
      <point x="583" y="530" type="line" smooth="yes"/>
      <point x="676" y="530"/>
      <point x="962" y="571"/>
      <point x="962" y="896" type="curve" smooth="yes"/>
      <point x="962" y="1196"/>
      <point x="718" y="1244"/>
      <point x="565" y="1244" type="curve" smooth="yes"/>
      <point x="205" y="1244" type="line" smooth="yes"/>
      <point x="167" y="1244"/>
      <point x="152" y="1229"/>
      <point x="152" y="1191" type="curve" smooth="yes"/>
      <point x="152" y="36" type="line" smooth="yes"/>
      <point x="152" y="10"/>
      <point x="172" y="-3"/>
      <point x="222" y="-3" type="curve" smooth="yes"/>
    </contour>
    <contour>
      <point x="307" y="1109" type="line"/>
      <point x="560" y="1109" type="line" smooth="yes"/>
      <point x="665" y="1109"/>
      <point x="800" y="1072"/>
      <point x="800" y="896" type="curve" smooth="yes"/>
      <point x="800" y="703"/>
      <point x="657" y="665"/>
      <point x="585" y="665" type="curve" smooth="yes"/>
      <point x="307" y="665" type="line"/>
    </contour>
  </outline>
</glyph>
<glyph name="Q" format="1">
  <advance width="1300"/>
  <unicode hex="0051"/>
  <outline>
    <contour>
      <point x="1182" y="-263"/>
      <point x="1216" y="-157"/>
      <point x="1216" y="-135" type="curve" smooth="yes"/>
      <point x="1216" y="-123"/>
      <point x="1208" y="-114"/>
      <point x="1191" y="-109" type="curve" smooth="yes"/>
      <point x="841" y="2" type="line"/>
      <point x="841" y="9" type="line"/>
      <point x="1072" y="71"/>
      <point x="1198" y="280"/>
      <point x="1198" y="617" type="curve" smooth="yes"/>
      <point x="1198" y="1033"/>
      <point x="1007" y="1256"/>
      <point x="649" y="1256" type="curve" smooth="yes"/>
      <point x="293" y="1256"/>
      <point x="102" y="1034"/>
      <point x="102" y="617" type="curve" smooth="yes"/>
      <point x="102" y="299"/>
      <point x="213" y="100"/>
      <point x="437" y="10" type="curve" smooth="yes"/>
      <point x="489" y="-10"/>
      <point x="1121" y="-263"/>
      <point x="1142" y="-263" type="curve" smooth="yes"/>
    </contour>
    <contour>
      <point x="404" y="119"/>
      <point x="263" y="293"/>
      <point x="263" y="617" type="curve" smooth="yes"/>
      <point x="263" y="942"/>
      <point x="404" y="1121"/>
      <point x="649" y="1121" type="curve" smooth="yes"/>
      <point x="896" y="1121"/>
      <point x="1037" y="940"/>
      <point x="1037" y="617" type="curve" smooth="yes"/>
      <point x="1037" y="295"/>
      <point x="896" y="119"/>
      <point x="649" y="119" type="curve" smooth="yes"/>
    </contour>
  </outline>
</glyph>
<glyph name="R" format="1">
  <advance width="1085"/>
  <unicode hex="0052"/>
  <outline>
    <contour>
      <point x="258" y="-3" type="line" smooth="yes"/>
      <point x="307" y="-3"/>
      <point x="329" y="10"/>
      <point x="329" y="36" type="curve" smooth="yes"/>
      <point x="329" y="548" type="line"/>
      <point x="489" y="548" type="line" smooth="yes"/>
      <point x="628" y="548"/>
      <point x="701" y="512"/>
      <point x="754" y="374" type="curve" smooth="yes"/>
      <point x="889" y="25" type="line" smooth="yes"/>
      <point x="896" y="7"/>
      <point x="925" y="-3"/>
      <point x="960" y="-3" type="curve" smooth="yes"/>
      <point x="978" y="-3" type="line" smooth="yes"/>
      <point x="1029" y="-3"/>
      <point x="1053" y="7"/>
      <point x="1053" y="25" type="curve" smooth="yes"/>
      <point x="1053" y="31"/>
      <point x="1051" y="39"/>
      <point x="1048" y="50" type="curve" smooth="yes"/>
      <point x="909" y="401" type="line" smooth="yes"/>
      <point x="862" y="517"/>
      <point x="824" y="597"/>
      <point x="749" y="623" type="curve"/>
      <point x="749" y="630" type="line"/>
      <point x="873" y="679"/>
      <point x="953" y="777"/>
      <point x="953" y="930" type="curve" smooth="yes"/>
      <point x="953" y="1154"/>
      <point x="802" y="1244"/>
      <point x="525" y="1244" type="curve" smooth="yes"/>
      <point x="226" y="1244" type="line" smooth="yes"/>
      <point x="189" y="1244"/>
      <point x="172" y="1229"/>
      <point x="172" y="1191" type="curve" smooth="yes"/>
      <point x="172" y="36" type="line" smooth="yes"/>
      <point x="172" y="10"/>
      <point x="194" y="-3"/>
      <point x="244" y="-3" type="curve" smooth="yes"/>
    </contour>
    <contour>
      <point x="329" y="1109" type="line"/>
      <point x="551" y="1109" type="line" smooth="yes"/>
      <point x="696" y="1109"/>
      <point x="792" y="1046"/>
      <point x="792" y="901" type="curve" smooth="yes"/>
      <point x="792" y="785"/>
      <point x="691" y="683"/>
      <point x="563" y="683" type="curve" smooth="yes"/>
      <point x="329" y="683" type="line"/>
    </contour>
    <contour>
      <point x="542" y="1244" type="move" name="top"/>
    </contour>
    <contour>
      <point x="542" y="0" type="move" name="bottom"/>
    </contour>
  </outline>
</glyph>
<glyph name="S" format="1">
  <advance width="889"/>
  <unicode hex="0053"/>
  <outline>
    <contour>
      <point x="674" y="-10"/>
      <point x="829" y="121"/>
      <point x="829" y="334" type="curve" smooth="yes"/>
      <point x="829" y="576"/>
      <point x="650" y="647"/>
      <point x="493" y="708" type="curve" smooth="yes"/>
      <point x="365" y="756"/>
      <point x="251" y="790"/>
      <point x="251" y="920" type="curve" smooth="yes"/>
      <point x="251" y="1049"/>
      <point x="347" y="1121"/>
      <point x="481" y="1121" type="curve" smooth="yes"/>
      <point x="621" y="1121"/>
      <point x="686" y="1053"/>
      <point x="713" y="1053" type="curve" smooth="yes"/>
      <point x="730" y="1053"/>
      <point x="770" y="1121"/>
      <point x="770" y="1147" type="curve" smooth="yes"/>
      <point x="770" y="1211"/>
      <point x="585" y="1256"/>
      <point x="484" y="1256" type="curve" smooth="yes"/>
      <point x="246" y="1256"/>
      <point x="89" y="1118"/>
      <point x="89" y="926" type="curve" smooth="yes"/>
      <point x="89" y="693"/>
      <point x="247" y="635"/>
      <point x="399" y="576" type="curve" smooth="yes"/>
      <point x="536" y="522"/>
      <point x="667" y="476"/>
      <point x="667" y="334" type="curve" smooth="yes"/>
      <point x="667" y="208"/>
      <point x="570" y="125"/>
      <point x="434" y="125" type="curve" smooth="yes"/>
      <point x="251" y="125"/>
      <point x="152" y="215"/>
      <point x="128" y="215" type="curve" smooth="yes"/>
      <point x="109" y="215"/>
      <point x="66" y="148"/>
      <point x="66" y="119" type="curve" smooth="yes"/>
      <point x="66" y="71"/>
      <point x="226" y="-10"/>
      <point x="434" y="-10" type="curve" smooth="yes"/>
    </contour>
    <contour>
      <point x="445" y="1244" type="move" name="top"/>
    </contour>
    <contour>
      <point x="445" y="0" type="move" name="bottom"/>
    </contour>
  </outline>
</glyph>
<glyph name="T" format="1">
  <advance width="581"/>
  <unicode hex="0054"/>
  <outline>
    <contour>
      <point x="296" y="-2" type="line" smooth="yes"/>
      <point x="325" y="-2"/>
      <point x="338" y="7"/>
      <point x="338" y="22" type="curve" smooth="yes"/>
      <point x="338" y="660" type="line"/>
      <point x="537" y="660" type="line" smooth="yes"/>
      <point x="552" y="660"/>
      <point x="559" y="669"/>
      <point x="559" y="691" type="curve" smooth="yes"/>
      <point x="559" y="708" type="line" smooth="yes"/>
      <point x="559" y="730"/>
      <point x="552" y="740"/>
      <point x="537" y="740" type="curve" smooth="yes"/>
      <point x="42" y="740" type="line" smooth="yes"/>
      <point x="27" y="740"/>
      <point x="21" y="730"/>
      <point x="21" y="708" type="curve" smooth="yes"/>
      <point x="21" y="691" type="line" smooth="yes"/>
      <point x="21" y="669"/>
      <point x="27" y="660"/>
      <point x="42" y="660" type="curve" smooth="yes"/>
      <point x="244" y="660" type="line"/>
      <point x="244" y="22" type="line" smooth="yes"/>
      <point x="244" y="7"/>
      <point x="257" y="-2"/>
      <point x="287" y="-2" type="curve" smooth="yes"/>
    </contour>
    <contour>
      <point x="290" y="370" type="move" name="center"/>
    </contour>
    <contour>
      <point x="290" y="0" type="move" name="bottom"/>
    </contour>
    <contour>
      <point x="290" y="740" type="move" name="top"/>
    </contour>
  </outline>
</glyph>
<glyph name="U" format="1">
  <advance width="753"/>
  <unicode hex="0055"/>
  <outline>
    <contour>
      <point x="562" y="-7"/>
      <point x="665" y="85"/>
      <point x="665" y="237" type="curve" smooth="yes"/>
      <point x="665" y="719" type="line" smooth="yes"/>
      <point x="665" y="733"/>
      <point x="653" y="742"/>
      <point x="623" y="742" type="curve" smooth="yes"/>
      <point x="614" y="742" type="line" smooth="yes"/>
      <point x="584" y="742"/>
      <point x="572" y="733"/>
      <point x="572" y="719" type="curve" smooth="yes"/>
      <point x="572" y="234" type="line" smooth="yes"/>
      <point x="572" y="141"/>
      <point x="490" y="74"/>
      <point x="377" y="74" type="curve" smooth="yes"/>
      <point x="264" y="74"/>
      <point x="180" y="140"/>
      <point x="180" y="234" type="curve" smooth="yes"/>
      <point x="180" y="719" type="line" smooth="yes"/>
      <point x="180" y="733"/>
      <point x="168" y="742"/>
      <point x="138" y="742" type="curve" smooth="yes"/>
      <point x="130" y="742" type="line" smooth="yes"/>
      <point x="102" y="742"/>
      <point x="87" y="733"/>
      <point x="87" y="719" type="curve" smooth="yes"/>
      <point x="87" y="237" type="line" smooth="yes"/>
      <point x="87" y="85"/>
      <point x="190" y="-7"/>
      <point x="377" y="-7" type="curve" smooth="yes"/>
    </contour>
    <contour>
      <point x="456" y="0" type="move" name="ogonek"/>
    </contour>
    <contour>
      <point x="377" y="740" type="move" name="top"/>
    </contour>
    <contour>
      <point x="614" y="742" type="move" name="horn"/>
    </contour>
    <contour>
      <point x="378" y="0" type="move" name="bottom"/>
    </contour>
  </outline>
</glyph>
<glyph name="V" format="1">
  <advance width="1097"/>
  <unicode hex="0056"/>
  <outline>
    <contour>
      <point x="576" y="-3" type="line" smooth="yes"/>
      <point x="612" y="-3"/>
      <point x="640" y="3"/>
      <point x="647" y="25" type="curve" smooth="yes"/>
      <point x="1054" y="1193" type="line" smooth="yes"/>
      <point x="1058" y="1203"/>
      <point x="1060" y="1211"/>
      <point x="1060" y="1218" type="curve" smooth="yes"/>
      <point x="1060" y="1237"/>
      <point x="1037" y="1249"/>
      <point x="983" y="1249" type="curve" smooth="yes"/>
      <point x="973" y="1249" type="line" smooth="yes"/>
      <point x="937" y="1249"/>
      <point x="909" y="1241"/>
      <point x="901" y="1220" type="curve" smooth="yes"/>
      <point x="573" y="273" type="line"/>
      <point x="553" y="178" type="line"/>
      <point x="548" y="178" type="line"/>
      <point x="530" y="271" type="line"/>
      <point x="201" y="1220" type="line" smooth="yes"/>
      <point x="194" y="1241"/>
      <point x="165" y="1249"/>
      <point x="130" y="1249" type="curve" smooth="yes"/>
      <point x="114" y="1249" type="line" smooth="yes"/>
      <point x="61" y="1249"/>
      <point x="37" y="1236"/>
      <point x="37" y="1218" type="curve" smooth="yes"/>
      <point x="37" y="1211"/>
      <point x="39" y="1203"/>
      <point x="43" y="1195" type="curve" smooth="yes"/>
      <point x="450" y="25" type="line" smooth="yes"/>
      <point x="457" y="3"/>
      <point x="486" y="-3"/>
      <point x="521" y="-3" type="curve" smooth="yes"/>
    </contour>
  </outline>
</glyph>
<glyph name="W" format="1">
  <advance width="932"/>
  <unicode hex="0057"/>
  <outline>
    <contour>
      <point x="285" y="-2" type="line" smooth="yes"/>
      <point x="306" y="-2"/>
      <point x="324" y="2"/>
      <point x="327" y="15" type="curve" smooth="yes"/>
      <point x="443" y="445" type="line"/>
      <point x="465" y="583" type="line"/>
      <point x="487" y="445" type="line"/>
      <point x="602" y="15" type="line" smooth="yes"/>
      <point x="605" y="2"/>
      <point x="623" y="-2"/>
      <point x="645" y="-2" type="curve" smooth="yes"/>
      <point x="688" y="-2" type="line" smooth="yes"/>
      <point x="708" y="-2"/>
      <point x="727" y="2"/>
      <point x="730" y="15" type="curve" smooth="yes"/>
      <point x="912" y="709" type="line" smooth="yes"/>
      <point x="913" y="713"/>
      <point x="915" y="722"/>
      <point x="915" y="723" type="curve" smooth="yes"/>
      <point x="915" y="735"/>
      <point x="902" y="742"/>
      <point x="870" y="742" type="curve" smooth="yes"/>
      <point x="864" y="742" type="line" smooth="yes"/>
      <point x="844" y="742"/>
      <point x="825" y="739"/>
      <point x="822" y="724" type="curve" smooth="yes"/>
      <point x="693" y="208" type="line"/>
      <point x="686" y="173"/>
      <point x="677" y="141"/>
      <point x="668" y="107" type="curve"/>
      <point x="668" y="107"/>
      <point x="659" y="167"/>
      <point x="650" y="204" type="curve" smooth="yes"/>
      <point x="520" y="723" type="line" smooth="yes"/>
      <point x="517" y="739"/>
      <point x="499" y="742"/>
      <point x="478" y="742" type="curve" smooth="yes"/>
      <point x="462" y="742" type="line" smooth="yes"/>
      <point x="441" y="742"/>
      <point x="424" y="739"/>
      <point x="421" y="723" type="curve" smooth="yes"/>
      <point x="293" y="209" type="line"/>
      <point x="284" y="174"/>
      <point x="275" y="141"/>
      <point x="267" y="107" type="curve"/>
      <point x="266" y="110"/>
      <point x="256" y="177"/>
      <point x="248" y="205" type="curve" smooth="yes"/>
      <point x="114" y="724" type="line" smooth="yes"/>
      <point x="110" y="739"/>
      <point x="93" y="742"/>
      <point x="71" y="742" type="curve" smooth="yes"/>
      <point x="61" y="742" type="line" smooth="yes"/>
      <point x="29" y="742"/>
      <point x="15" y="734"/>
      <point x="15" y="723" type="curve" smooth="yes"/>
      <point x="15" y="720"/>
      <point x="18" y="713"/>
      <point x="19" y="709" type="curve" smooth="yes"/>
      <point x="199" y="15" type="line" smooth="yes"/>
      <point x="203" y="2"/>
      <point x="221" y="-2"/>
      <point x="241" y="-2" type="curve" smooth="yes"/>
    </contour>
    <contour>
      <point x="466" y="740" type="move" name="top"/>
    </contour>
  </outline>
</glyph>
<glyph name="X" format="1">
  <advance width="645"/>
  <unicode hex="0058"/>
  <outline>
    <contour>
      <point x="78" y="-2" type="line" smooth="yes"/>
      <point x="97" y="-2"/>
      <point x="116" y="1"/>
      <point x="124" y="13" type="curve" smooth="yes"/>
      <point x="319" y="304" type="line"/>
      <point x="515" y="14" type="line" smooth="yes"/>
      <point x="522" y="1"/>
      <point x="537" y="-2"/>
      <point x="560" y="-2" type="curve" smooth="yes"/>
      <point x="576" y="-2" type="line" smooth="yes"/>
      <point x="613" y="-2"/>
      <point x="625" y="4"/>
      <point x="625" y="16" type="curve" smooth="yes"/>
      <point x="625" y="22"/>
      <point x="622" y="28"/>
      <point x="616" y="35" type="curve" smooth="yes"/>
      <point x="380" y="391" type="line"/>
      <point x="591" y="706" type="line" smooth="yes"/>
      <point x="595" y="712"/>
      <point x="598" y="719"/>
      <point x="598" y="723" type="curve" smooth="yes"/>
      <point x="598" y="738"/>
      <point x="584" y="742"/>
      <point x="551" y="742" type="curve" smooth="yes"/>
      <point x="543" y="742" type="line" smooth="yes"/>
      <point x="525" y="742"/>
      <point x="506" y="739"/>
      <point x="498" y="727" type="curve" smooth="yes"/>
      <point x="324" y="472" type="line"/>
      <point x="155" y="725" type="line" smooth="yes"/>
      <point x="147" y="739"/>
      <point x="131" y="742"/>
      <point x="109" y="742" type="curve" smooth="yes"/>
      <point x="95" y="742" type="line" smooth="yes"/>
      <point x="59" y="742"/>
      <point x="46" y="735"/>
      <point x="46" y="723" type="curve" smooth="yes"/>
      <point x="46" y="719"/>
      <point x="50" y="712"/>
      <point x="54" y="706" type="curve" smooth="yes"/>
      <point x="266" y="385" type="line"/>
      <point x="29" y="35" type="line" smooth="yes"/>
      <point x="23" y="28"/>
      <point x="21" y="22"/>
      <point x="21" y="16" type="curve" smooth="yes"/>
      <point x="21" y="3"/>
      <point x="35" y="-2"/>
      <point x="70" y="-2" type="curve" smooth="yes"/>
    </contour>
  </outline>
</glyph>
<glyph name="Y" format="1">
  <advance width="994"/>
  <unicode hex="0059"/>
  <outline>
    <contour>
      <point x="503" y="-3" type="line" smooth="yes"/>
      <point x="553" y="-3"/>
      <point x="575" y="10"/>
      <point x="575" y="36" type="curve" smooth="yes"/>
      <point x="575" y="633" type="line"/>
      <point x="947" y="1186" type="line" smooth="yes"/>
      <point x="955" y="1198"/>
      <point x="962" y="1209"/>
      <point x="962" y="1218" type="curve" smooth="yes"/>
      <point x="962" y="1237"/>
      <point x="942" y="1246"/>
      <point x="892" y="1249" type="curve"/>
      <point x="880" y="1249" type="line"/>
      <point x="845" y="1249"/>
      <point x="812" y="1242"/>
      <point x="800" y="1223" type="curve" smooth="yes"/>
      <point x="502" y="785" type="line"/>
      <point x="210" y="1222" type="line" smooth="yes"/>
      <point x="196" y="1242"/>
      <point x="171" y="1249"/>
      <point x="133" y="1249" type="curve" smooth="yes"/>
      <point x="114" y="1249" type="line" smooth="yes"/>
      <point x="53" y="1249"/>
      <point x="32" y="1237"/>
      <point x="32" y="1218" type="curve" smooth="yes"/>
      <point x="32" y="1209"/>
      <point x="37" y="1198"/>
      <point x="46" y="1186" type="curve" smooth="yes"/>
      <point x="418" y="638" type="line"/>
      <point x="418" y="36" type="line" smooth="yes"/>
      <point x="418" y="10"/>
      <point x="440" y="-3"/>
      <point x="489" y="-3" type="curve" smooth="yes"/>
    </contour>
    <contour>
      <point x="498" y="1244" type="move" name="top"/>
    </contour>
    <contour>
      <point x="496" y="0" type="move" name="bottom"/>
    </contour>
  </outline>
</glyph>
<glyph name="Z" format="1">
  <advance width="1095"/>
  <unicode hex="005A"/>
  <outline>
    <contour>
      <point x="976" y="0" type="line" smooth="yes"/>
      <point x="1001" y="0"/>
      <point x="1012" y="18"/>
      <point x="1012" y="61" type="curve" smooth="yes"/>
      <point x="1012" y="75" type="line" smooth="yes"/>
      <point x="1012" y="118"/>
      <point x="1001" y="135"/>
      <point x="976" y="135" type="curve" smooth="yes"/>
      <point x="281" y="135" type="line"/>
      <point x="1010" y="1129" type="line" smooth="yes"/>
      <point x="1014" y="1135"/>
      <point x="1015" y="1142"/>
      <point x="1015" y="1150" type="curve" smooth="yes"/>
      <point x="1015" y="1188"/>
      <point x="988" y="1244"/>
      <point x="976" y="1244" type="curve" smooth="yes"/>
      <point x="162" y="1244" type="line" smooth="yes"/>
      <point x="137" y="1244"/>
      <point x="126" y="1227"/>
      <point x="126" y="1184" type="curve" smooth="yes"/>
      <point x="126" y="1170" type="line" smooth="yes"/>
      <point x="126" y="1128"/>
      <point x="137" y="1109"/>
      <point x="162" y="1109" type="curve" smooth="yes"/>
      <point x="802" y="1109" type="line"/>
      <point x="73" y="116" type="line" smooth="yes"/>
      <point x="70" y="111"/>
      <point x="68" y="104"/>
      <point x="68" y="94" type="curve" smooth="yes"/>
      <point x="68" y="59"/>
      <point x="92" y="0"/>
      <point x="111" y="0" type="curve"/>
    </contour>
    <contour>
      <point x="548" y="1244" type="move" name="top"/>
    </contour>
    <contour>
      <point x="565" y="0" type="move" name="bottom"/>
    </contour>
  </outline>
</glyph>
<glyph name="bracketleft" format="1">
  <advance width="307"/>
  <unicode hex="005B"/>
  <outline>
    <contour>
      <point x="255" y="-147" type="line" smooth="yes"/>
      <point x="270" y="-147"/>
      <point x="276" y="-137"/>
      <point x="276" y="-116" type="curve" smooth="yes"/>
      <point x="276" y="-111" type="line" smooth="yes"/>
      <point x="276" y="-88"/>
      <point x="270" y="-81"/>
      <point x="255" y="-81" type="curve" smooth="yes"/>
      <point x="173" y="-81" type="line"/>
      <point x="173" y="745" type="line"/>
      <point x="255" y="745" type="line" smooth="yes"/>
      <point x="270" y="745"/>
      <point x="276" y="754"/>
      <point x="276" y="775" type="curve" smooth="yes"/>
      <point x="276" y="782" type="line" smooth="yes"/>
      <point x="276" y="803"/>
      <point x="270" y="812"/>
      <point x="255" y="812" type="curve" smooth="yes"/>
      <point x="127" y="812" type="line" smooth="yes"/>
      <point x="105" y="812"/>
      <point x="95" y="802"/>
      <point x="95" y="781" type="curve" smooth="yes"/>
      <point x="95" y="-115" type="line" smooth="yes"/>
      <point x="95" y="-136"/>
      <point x="105" y="-147"/>
      <point x="127" y="-147" type="curve" smooth="yes"/>
    </contour>
  </outline>
</glyph>
<glyph name="backslash" format="1">
  <advance width="381"/>
  <unicode hex="005C"/>
  <outline>
    <contour>
      <point x="349" y="-22" type="line" smooth="yes"/>
      <point x="368" y="-22"/>
      <point x="378" y="-13"/>
      <point x="378" y="0" type="curve" smooth="yes"/>
      <point x="378" y="6"/>
      <point x="377" y="10"/>
      <point x="374" y="16" type="curve" smooth="yes"/>
      <point x="72" y="718" type="line" smooth="yes"/>
      <point x="65" y="734"/>
      <point x="53" y="742"/>
      <point x="35" y="742" type="curve" smooth="yes"/>
      <point x="31" y="742" type="line" smooth="yes"/>
      <point x="13" y="742"/>
      <point x="6" y="733"/>
      <point x="6" y="721" type="curve" smooth="yes"/>
      <point x="6" y="716"/>
      <point x="7" y="710"/>
      <point x="8" y="706" type="curve" smooth="yes"/>
      <point x="311" y="3" type="line" smooth="yes"/>
      <point x="319" y="-14"/>
      <point x="328" y="-22"/>
      <point x="346" y="-22" type="curve" smooth="yes"/>
    </contour>
  </outline>
</glyph>
<glyph name="bracketright" format="1">
  <advance width="307"/>
  <unicode hex="005D"/>
  <outline>
    <contour>
      <point x="180" y="-147" type="line" smooth="yes"/>
      <point x="203" y="-147"/>
      <point x="212" y="-136"/>
      <point x="212" y="-115" type="curve" smooth="yes"/>
      <point x="212" y="781" type="line" smooth="yes"/>
      <point x="212" y="802"/>
      <point x="203" y="812"/>
      <point x="180" y="812" type="curve" smooth="yes"/>
      <point x="53" y="812" type="line" smooth="yes"/>
      <point x="39" y="812"/>
      <point x="31" y="803"/>
      <point x="31" y="782" type="curve" smooth="yes"/>
      <point x="31" y="775" type="line" smooth="yes"/>
      <point x="31" y="754"/>
      <point x="39" y="745"/>
      <point x="53" y="745" type="curve" smooth="yes"/>
      <point x="134" y="745" type="line"/>
      <point x="134" y="-81" type="line"/>
      <point x="53" y="-81" type="line" smooth="yes"/>
      <point x="39" y="-81"/>
      <point x="31" y="-88"/>
      <point x="31" y="-111" type="curve" smooth="yes"/>
      <point x="31" y="-116" type="line" smooth="yes"/>
      <point x="31" y="-137"/>
      <point x="39" y="-147"/>
      <point x="53" y="-147" type="curve" smooth="yes"/>
    </contour>
  </outline>
</glyph>
<glyph name="asciicircum" format="1">
  <advance width="475"/>
  <unicode hex="005E"/>
  <outline>
    <contour>
      <point x="88" y="338" type="line" smooth="yes"/>
      <point x="106" y="338"/>
      <point x="116" y="346"/>
      <point x="125" y="363" type="curve" smooth="yes"/>
      <point x="237" y="638" type="line"/>
      <point x="349" y="363" type="line" smooth="yes"/>
      <point x="356" y="346"/>
      <point x="368" y="338"/>
      <point x="386" y="338" type="curve" smooth="yes"/>
      <point x="391" y="338" type="line" smooth="yes"/>
      <point x="409" y="338"/>
      <point x="420" y="347"/>
      <point x="420" y="361" type="curve" smooth="yes"/>
      <point x="420" y="365"/>
      <point x="418" y="370"/>
      <point x="415" y="375" type="curve" smooth="yes"/>
      <point x="284" y="702" type="line" smooth="yes"/>
      <point x="276" y="719"/>
      <point x="266" y="722"/>
      <point x="248" y="722" type="curve" smooth="yes"/>
      <point x="226" y="722" type="line" smooth="yes"/>
      <point x="210" y="722"/>
      <point x="197" y="719"/>
      <point x="191" y="702" type="curve" smooth="yes"/>
      <point x="59" y="375" type="line" smooth="yes"/>
      <point x="56" y="370"/>
      <point x="55" y="365"/>
      <point x="55" y="361" type="curve" smooth="yes"/>
      <point x="55" y="347"/>
      <point x="66" y="338"/>
      <point x="85" y="338" type="curve"/>
    </contour>
  </outline>
</glyph>
<glyph name="underscore" format="1">
  <advance width="564"/>
  <unicode hex="005F"/>
  <outline>
    <contour>
      <point x="565" y="-147" type="line" smooth="yes"/>
      <point x="580" y="-147"/>
      <point x="585" y="-140"/>
      <point x="585" y="-125" type="curve" smooth="yes"/>
      <point x="585" y="-117" type="line" smooth="yes"/>
      <point x="585" y="-102"/>
      <point x="580" y="-95"/>
      <point x="565" y="-95" type="curve" smooth="yes"/>
      <point x="-2" y="-95" type="line" smooth="yes"/>
      <point x="-16" y="-95"/>
      <point x="-23" y="-102"/>
      <point x="-23" y="-117" type="curve" smooth="yes"/>
      <point x="-23" y="-125" type="line" smooth="yes"/>
      <point x="-23" y="-140"/>
      <point x="-16" y="-147"/>
      <point x="-2" y="-147" type="curve" smooth="yes"/>
    </contour>
  </outline>
</glyph>
<glyph name="grave" format="1">
  <advance width="570"/>
  <unicode hex="0060"/>
  <outline>
    <contour>
      <point x="418" y="1041"/>
      <point x="430" y="1046"/>
      <point x="430" y="1058" type="curve" smooth="yes"/>
      <point x="430" y="1075"/>
      <point x="409" y="1113"/>
      <point x="327" y="1256" type="curve" smooth="yes"/>
      <point x="307" y="1289"/>
      <point x="274" y="1302"/>
      <point x="217" y="1302" type="curve" smooth="yes"/>
      <point x="160" y="1302"/>
      <point x="131" y="1297"/>
      <point x="131" y="1278" type="curve" smooth="yes"/>
      <point x="131" y="1259"/>
      <point x="150" y="1242"/>
      <point x="299" y="1072" type="curve" smooth="yes"/>
      <point x="319" y="1051"/>
      <point x="353" y="1041"/>
      <point x="389" y="1041" type="curve" smooth="yes"/>
    </contour>
    <contour>
      <point x="341" y="930" type="move" name="_top"/>
    </contour>
  </outline>
</glyph>
<glyph name="a" format="1">
  <advance width="576"/>
  <unicode hex="0061"/>
  <outline>
    <contour>
      <point x="312" y="-7"/>
      <point x="370" y="29"/>
      <point x="411" y="73" type="curve"/>
      <point x="416" y="43"/>
      <point x="422" y="-1"/>
      <point x="447" y="-1" type="curve" smooth="yes"/>
      <point x="460" y="-1"/>
      <point x="505" y="3"/>
      <point x="505" y="24" type="curve" smooth="yes"/>
      <point x="505" y="29"/>
      <point x="491" y="71"/>
      <point x="491" y="157" type="curve" smooth="yes"/>
      <point x="491" y="393" type="line" smooth="yes"/>
      <point x="491" y="498"/>
      <point x="414" y="559"/>
      <point x="284" y="559" type="curve" smooth="yes"/>
      <point x="178" y="559"/>
      <point x="85" y="519"/>
      <point x="85" y="491" type="curve" smooth="yes"/>
      <point x="85" y="479"/>
      <point x="107" y="439"/>
      <point x="121" y="439" type="curve" smooth="yes"/>
      <point x="131" y="439"/>
      <point x="191" y="484"/>
      <point x="287" y="484" type="curve" smooth="yes"/>
      <point x="374" y="484"/>
      <point x="403" y="443"/>
      <point x="403" y="394" type="curve" smooth="yes"/>
      <point x="403" y="345" type="line"/>
      <point x="241" y="342"/>
      <point x="52" y="331"/>
      <point x="52" y="152" type="curve" smooth="yes"/>
      <point x="52" y="43"/>
      <point x="130" y="-7"/>
      <point x="233" y="-7" type="curve" smooth="yes"/>
    </contour>
    <contour>
      <point x="178" y="71"/>
      <point x="147" y="102"/>
      <point x="147" y="158" type="curve" smooth="yes"/>
      <point x="147" y="268"/>
      <point x="293" y="268"/>
      <point x="402" y="269" type="curve"/>
      <point x="402" y="145" type="line"/>
      <point x="360" y="106"/>
      <point x="314" y="71"/>
      <point x="236" y="71" type="curve" smooth="yes"/>
    </contour>
    <contour>
      <point x="502" y="19" type="move" name="ogonek"/>
    </contour>
    <contour>
      <point x="276" y="0" type="move" name="bottom"/>
    </contour>
    <contour>
      <point x="288" y="552" type="move" name="top"/>
    </contour>
  </outline>
</glyph>
<glyph name="b" format="1">
  <advance width="601"/>
  <unicode hex="0062"/>
  <outline>
    <contour>
      <point x="466" y="-7"/>
      <point x="544" y="113"/>
      <point x="544" y="277" type="curve" smooth="yes"/>
      <point x="544" y="459"/>
      <point x="456" y="559"/>
      <point x="330" y="559" type="curve" smooth="yes"/>
      <point x="264" y="559"/>
      <point x="220" y="537"/>
      <point x="179" y="505" type="curve"/>
      <point x="179" y="771" type="line" smooth="yes"/>
      <point x="179" y="786"/>
      <point x="166" y="795"/>
      <point x="136" y="795" type="curve" smooth="yes"/>
      <point x="131" y="795" type="line" smooth="yes"/>
      <point x="103" y="795"/>
      <point x="89" y="786"/>
      <point x="89" y="771" type="curve" smooth="yes"/>
      <point x="89" y="22" type="line" smooth="yes"/>
      <point x="89" y="7"/>
      <point x="100" y="-2"/>
      <point x="121" y="-2" type="curve" smooth="yes"/>
      <point x="126" y="-2" type="line" smooth="yes"/>
      <point x="141" y="-2"/>
      <point x="150" y="1"/>
      <point x="155" y="10" type="curve"/>
      <point x="163" y="32"/>
      <point x="168" y="52"/>
      <point x="171" y="73" type="curve"/>
      <point x="223" y="20"/>
      <point x="279" y="-7"/>
      <point x="339" y="-7" type="curve" smooth="yes"/>
    </contour>
    <contour>
      <point x="275" y="71"/>
      <point x="222" y="97"/>
      <point x="179" y="145" type="curve"/>
      <point x="179" y="433" type="line"/>
      <point x="216" y="465"/>
      <point x="264" y="481"/>
      <point x="309" y="481" type="curve" smooth="yes"/>
      <point x="404" y="478"/>
      <point x="452" y="411"/>
      <point x="452" y="285" type="curve" smooth="yes"/>
      <point x="452" y="148"/>
      <point x="405" y="71"/>
      <point x="321" y="71" type="curve" smooth="yes"/>
    </contour>
  </outline>
</glyph>
<glyph name="c" format="1">
  <advance width="512"/>
  <unicode hex="0063"/>
  <outline>
    <contour>
      <point x="406" y="-7"/>
      <point x="480" y="24"/>
      <point x="480" y="47" type="curve" smooth="yes"/>
      <point x="480" y="63"/>
      <point x="459" y="102"/>
      <point x="444" y="102" type="curve" smooth="yes"/>
      <point x="443" y="102"/>
      <point x="440" y="100"/>
      <point x="433" y="98" type="curve"/>
      <point x="413" y="87"/>
      <point x="372" y="71"/>
      <point x="314" y="71" type="curve" smooth="yes"/>
      <point x="193" y="71"/>
      <point x="149" y="133"/>
      <point x="149" y="282" type="curve" smooth="yes"/>
      <point x="149" y="427"/>
      <point x="210" y="484"/>
      <point x="303" y="484" type="curve" smooth="yes"/>
      <point x="360" y="484"/>
      <point x="399" y="466"/>
      <point x="418" y="458" type="curve" smooth="yes"/>
      <point x="425" y="456"/>
      <point x="427" y="454"/>
      <point x="430" y="454" type="curve" smooth="yes"/>
      <point x="443" y="454"/>
      <point x="464" y="494"/>
      <point x="464" y="510" type="curve" smooth="yes"/>
      <point x="464" y="537"/>
      <point x="386" y="559"/>
      <point x="305" y="559" type="curve" smooth="yes"/>
      <point x="183" y="559"/>
      <point x="54" y="500"/>
      <point x="54" y="279" type="curve" smooth="yes"/>
      <point x="54" y="75"/>
      <point x="144" y="-7"/>
      <point x="315" y="-7" type="curve" smooth="yes"/>
    </contour>
    <contour>
      <point x="293" y="552" type="move" name="top"/>
    </contour>
    <contour>
      <point x="303" y="0" type="move" name="bottom"/>
    </contour>
  </outline>
</glyph>
<glyph name="d" format="1">
  <advance width="1005"/>
  <unicode hex="0064"/>
  <outline>
    <contour>
      <point x="539" y="-10"/>
      <point x="633" y="32"/>
      <point x="720" y="123" type="curve"/>
      <point x="730" y="73"/>
      <point x="740" y="-2"/>
      <point x="783" y="-2" type="curve" smooth="yes"/>
      <point x="805" y="-2"/>
      <point x="879" y="5"/>
      <point x="879" y="39" type="curve" smooth="yes"/>
      <point x="879" y="48"/>
      <point x="857" y="118"/>
      <point x="857" y="263" type="curve" smooth="yes"/>
      <point x="857" y="1298" type="line" smooth="yes"/>
      <point x="857" y="1323"/>
      <point x="836" y="1337"/>
      <point x="786" y="1337" type="curve" smooth="yes"/>
      <point x="778" y="1337" type="line" smooth="yes"/>
      <point x="729" y="1337"/>
      <point x="708" y="1323"/>
      <point x="708" y="1298" type="curve" smooth="yes"/>
      <point x="708" y="850" type="line"/>
      <point x="638" y="903"/>
      <point x="563" y="940"/>
      <point x="454" y="940" type="curve" smooth="yes"/>
      <point x="242" y="940"/>
      <point x="92" y="773"/>
      <point x="92" y="464" type="curve" smooth="yes"/>
      <point x="92" y="189"/>
      <point x="225" y="-10"/>
      <point x="437" y="-10" type="curve" smooth="yes"/>
    </contour>
    <contour>
      <point x="327" y="119"/>
      <point x="249" y="249"/>
      <point x="249" y="478" type="curve" smooth="yes"/>
      <point x="249" y="690"/>
      <point x="329" y="805"/>
      <point x="489" y="809" type="curve" smooth="yes"/>
      <point x="570" y="809"/>
      <point x="643" y="783"/>
      <point x="708" y="729" type="curve"/>
      <point x="708" y="242" type="line"/>
      <point x="635" y="162"/>
      <point x="546" y="119"/>
      <point x="468" y="119" type="curve" smooth="yes"/>
    </contour>
    <contour>
      <point x="855" y="1244" type="move" name="caron"/>
    </contour>
    <contour>
      <point x="500" y="0" type="move" name="bottom"/>
    </contour>
    <contour>
      <point x="749" y="1121" type="move" name="center"/>
    </contour>
  </outline>
</glyph>
<glyph name="e" format="1">
  <advance width="959"/>
  <unicode hex="0065"/>
  <outline>
    <contour>
      <point x="713" y="-10"/>
      <point x="853" y="61"/>
      <point x="853" y="104" type="curve" smooth="yes"/>
      <point x="853" y="123"/>
      <point x="816" y="192"/>
      <point x="792" y="192" type="curve" smooth="yes"/>
      <point x="773" y="192"/>
      <point x="686" y="118"/>
      <point x="532" y="118" type="curve" smooth="yes"/>
      <point x="356" y="118"/>
      <point x="273" y="206"/>
      <point x="258" y="404" type="curve"/>
      <point x="819" y="404" type="line" smooth="yes"/>
      <point x="841" y="404"/>
      <point x="879" y="455"/>
      <point x="879" y="476" type="curve" smooth="yes"/>
      <point x="879" y="778"/>
      <point x="756" y="940"/>
      <point x="512" y="940" type="curve" smooth="yes"/>
      <point x="240" y="940"/>
      <point x="98" y="773"/>
      <point x="98" y="459" type="curve" smooth="yes"/>
      <point x="98" y="141"/>
      <point x="239" y="-10"/>
      <point x="534" y="-10" type="curve" smooth="yes"/>
    </contour>
    <contour>
      <point x="271" y="718"/>
      <point x="353" y="812"/>
      <point x="507" y="812" type="curve" smooth="yes"/>
      <point x="649" y="812"/>
      <point x="720" y="718"/>
      <point x="720" y="532" type="curve"/>
      <point x="258" y="532" type="line"/>
    </contour>
    <contour>
      <point x="770" y="18" type="move" name="ogonek"/>
    </contour>
    <contour>
      <point x="481" y="0" type="move" name="bottom"/>
    </contour>
    <contour>
      <point x="481" y="930" type="move" name="top"/>
    </contour>
  </outline>
</glyph>
<glyph name="f" format="1">
  <advance width="578"/>
  <unicode hex="0066"/>
  <outline>
    <contour>
      <point x="271" y="-3" type="line" smooth="yes"/>
      <point x="320" y="-3"/>
      <point x="341" y="10"/>
      <point x="341" y="36" type="curve" smooth="yes"/>
      <point x="341" y="802" type="line"/>
      <point x="496" y="802" type="line" smooth="yes"/>
      <point x="521" y="802"/>
      <point x="532" y="818"/>
      <point x="532" y="855" type="curve" smooth="yes"/>
      <point x="532" y="877" type="line" smooth="yes"/>
      <point x="532" y="914"/>
      <point x="521" y="930"/>
      <point x="496" y="930" type="curve" smooth="yes"/>
      <point x="341" y="930" type="line"/>
      <point x="341" y="1085" type="line" smooth="yes"/>
      <point x="341" y="1202"/>
      <point x="386" y="1216"/>
      <point x="437" y="1216" type="curve" smooth="yes"/>
      <point x="489" y="1216"/>
      <point x="498" y="1208"/>
      <point x="514" y="1208" type="curve" smooth="yes"/>
      <point x="539" y="1208"/>
      <point x="551" y="1276"/>
      <point x="551" y="1290" type="curve" smooth="yes"/>
      <point x="551" y="1339"/>
      <point x="469" y="1344"/>
      <point x="421" y="1344" type="curve" smooth="yes"/>
      <point x="333" y="1344"/>
      <point x="192" y="1310"/>
      <point x="192" y="1099" type="curve" smooth="yes"/>
      <point x="192" y="930" type="line"/>
      <point x="121" y="930" type="line" smooth="yes"/>
      <point x="97" y="930"/>
      <point x="85" y="914"/>
      <point x="85" y="877" type="curve" smooth="yes"/>
      <point x="85" y="855" type="line" smooth="yes"/>
      <point x="85" y="818"/>
      <point x="97" y="802"/>
      <point x="121" y="802" type="curve" smooth="yes"/>
      <point x="192" y="802" type="line"/>
      <point x="192" y="36" type="line" smooth="yes"/>
      <point x="192" y="10"/>
      <point x="213" y="-3"/>
      <point x="263" y="-3" type="curve" smooth="yes"/>
    </contour>
  </outline>
</glyph>
<glyph name="g" format="1">
  <advance width="577"/>
  <unicode hex="0067"/>
  <outline>
    <contour>
      <point x="426" y="-225"/>
      <point x="508" y="-166"/>
      <point x="508" y="-65" type="curve" smooth="yes"/>
      <point x="508" y="33"/>
      <point x="428" y="52"/>
      <point x="349" y="63" type="curve" smooth="yes"/>
      <point x="264" y="73"/>
      <point x="179" y="73"/>
      <point x="179" y="141" type="curve" smooth="yes"/>
      <point x="179" y="194"/>
      <point x="215" y="211"/>
      <point x="279" y="213" type="curve" smooth="yes"/>
      <point x="415" y="213"/>
      <point x="488" y="289"/>
      <point x="488" y="386" type="curve" smooth="yes"/>
      <point x="488" y="420"/>
      <point x="477" y="453"/>
      <point x="459" y="477" type="curve"/>
      <point x="460" y="479" type="line"/>
      <point x="481" y="477"/>
      <point x="501" y="476"/>
      <point x="536" y="476" type="curve" smooth="yes"/>
      <point x="550" y="476"/>
      <point x="555" y="487"/>
      <point x="555" y="508" type="curve" smooth="yes"/>
      <point x="555" y="520" type="line" smooth="yes"/>
      <point x="555" y="543"/>
      <point x="550" y="552"/>
      <point x="536" y="552" type="curve" smooth="yes"/>
      <point x="342" y="552" type="line"/>
      <point x="323" y="557"/>
      <point x="303" y="559"/>
      <point x="280" y="559" type="curve" smooth="yes"/>
      <point x="145" y="559"/>
      <point x="72" y="484"/>
      <point x="72" y="386" type="curve" smooth="yes"/>
      <point x="72" y="323"/>
      <point x="103" y="268"/>
      <point x="163" y="238" type="curve"/>
      <point x="125" y="211"/>
      <point x="104" y="176"/>
      <point x="104" y="128" type="curve" smooth="yes"/>
      <point x="104" y="87"/>
      <point x="120" y="62"/>
      <point x="147" y="41" type="curve"/>
      <point x="146" y="39" type="line"/>
      <point x="91" y="18"/>
      <point x="49" y="-29"/>
      <point x="49" y="-93" type="curve" smooth="yes"/>
      <point x="49" y="-189"/>
      <point x="141" y="-225"/>
      <point x="268" y="-225" type="curve" smooth="yes"/>
    </contour>
    <contour>
      <point x="211" y="-152"/>
      <point x="128" y="-141"/>
      <point x="128" y="-76" type="curve" smooth="yes"/>
      <point x="128" y="-32"/>
      <point x="160" y="-7"/>
      <point x="198" y="9" type="curve"/>
      <point x="277" y="-15"/>
      <point x="424" y="6"/>
      <point x="424" y="-74" type="curve" smooth="yes"/>
      <point x="424" y="-127"/>
      <point x="378" y="-152"/>
      <point x="279" y="-152" type="curve" smooth="yes"/>
    </contour>
    <contour>
      <point x="210" y="285"/>
      <point x="152" y="308"/>
      <point x="152" y="385" type="curve" smooth="yes"/>
      <point x="152" y="464"/>
      <point x="210" y="489"/>
      <point x="278" y="489" type="curve" smooth="yes"/>
      <point x="349" y="489"/>
      <point x="405" y="464"/>
      <point x="405" y="385" type="curve" smooth="yes"/>
      <point x="405" y="308"/>
      <point x="349" y="285"/>
      <point x="278" y="285" type="curve" smooth="yes"/>
    </contour>
    <contour>
      <point x="288" y="552" type="move" name="top"/>
    </contour>
  </outline>
</glyph>
<glyph name="h" format="1">
  <advance width="1005"/>
  <unicode hex="0068"/>
  <outline>
    <contour>
      <point x="242" y="-3" type="line" smooth="yes"/>
      <point x="292" y="-3"/>
      <point x="314" y="10"/>
      <point x="314" y="36" type="curve" smooth="yes"/>
      <point x="314" y="686" type="line"/>
      <point x="314" y="686"/>
      <point x="404" y="811"/>
      <point x="537" y="811" type="curve" smooth="yes"/>
      <point x="658" y="811"/>
      <point x="718" y="744"/>
      <point x="718" y="638" type="curve" smooth="yes"/>
      <point x="718" y="36" type="line" smooth="yes"/>
      <point x="718" y="10"/>
      <point x="740" y="-3"/>
      <point x="790" y="-3" type="curve" smooth="yes"/>
      <point x="797" y="-3" type="line" smooth="yes"/>
      <point x="846" y="-3"/>
      <point x="868" y="10"/>
      <point x="868" y="36" type="curve" smooth="yes"/>
      <point x="868" y="653" type="line" smooth="yes"/>
      <point x="868" y="894"/>
      <point x="699" y="940"/>
      <point x="585" y="940" type="curve" smooth="yes"/>
      <point x="471" y="940"/>
      <point x="375" y="880"/>
      <point x="314" y="818" type="curve"/>
      <point x="314" y="1298" type="line" smooth="yes"/>
      <point x="314" y="1323"/>
      <point x="292" y="1337"/>
      <point x="242" y="1337" type="curve" smooth="yes"/>
      <point x="235" y="1337" type="line" smooth="yes"/>
      <point x="186" y="1337"/>
      <point x="164" y="1323"/>
      <point x="164" y="1298" type="curve" smooth="yes"/>
      <point x="164" y="36" type="line" smooth="yes"/>
      <point x="164" y="10"/>
      <point x="186" y="-3"/>
      <point x="235" y="-3" type="curve" smooth="yes"/>
    </contour>
    <contour>
      <point x="306" y="1121" type="move" name="center"/>
    </contour>
    <contour>
      <point x="502" y="0" type="move" name="bottom"/>
    </contour>
    <contour>
      <point x="239" y="1298" type="move" name="top"/>
    </contour>
  </outline>
</glyph>
<glyph name="i" format="1">
  <advance width="280"/>
  <unicode hex="0069"/>
  <outline>
    <contour>
      <point x="142" y="-2" type="line" smooth="yes"/>
      <point x="172" y="-2"/>
      <point x="184" y="7"/>
      <point x="184" y="22" type="curve" smooth="yes"/>
      <point x="184" y="532" type="line" smooth="yes"/>
      <point x="184" y="547"/>
      <point x="172" y="554"/>
      <point x="142" y="554" type="curve" smooth="yes"/>
      <point x="138" y="554" type="line" smooth="yes"/>
      <point x="108" y="554"/>
      <point x="96" y="547"/>
      <point x="96" y="532" type="curve" smooth="yes"/>
      <point x="96" y="22" type="line" smooth="yes"/>
      <point x="96" y="7"/>
      <point x="108" y="-2"/>
      <point x="138" y="-2" type="curve" smooth="yes"/>
    </contour>
    <contour>
      <point x="148" y="686" type="line" smooth="yes"/>
      <point x="177" y="686"/>
      <point x="190" y="693"/>
      <point x="190" y="709" type="curve" smooth="yes"/>
      <point x="190" y="771" type="line" smooth="yes"/>
      <point x="190" y="786"/>
      <point x="177" y="795"/>
      <point x="148" y="795" type="curve" smooth="yes"/>
      <point x="134" y="795" type="line" smooth="yes"/>
      <point x="105" y="795"/>
      <point x="92" y="786"/>
      <point x="92" y="771" type="curve" smooth="yes"/>
      <point x="92" y="709" type="line" smooth="yes"/>
      <point x="92" y="693"/>
      <point x="105" y="686"/>
      <point x="134" y="686" type="curve"/>
    </contour>
    <contour>
      <point x="138" y="0" type="move" name="bottom"/>
    </contour>
  </outline>
</glyph>
<glyph name="j" format="1">
  <advance width="491"/>
  <unicode hex="006A"/>
  <outline>
    <contour>
      <point x="189" y="-377"/>
      <point x="329" y="-338"/>
      <point x="329" y="-131" type="curve" smooth="yes"/>
      <point x="329" y="894" type="line" smooth="yes"/>
      <point x="329" y="920"/>
      <point x="307" y="933"/>
      <point x="258" y="933" type="curve" smooth="yes"/>
      <point x="251" y="933" type="line" smooth="yes"/>
      <point x="201" y="933"/>
      <point x="179" y="920"/>
      <point x="179" y="894" type="curve" smooth="yes"/>
      <point x="179" y="-118" type="line" smooth="yes"/>
      <point x="179" y="-225"/>
      <point x="135" y="-249"/>
      <point x="84" y="-249" type="curve" smooth="yes"/>
      <point x="32" y="-249"/>
      <point x="24" y="-240"/>
      <point x="7" y="-240" type="curve" smooth="yes"/>
      <point x="-18" y="-240"/>
      <point x="-31" y="-309"/>
      <point x="-31" y="-324" type="curve" smooth="yes"/>
      <point x="-31" y="-372"/>
      <point x="51" y="-377"/>
      <point x="100" y="-377" type="curve" smooth="yes"/>
    </contour>
    <contour>
      <point x="265" y="1154" type="line" smooth="yes"/>
      <point x="315" y="1154"/>
      <point x="336" y="1169"/>
      <point x="336" y="1193" type="curve" smooth="yes"/>
      <point x="336" y="1298" type="line" smooth="yes"/>
      <point x="336" y="1323"/>
      <point x="315" y="1337"/>
      <point x="265" y="1337" type="curve" smooth="yes"/>
      <point x="244" y="1337" type="line" smooth="yes"/>
      <point x="194" y="1337"/>
      <point x="172" y="1323"/>
      <point x="172" y="1298" type="curve" smooth="yes"/>
      <point x="172" y="1193" type="line" smooth="yes"/>
      <point x="172" y="1169"/>
      <point x="194" y="1154"/>
      <point x="244" y="1154" type="curve"/>
    </contour>
  </outline>
</glyph>
<glyph name="k" format="1">
  <advance width="551"/>
  <unicode hex="006B"/>
  <outline>
    <contour>
      <point x="146" y="-2" type="line" smooth="yes"/>
      <point x="176" y="-2"/>
      <point x="188" y="7"/>
      <point x="188" y="22" type="curve" smooth="yes"/>
      <point x="188" y="262" type="line"/>
      <point x="192" y="262" type="line"/>
      <point x="403" y="12" type="line" smooth="yes"/>
      <point x="413" y="-1"/>
      <point x="437" y="-2"/>
      <point x="460" y="-2" type="curve" smooth="yes"/>
      <point x="465" y="-2" type="line" smooth="yes"/>
      <point x="497" y="-2"/>
      <point x="511" y="1"/>
      <point x="511" y="13" type="curve" smooth="yes"/>
      <point x="511" y="18"/>
      <point x="509" y="22"/>
      <point x="502" y="30" type="curve" smooth="yes"/>
      <point x="284" y="288" type="line"/>
      <point x="480" y="520" type="line" smooth="yes"/>
      <point x="488" y="529"/>
      <point x="490" y="537"/>
      <point x="490" y="541" type="curve" smooth="yes"/>
      <point x="490" y="549"/>
      <point x="479" y="554"/>
      <point x="454" y="554" type="curve" smooth="yes"/>
      <point x="449" y="554" type="line" smooth="yes"/>
      <point x="427" y="554"/>
      <point x="403" y="552"/>
      <point x="394" y="540" type="curve" smooth="yes"/>
      <point x="192" y="299" type="line"/>
      <point x="188" y="299" type="line"/>
      <point x="188" y="771" type="line" smooth="yes"/>
      <point x="188" y="786"/>
      <point x="176" y="795"/>
      <point x="146" y="795" type="curve" smooth="yes"/>
      <point x="141" y="795" type="line" smooth="yes"/>
      <point x="112" y="795"/>
      <point x="99" y="786"/>
      <point x="99" y="771" type="curve" smooth="yes"/>
      <point x="99" y="22" type="line" smooth="yes"/>
      <point x="99" y="7"/>
      <point x="112" y="-2"/>
      <point x="141" y="-2" type="curve" smooth="yes"/>
    </contour>
    <contour>
      <point x="276" y="0" type="move" name="bottom"/>
    </contour>
  </outline>
</glyph>
<glyph name="l" format="1">
  <advance width="139"/>
  <unicode hex="006C"/>
  <outline>
    <contour>
      <point x="58" y="336" type="move" name="Anchor-1"/>
    </contour>
    <contour>
      <point x="84" y="0" type="move" name="Anchor-0"/>
    </contour>
    <contour>
      <point x="98.5" y="-3" type="curve" smooth="yes"/>
      <point x="75" y="-3"/>
      <point x="38" y="7.5"/>
      <point x="38" y="61.5" type="curve" smooth="yes"/>
      <point x="38" y="340" type="line" smooth="yes"/>
      <point x="38" y="346.5"/>
      <point x="44" y="350.5"/>
      <point x="57" y="350.5" type="curve" smooth="yes"/>
      <point x="58.5" y="350.5" type="line" smooth="yes"/>
      <point x="72" y="350.5"/>
      <point x="77.5" y="346.5"/>
      <point x="77.5" y="340" type="curve" smooth="yes"/>
      <point x="77.5" y="65" type="line" smooth="yes"/>
      <point x="77.5" y="37.5"/>
      <point x="89" y="31"/>
      <point x="102.5" y="31" type="curve" smooth="yes"/>
      <point x="116" y="31"/>
      <point x="118.5" y="33"/>
      <point x="122.5" y="33" type="curve" smooth="yes"/>
      <point x="129" y="33"/>
      <point x="132.5" y="15"/>
      <point x="132.5" y="11" type="curve" smooth="yes"/>
      <point x="132.5" y="-1.5"/>
      <point x="111" y="-3"/>
    </contour>
  </outline>
</glyph>
<glyph name="m" format="1">
  <advance width="395"/>
  <unicode hex="006D"/>
  <outline>
    <contour>
      <point x="287" y="246.5" type="curve" smooth="yes"/>
      <point x="317" y="246.5"/>
      <point x="360" y="234.5"/>
      <point x="360" y="171" type="curve" smooth="yes"/>
      <point x="360" y="9.5" type="line" smooth="yes"/>
      <point x="360" y="3"/>
      <point x="354.5" y="-1"/>
      <point x="341.5" y="-1" type="curve" smooth="yes"/>
      <point x="339.5" y="-1" type="line" smooth="yes"/>
      <point x="326.5" y="-1"/>
      <point x="321" y="3"/>
      <point x="321" y="9.5" type="curve" smooth="yes"/>
      <point x="321" y="167.5" type="line" smooth="yes"/>
      <point x="321" y="195"/>
      <point x="306" y="212.5"/>
      <point x="276.5" y="212.5" type="curve" smooth="yes"/>
      <point x="248.5" y="212.5"/>
      <point x="226.5" y="189"/>
      <point x="219" y="180" type="curve" smooth="yes"/>
      <point x="219.5" y="176.5"/>
      <point x="219.5" y="173.5"/>
      <point x="219.5" y="170.5" type="curve" smooth="yes"/>
      <point x="219.5" y="9.5" type="line" smooth="yes"/>
      <point x="219.5" y="3"/>
      <point x="214" y="-1"/>
      <point x="201" y="-1" type="curve" smooth="yes"/>
      <point x="199" y="-1" type="line" smooth="yes"/>
      <point x="186" y="-1"/>
      <point x="180.5" y="3"/>
      <point x="180.5" y="9.5" type="curve" smooth="yes"/>
      <point x="180.5" y="167.5" type="line" smooth="yes"/>
      <point x="180.5" y="195"/>
      <point x="165.5" y="212.5"/>
      <point x="135.5" y="212.5" type="curve" smooth="yes"/>
      <point x="101.5" y="212.5"/>
      <point x="79" y="180.5"/>
      <point x="79" y="180.5" type="curve"/>
      <point x="79" y="9.5" type="line" smooth="yes"/>
      <point x="79" y="3"/>
      <point x="73" y="-1"/>
      <point x="60" y="-1" type="curve" smooth="yes"/>
      <point x="58" y="-1" type="line" smooth="yes"/>
      <point x="45" y="-1"/>
      <point x="39.5" y="3"/>
      <point x="39.5" y="9.5" type="curve" smooth="yes"/>
      <point x="39.5" y="173" type="line" smooth="yes"/>
      <point x="39.5" y="211"/>
      <point x="34" y="229.5"/>
      <point x="34" y="231.5" type="curve" smooth="yes"/>
      <point x="34" y="240.5"/>
      <point x="53" y="242.5"/>
      <point x="59" y="242.5" type="curve" smooth="yes"/>
      <point x="70.5" y="242.5"/>
      <point x="72.5" y="223.5"/>
      <point x="75.5" y="211.5" type="curve"/>
      <point x="91" y="229.5"/>
      <point x="116.5" y="246.5"/>
      <point x="146.5" y="246.5" type="curve" smooth="yes"/>
      <point x="169" y="246.5"/>
      <point x="200" y="239.5"/>
      <point x="213" y="208" type="curve"/>
      <point x="230.5" y="229"/>
      <point x="257.5" y="246.5"/>
    </contour>
  </outline>
</glyph>
<glyph name="n" format="1">
  <advance width="990"/>
  <unicode hex="006E"/>
  <outline>
    <contour>
      <point x="232" y="-3" type="line" smooth="yes"/>
      <point x="281" y="-3"/>
      <point x="302" y="10"/>
      <point x="302" y="36" type="curve" smooth="yes"/>
      <point x="302" y="686" type="line"/>
      <point x="361" y="763"/>
      <point x="447" y="811"/>
      <point x="527" y="811" type="curve" smooth="yes"/>
      <point x="642" y="811"/>
      <point x="708" y="747"/>
      <point x="708" y="638" type="curve" smooth="yes"/>
      <point x="708" y="36" type="line" smooth="yes"/>
      <point x="708" y="10"/>
      <point x="729" y="-3"/>
      <point x="778" y="-3" type="curve" smooth="yes"/>
      <point x="786" y="-3" type="line" smooth="yes"/>
      <point x="836" y="-3"/>
      <point x="857" y="10"/>
      <point x="857" y="36" type="curve" smooth="yes"/>
      <point x="857" y="653" type="line" smooth="yes"/>
      <point x="857" y="832"/>
      <point x="749" y="940"/>
      <point x="568" y="940" type="curve" smooth="yes"/>
      <point x="468" y="940"/>
      <point x="365" y="891"/>
      <point x="290" y="807" type="curve"/>
      <point x="280" y="853"/>
      <point x="271" y="925"/>
      <point x="228" y="925" type="curve" smooth="yes"/>
      <point x="205" y="925"/>
      <point x="131" y="918"/>
      <point x="131" y="884" type="curve" smooth="yes"/>
      <point x="131" y="875"/>
      <point x="153" y="805"/>
      <point x="153" y="660" type="curve" smooth="yes"/>
      <point x="153" y="36" type="line" smooth="yes"/>
      <point x="153" y="10"/>
      <point x="174" y="-3"/>
      <point x="225" y="-3" type="curve" smooth="yes"/>
    </contour>
    <contour>
      <point x="496" y="930" type="move" name="top"/>
    </contour>
    <contour>
      <point x="496" y="0" type="move" name="bottom"/>
    </contour>
  </outline>
</glyph>
<glyph name="o" format="1">
  <advance width="1012"/>
  <unicode hex="006F"/>
  <outline>
    <contour>
      <point x="775" y="-10"/>
      <point x="914" y="153"/>
      <point x="914" y="461" type="curve" smooth="yes"/>
      <point x="914" y="770"/>
      <point x="771" y="940"/>
      <point x="510" y="940" type="curve" smooth="yes"/>
      <point x="246" y="940"/>
      <point x="98" y="768"/>
      <point x="98" y="461" type="curve" smooth="yes"/>
      <point x="98" y="155"/>
      <point x="242" y="-10"/>
      <point x="510" y="-10" type="curve" smooth="yes"/>
    </contour>
    <contour>
      <point x="331" y="118"/>
      <point x="254" y="228"/>
      <point x="254" y="464" type="curve" smooth="yes"/>
      <point x="254" y="703"/>
      <point x="333" y="812"/>
      <point x="505" y="812" type="curve" smooth="yes"/>
      <point x="679" y="812"/>
      <point x="759" y="701"/>
      <point x="759" y="464" type="curve" smooth="yes"/>
      <point x="759" y="228"/>
      <point x="679" y="118"/>
      <point x="505" y="118" type="curve" smooth="yes"/>
    </contour>
    <contour>
      <point x="610" y="0" type="move" name="ogonek"/>
    </contour>
    <contour>
      <point x="507" y="930" type="move" name="top"/>
    </contour>
    <contour>
      <point x="669" y="898" type="move" name="horn"/>
    </contour>
    <contour>
      <point x="517" y="0" type="move" name="bottom"/>
    </contour>
  </outline>
</glyph>
<glyph name="p" format="1">
  <advance width="267"/>
  <unicode hex="0070"/>
  <outline>
    <contour>
      <point x="58.5" y="-97" type="line" smooth="yes"/>
      <point x="45.5" y="-97"/>
      <point x="40" y="-93"/>
      <point x="40" y="-86.5" type="curve" smooth="yes"/>
      <point x="40" y="173" type="line" smooth="yes"/>
      <point x="40" y="211"/>
      <point x="34.5" y="229.5"/>
      <point x="34.5" y="231.5" type="curve" smooth="yes"/>
      <point x="34.5" y="240.5"/>
      <point x="53.5" y="242.5"/>
      <point x="59.5" y="242.5" type="curve" smooth="yes"/>
      <point x="71" y="242.5"/>
      <point x="73" y="223.5"/>
      <point x="76" y="211.5" type="curve"/>
      <point x="99" y="235.5"/>
      <point x="123.5" y="246.5"/>
      <point x="150" y="246.5" type="curve" smooth="yes"/>
      <point x="208" y="246.5"/>
      <point x="240.5" y="193.5"/>
      <point x="240.5" y="121.5" type="curve" smooth="yes"/>
      <point x="240.5" y="41"/>
      <point x="201.5" y="-3"/>
      <point x="146" y="-3" type="curve" smooth="yes"/>
      <point x="117" y="-3"/>
      <point x="97.5" y="7"/>
      <point x="79" y="21" type="curve"/>
      <point x="79" y="-86.5" type="line" smooth="yes"/>
      <point x="79" y="-93"/>
      <point x="73.5" y="-97"/>
      <point x="60.5" y="-97" type="curve" smooth="yes"/>
    </contour>
    <contour>
      <point x="137" y="31.5" type="curve" smooth="yes"/>
      <point x="178.5" y="32.5"/>
      <point x="199.5" y="63"/>
      <point x="199.5" y="118.5" type="curve" smooth="yes"/>
      <point x="199.5" y="178.5"/>
      <point x="179" y="212.5"/>
      <point x="142" y="212.5" type="curve" smooth="yes"/>
      <point x="121.5" y="212.5"/>
      <point x="98.5" y="201.5"/>
      <point x="79" y="180.5" type="curve"/>
      <point x="79" y="52.5" type="line"/>
      <point x="96" y="38.5"/>
      <point x="115.5" y="31.5"/>
    </contour>
  </outline>
</glyph>
<glyph name="q" format="1">
  <advance width="598"/>
  <unicode hex="0071"/>
  <outline>
    <contour>
      <point x="467" y="-220" type="line" smooth="yes"/>
      <point x="496" y="-220"/>
      <point x="509" y="-211"/>
      <point x="509" y="-197" type="curve" smooth="yes"/>
      <point x="509" y="532" type="line" smooth="yes"/>
      <point x="509" y="547"/>
      <point x="499" y="554"/>
      <point x="477" y="554" type="curve" smooth="yes"/>
      <point x="474" y="554" type="line" smooth="yes"/>
      <point x="457" y="554"/>
      <point x="448" y="552"/>
      <point x="444" y="542" type="curve" smooth="yes"/>
      <point x="436" y="520"/>
      <point x="432" y="501"/>
      <point x="427" y="479" type="curve"/>
      <point x="377" y="534"/>
      <point x="319" y="559"/>
      <point x="260" y="559" type="curve" smooth="yes"/>
      <point x="133" y="559"/>
      <point x="54" y="442"/>
      <point x="54" y="275" type="curve" smooth="yes"/>
      <point x="54" y="93"/>
      <point x="144" y="-7"/>
      <point x="269" y="-7" type="curve" smooth="yes"/>
      <point x="335" y="-7"/>
      <point x="380" y="16"/>
      <point x="421" y="47" type="curve"/>
      <point x="421" y="-197" type="line" smooth="yes"/>
      <point x="421" y="-211"/>
      <point x="433" y="-220"/>
      <point x="463" y="-220" type="curve" smooth="yes"/>
    </contour>
    <contour>
      <point x="194" y="74"/>
      <point x="147" y="143"/>
      <point x="147" y="269" type="curve" smooth="yes"/>
      <point x="147" y="405"/>
      <point x="193" y="482"/>
      <point x="277" y="482" type="curve" smooth="yes"/>
      <point x="324" y="482"/>
      <point x="378" y="457"/>
      <point x="421" y="410" type="curve"/>
      <point x="421" y="119" type="line"/>
      <point x="382" y="87"/>
      <point x="338" y="72"/>
      <point x="289" y="72" type="curve" smooth="yes"/>
    </contour>
  </outline>
</glyph>
<glyph name="r" format="1">
  <advance width="386"/>
  <unicode hex="0072"/>
  <outline>
    <contour>
      <point x="142" y="-2" type="line" smooth="yes"/>
      <point x="171" y="-2"/>
      <point x="184" y="7"/>
      <point x="184" y="22" type="curve" smooth="yes"/>
      <point x="184" y="409" type="line"/>
      <point x="184" y="409"/>
      <point x="226" y="473"/>
      <point x="282" y="473" type="curve" smooth="yes"/>
      <point x="318" y="473"/>
      <point x="326" y="460"/>
      <point x="339" y="460" type="curve" smooth="yes"/>
      <point x="351" y="460"/>
      <point x="361" y="498"/>
      <point x="361" y="518" type="curve" smooth="yes"/>
      <point x="361" y="541"/>
      <point x="340" y="559"/>
      <point x="299" y="559" type="curve" smooth="yes"/>
      <point x="255" y="559"/>
      <point x="212" y="531"/>
      <point x="177" y="479" type="curve"/>
      <point x="170" y="507"/>
      <point x="165" y="550"/>
      <point x="140" y="550" type="curve" smooth="yes"/>
      <point x="126" y="550"/>
      <point x="83" y="545"/>
      <point x="83" y="526" type="curve" smooth="yes"/>
      <point x="83" y="520"/>
      <point x="95" y="478"/>
      <point x="95" y="392" type="curve" smooth="yes"/>
      <point x="95" y="22" type="line" smooth="yes"/>
      <point x="95" y="7"/>
      <point x="108" y="-2"/>
      <point x="137" y="-2" type="curve" smooth="yes"/>
    </contour>
    <contour>
      <point x="140" y="550" type="move" name="top"/>
    </contour>
    <contour>
      <point x="142" y="-2" type="move" name="bottom"/>
    </contour>
  </outline>
</glyph>
<glyph name="s" format="1">
  <advance width="734"/>
  <unicode hex="0073"/>
  <outline>
    <contour>
      <point x="521" y="-17"/>
      <point x="660" y="102"/>
      <point x="660" y="261" type="curve" smooth="yes"/>
      <point x="660" y="423"/>
      <point x="594" y="482"/>
      <point x="375" y="549" type="curve" smooth="yes"/>
      <point x="276" y="580"/>
      <point x="237" y="624"/>
      <point x="237" y="704" type="curve" smooth="yes"/>
      <point x="237" y="773"/>
      <point x="306" y="816"/>
      <point x="394" y="816" type="curve" smooth="yes"/>
      <point x="491" y="816"/>
      <point x="548" y="770"/>
      <point x="556" y="770" type="curve" smooth="yes"/>
      <point x="580" y="770"/>
      <point x="614" y="838"/>
      <point x="614" y="866" type="curve" smooth="yes"/>
      <point x="614" y="905"/>
      <point x="500" y="942"/>
      <point x="379" y="942" type="curve" smooth="yes"/>
      <point x="206" y="942"/>
      <point x="84" y="834"/>
      <point x="84" y="684" type="curve" smooth="yes"/>
      <point x="84" y="551"/>
      <point x="138" y="475"/>
      <point x="331" y="418" type="curve" smooth="yes"/>
      <point x="464" y="379"/>
      <point x="508" y="338"/>
      <point x="508" y="258" type="curve" smooth="yes"/>
      <point x="508" y="160"/>
      <point x="448" y="114"/>
      <point x="334" y="114" type="curve" smooth="yes"/>
      <point x="208" y="114"/>
      <point x="137" y="186"/>
      <point x="125" y="186" type="curve" smooth="yes"/>
      <point x="100" y="186"/>
      <point x="63" y="116"/>
      <point x="63" y="97" type="curve" smooth="yes"/>
      <point x="63" y="56"/>
      <point x="184" y="-17"/>
      <point x="345" y="-17" type="curve" smooth="yes"/>
    </contour>
    <contour>
      <point x="368" y="930" type="move" name="top"/>
    </contour>
    <contour>
      <point x="368" y="0" type="move" name="bottom"/>
    </contour>
  </outline>
</glyph>
<glyph name="t" format="1">
  <advance width="362"/>
  <unicode hex="0074"/>
  <outline>
    <contour>
      <point x="278" y="-7"/>
      <point x="327" y="-3"/>
      <point x="327" y="25" type="curve" smooth="yes"/>
      <point x="327" y="34"/>
      <point x="319" y="75"/>
      <point x="304" y="75" type="curve" smooth="yes"/>
      <point x="295" y="75"/>
      <point x="289" y="71"/>
      <point x="258" y="71" type="curve" smooth="yes"/>
      <point x="229" y="71"/>
      <point x="202" y="85"/>
      <point x="202" y="148" type="curve" smooth="yes"/>
      <point x="202" y="476" type="line"/>
      <point x="290" y="476" type="line" smooth="yes"/>
      <point x="305" y="476"/>
      <point x="312" y="487"/>
      <point x="312" y="508" type="curve" smooth="yes"/>
      <point x="312" y="520" type="line" smooth="yes"/>
      <point x="312" y="543"/>
      <point x="305" y="552"/>
      <point x="290" y="552" type="curve" smooth="yes"/>
      <point x="202" y="552" type="line"/>
      <point x="202" y="664" type="line" smooth="yes"/>
      <point x="202" y="678"/>
      <point x="193" y="687"/>
      <point x="170" y="687" type="curve" smooth="yes"/>
      <point x="160" y="687" type="line" smooth="yes"/>
      <point x="137" y="687"/>
      <point x="127" y="678"/>
      <point x="126" y="664" type="curve" smooth="yes"/>
      <point x="114" y="552" type="line"/>
      <point x="61" y="552" type="line" smooth="yes"/>
      <point x="45" y="552"/>
      <point x="39" y="543"/>
      <point x="39" y="520" type="curve" smooth="yes"/>
      <point x="39" y="508" type="line" smooth="yes"/>
      <point x="39" y="487"/>
      <point x="45" y="476"/>
      <point x="61" y="476" type="curve" smooth="yes"/>
      <point x="114" y="476" type="line"/>
      <point x="114" y="140" type="line" smooth="yes"/>
      <point x="114" y="18"/>
      <point x="197" y="-7"/>
      <point x="250" y="-7" type="curve" smooth="yes"/>
    </contour>
    <contour>
      <point x="197" y="795" type="move" name="caron"/>
    </contour>
    <contour>
      <point x="229" y="0" type="move" name="bottom"/>
    </contour>
    <contour>
      <point x="180" y="308" type="move" name="center"/>
    </contour>
  </outline>
</glyph>
<glyph name="u" format="1">
  <advance width="990"/>
  <unicode hex="0075"/>
  <outline>
    <contour>
      <point x="522" y="-10"/>
      <point x="626" y="39"/>
      <point x="701" y="123" type="curve"/>
      <point x="711" y="73"/>
      <point x="720" y="-2"/>
      <point x="763" y="-2" type="curve" smooth="yes"/>
      <point x="786" y="-2"/>
      <point x="858" y="5"/>
      <point x="858" y="39" type="curve" smooth="yes"/>
      <point x="858" y="48"/>
      <point x="838" y="118"/>
      <point x="838" y="263" type="curve" smooth="yes"/>
      <point x="838" y="894" type="line" smooth="yes"/>
      <point x="838" y="920"/>
      <point x="816" y="933"/>
      <point x="766" y="933" type="curve" smooth="yes"/>
      <point x="759" y="933" type="line" smooth="yes"/>
      <point x="710" y="933"/>
      <point x="688" y="920"/>
      <point x="688" y="894" type="curve" smooth="yes"/>
      <point x="688" y="244" type="line"/>
      <point x="630" y="167"/>
      <point x="544" y="119"/>
      <point x="464" y="119" type="curve" smooth="yes"/>
      <point x="348" y="119"/>
      <point x="283" y="184"/>
      <point x="283" y="292" type="curve" smooth="yes"/>
      <point x="283" y="894" type="line" smooth="yes"/>
      <point x="283" y="920"/>
      <point x="261" y="933"/>
      <point x="212" y="933" type="curve" smooth="yes"/>
      <point x="205" y="933" type="line" smooth="yes"/>
      <point x="155" y="933"/>
      <point x="133" y="920"/>
      <point x="133" y="894" type="curve" smooth="yes"/>
      <point x="133" y="278" type="line" smooth="yes"/>
      <point x="133" y="98"/>
      <point x="242" y="-10"/>
      <point x="423" y="-10" type="curve" smooth="yes"/>
    </contour>
    <contour>
      <point x="832" y="18" type="move" name="ogonek"/>
    </contour>
    <contour>
      <point x="496" y="930" type="move" name="top"/>
    </contour>
    <contour>
      <point x="759" y="933" type="move" name="horn"/>
    </contour>
    <contour>
      <point x="447" y="0" type="move" name="bottom"/>
    </contour>
  </outline>
</glyph>
<glyph name="v" format="1">
  <advance width="512"/>
  <unicode hex="0076"/>
  <outline>
    <contour>
      <point x="274" y="-2" type="line" smooth="yes"/>
      <point x="296" y="-2"/>
      <point x="313" y="2"/>
      <point x="317" y="15" type="curve" smooth="yes"/>
      <point x="487" y="521" type="line" smooth="yes"/>
      <point x="489" y="529"/>
      <point x="489" y="533"/>
      <point x="489" y="537" type="curve" smooth="yes"/>
      <point x="489" y="549"/>
      <point x="478" y="554"/>
      <point x="451" y="554" type="curve"/>
      <point x="447" y="554" type="line"/>
      <point x="426" y="554"/>
      <point x="409" y="551"/>
      <point x="404" y="538" type="curve" smooth="yes"/>
      <point x="296" y="199" type="line" smooth="yes"/>
      <point x="283" y="159"/>
      <point x="272" y="105"/>
      <point x="264" y="70" type="curve"/>
      <point x="260" y="70" type="line"/>
      <point x="251" y="105"/>
      <point x="236" y="159"/>
      <point x="223" y="201" type="curve" smooth="yes"/>
      <point x="115" y="538" type="line" smooth="yes"/>
      <point x="110" y="551"/>
      <point x="94" y="554"/>
      <point x="72" y="554" type="curve" smooth="yes"/>
      <point x="67" y="554" type="line" smooth="yes"/>
      <point x="36" y="554"/>
      <point x="22" y="548"/>
      <point x="22" y="537" type="curve" smooth="yes"/>
      <point x="22" y="533"/>
      <point x="23" y="527"/>
      <point x="24" y="522" type="curve" smooth="yes"/>
      <point x="194" y="15" type="line" smooth="yes"/>
      <point x="199" y="2"/>
      <point x="216" y="-2"/>
      <point x="237" y="-2" type="curve" smooth="yes"/>
    </contour>
  </outline>
</glyph>
<glyph name="w" format="1">
  <advance width="789"/>
  <unicode hex="0077"/>
  <outline>
    <contour>
      <point x="251" y="-2" type="line" smooth="yes"/>
      <point x="272" y="-2"/>
      <point x="289" y="2"/>
      <point x="293" y="15" type="curve" smooth="yes"/>
      <point x="380" y="350" type="line" smooth="yes"/>
      <point x="385" y="374"/>
      <point x="391" y="405"/>
      <point x="395" y="432" type="curve"/>
      <point x="399" y="405"/>
      <point x="404" y="374"/>
      <point x="411" y="349" type="curve" smooth="yes"/>
      <point x="495" y="15" type="line" smooth="yes"/>
      <point x="498" y="2"/>
      <point x="516" y="-2"/>
      <point x="536" y="-2" type="curve" smooth="yes"/>
      <point x="568" y="-2" type="line" smooth="yes"/>
      <point x="590" y="-2"/>
      <point x="607" y="2"/>
      <point x="611" y="15" type="curve" smooth="yes"/>
      <point x="752" y="521" type="line" smooth="yes"/>
      <point x="753" y="529"/>
      <point x="754" y="533"/>
      <point x="754" y="537" type="curve" smooth="yes"/>
      <point x="754" y="549"/>
      <point x="741" y="554"/>
      <point x="712" y="554" type="curve" smooth="yes"/>
      <point x="691" y="554"/>
      <point x="674" y="551"/>
      <point x="669" y="538" type="curve" smooth="yes"/>
      <point x="581" y="199" type="line" smooth="yes"/>
      <point x="572" y="166"/>
      <point x="564" y="118"/>
      <point x="557" y="81" type="curve"/>
      <point x="550" y="118"/>
      <point x="547" y="141"/>
      <point x="530" y="201" type="curve" smooth="yes"/>
      <point x="442" y="537" type="line" smooth="yes"/>
      <point x="437" y="551"/>
      <point x="422" y="554"/>
      <point x="400" y="554" type="curve" smooth="yes"/>
      <point x="393" y="554" type="line" smooth="yes"/>
      <point x="371" y="554"/>
      <point x="354" y="551"/>
      <point x="351" y="537" type="curve" smooth="yes"/>
      <point x="264" y="201" type="line" smooth="yes"/>
      <point x="255" y="167"/>
      <point x="243" y="117"/>
      <point x="237" y="79" type="curve"/>
      <point x="229" y="118"/>
      <point x="218" y="174"/>
      <point x="211" y="200" type="curve" smooth="yes"/>
      <point x="123" y="538" type="line" smooth="yes"/>
      <point x="119" y="551"/>
      <point x="101" y="554"/>
      <point x="81" y="554" type="curve" smooth="yes"/>
      <point x="45" y="554"/>
      <point x="31" y="548"/>
      <point x="31" y="537" type="curve" smooth="yes"/>
      <point x="31" y="533"/>
      <point x="35" y="521"/>
      <point x="38" y="516" type="curve" smooth="yes"/>
      <point x="177" y="15" type="line"/>
      <point x="179" y="2"/>
      <point x="197" y="-2"/>
      <point x="219" y="-2" type="curve" smooth="yes"/>
    </contour>
    <contour>
      <point x="396" y="552" type="move" name="top"/>
    </contour>
  </outline>
</glyph>
<glyph name="x" format="1">
  <advance width="512"/>
  <unicode hex="0078"/>
  <outline>
    <contour>
      <point x="70" y="-2" type="line"/>
      <point x="91" y="-2"/>
      <point x="108" y="1"/>
      <point x="116" y="13" type="curve" smooth="yes"/>
      <point x="231" y="181" type="line" smooth="yes"/>
      <point x="243" y="201"/>
      <point x="250" y="211"/>
      <point x="254" y="219" type="curve"/>
      <point x="257" y="211"/>
      <point x="263" y="201"/>
      <point x="275" y="181" type="curve" smooth="yes"/>
      <point x="388" y="14" type="line" smooth="yes"/>
      <point x="395" y="1"/>
      <point x="411" y="-2"/>
      <point x="433" y="-2" type="curve" smooth="yes"/>
      <point x="443" y="-2" type="line" smooth="yes"/>
      <point x="478" y="-2"/>
      <point x="490" y="4"/>
      <point x="490" y="16" type="curve" smooth="yes"/>
      <point x="490" y="22"/>
      <point x="488" y="28"/>
      <point x="483" y="35" type="curve" smooth="yes"/>
      <point x="311" y="286" type="line"/>
      <point x="472" y="518" type="line" smooth="yes"/>
      <point x="476" y="526"/>
      <point x="479" y="532"/>
      <point x="479" y="537" type="curve" smooth="yes"/>
      <point x="479" y="550"/>
      <point x="467" y="554"/>
      <point x="435" y="554" type="curve"/>
      <point x="431" y="554" type="line"/>
      <point x="410" y="554"/>
      <point x="391" y="552"/>
      <point x="383" y="540" type="curve" smooth="yes"/>
      <point x="282" y="388" type="line" smooth="yes"/>
      <point x="269" y="369"/>
      <point x="264" y="359"/>
      <point x="260" y="350" type="curve"/>
      <point x="256" y="359"/>
      <point x="251" y="369"/>
      <point x="237" y="388" type="curve" smooth="yes"/>
      <point x="137" y="539" type="line" smooth="yes"/>
      <point x="129" y="552"/>
      <point x="114" y="554"/>
      <point x="92" y="554" type="curve" smooth="yes"/>
      <point x="83" y="554" type="line" smooth="yes"/>
      <point x="46" y="554"/>
      <point x="34" y="549"/>
      <point x="34" y="537" type="curve" smooth="yes"/>
      <point x="34" y="532"/>
      <point x="38" y="526"/>
      <point x="42" y="518" type="curve" smooth="yes"/>
      <point x="200" y="284" type="line"/>
      <point x="29" y="35" type="line" smooth="yes"/>
      <point x="23" y="28"/>
      <point x="21" y="22"/>
      <point x="21" y="16" type="curve" smooth="yes"/>
      <point x="21" y="3"/>
      <point x="34" y="-2"/>
      <point x="66" y="-2" type="curve"/>
    </contour>
  </outline>
</glyph>
<glyph name="y" format="1">
  <advance width="508"/>
  <unicode hex="0079"/>
  <outline>
    <contour>
      <point x="163" y="-220" type="line" smooth="yes"/>
      <point x="189" y="-220"/>
      <point x="208" y="-213"/>
      <point x="213" y="-198" type="curve" smooth="yes"/>
      <point x="485" y="521" type="line" smooth="yes"/>
      <point x="487" y="529"/>
      <point x="488" y="533"/>
      <point x="488" y="537" type="curve" smooth="yes"/>
      <point x="488" y="549"/>
      <point x="475" y="554"/>
      <point x="445" y="554" type="curve"/>
      <point x="443" y="554" type="line"/>
      <point x="421" y="554"/>
      <point x="403" y="551"/>
      <point x="399" y="538" type="curve" smooth="yes"/>
      <point x="294" y="252" type="line" smooth="yes"/>
      <point x="281" y="219"/>
      <point x="269" y="178"/>
      <point x="258" y="146" type="curve"/>
      <point x="256" y="146" type="line"/>
      <point x="247" y="179"/>
      <point x="235" y="216"/>
      <point x="223" y="252" type="curve" smooth="yes"/>
      <point x="115" y="538" type="line" smooth="yes"/>
      <point x="109" y="551"/>
      <point x="94" y="554"/>
      <point x="72" y="554" type="curve" smooth="yes"/>
      <point x="64" y="554" type="line" smooth="yes"/>
      <point x="33" y="554"/>
      <point x="19" y="548"/>
      <point x="19" y="537" type="curve" smooth="yes"/>
      <point x="19" y="533"/>
      <point x="21" y="527"/>
      <point x="22" y="522" type="curve" smooth="yes"/>
      <point x="208" y="30" type="line"/>
      <point x="118" y="-185" type="line"/>
      <point x="113" y="-199"/>
      <point x="113" y="-201"/>
      <point x="113" y="-203" type="curve" smooth="yes"/>
      <point x="113" y="-213"/>
      <point x="125" y="-220"/>
      <point x="147" y="-220" type="curve" smooth="yes"/>
    </contour>
    <contour>
      <point x="255" y="552" type="move" name="top"/>
    </contour>
    <contour>
      <point x="365" y="0" type="move" name="bottom"/>
    </contour>
  </outline>
</glyph>
<glyph name="z" format="1">
  <advance width="517"/>
  <unicode hex="007A"/>
  <outline>
    <contour>
      <point x="454" y="0" type="line" smooth="yes"/>
      <point x="468" y="0"/>
      <point x="474" y="9"/>
      <point x="474" y="32" type="curve" smooth="yes"/>
      <point x="474" y="44" type="line" smooth="yes"/>
      <point x="474" y="67"/>
      <point x="468" y="76"/>
      <point x="454" y="76" type="curve" smooth="yes"/>
      <point x="163" y="76" type="line"/>
      <point x="472" y="488" type="line" smooth="yes"/>
      <point x="473" y="490"/>
      <point x="474" y="492"/>
      <point x="474" y="498" type="curve" smooth="yes"/>
      <point x="474" y="517"/>
      <point x="463" y="552"/>
      <point x="453" y="552" type="curve" smooth="yes"/>
      <point x="82" y="552" type="line" smooth="yes"/>
      <point x="67" y="552"/>
      <point x="61" y="543"/>
      <point x="61" y="520" type="curve" smooth="yes"/>
      <point x="61" y="508" type="line" smooth="yes"/>
      <point x="61" y="487"/>
      <point x="67" y="476"/>
      <point x="82" y="476" type="curve" smooth="yes"/>
      <point x="351" y="476" type="line"/>
      <point x="42" y="66" type="line" smooth="yes"/>
      <point x="40" y="63"/>
      <point x="39" y="58"/>
      <point x="39" y="55" type="curve" smooth="yes"/>
      <point x="39" y="33"/>
      <point x="55" y="0"/>
      <point x="63" y="0" type="curve"/>
    </contour>
    <contour>
      <point x="258" y="552" type="move" name="top"/>
    </contour>
    <contour>
      <point x="252" y="0" type="move" name="bottom"/>
    </contour>
  </outline>
</glyph>
<glyph name="braceleft" format="1">
  <advance width="488"/>
  <unicode hex="007B"/>
  <outline>
    <contour>
      <point x="399" y="-246" type="line" smooth="yes"/>
      <point x="423" y="-246"/>
      <point x="434" y="-232"/>
      <point x="434" y="-194" type="curve" smooth="yes"/>
      <point x="434" y="-187" type="line" smooth="yes"/>
      <point x="434" y="-150"/>
      <point x="423" y="-135"/>
      <point x="399" y="-135" type="curve" smooth="yes"/>
      <point x="360" y="-135" type="line" smooth="yes"/>
      <point x="309" y="-135"/>
      <point x="299" y="-94"/>
      <point x="299" y="-25" type="curve" smooth="yes"/>
      <point x="299" y="286" type="line" smooth="yes"/>
      <point x="299" y="466"/>
      <point x="187" y="546"/>
      <point x="160" y="558" type="curve"/>
      <point x="191" y="580"/>
      <point x="299" y="660"/>
      <point x="299" y="834" type="curve" smooth="yes"/>
      <point x="299" y="1147" type="line" smooth="yes"/>
      <point x="299" y="1216"/>
      <point x="309" y="1256"/>
      <point x="360" y="1256" type="curve" smooth="yes"/>
      <point x="399" y="1256" type="line" smooth="yes"/>
      <point x="423" y="1256"/>
      <point x="434" y="1270"/>
      <point x="434" y="1307" type="curve" smooth="yes"/>
      <point x="434" y="1314" type="line" smooth="yes"/>
      <point x="434" y="1351"/>
      <point x="423" y="1365"/>
      <point x="399" y="1365" type="curve" smooth="yes"/>
      <point x="309" y="1365" type="line" smooth="yes"/>
      <point x="263" y="1365"/>
      <point x="171" y="1328"/>
      <point x="171" y="1159" type="curve" smooth="yes"/>
      <point x="171" y="862" type="line" smooth="yes"/>
      <point x="171" y="744"/>
      <point x="159" y="669"/>
      <point x="80" y="633" type="curve" smooth="yes"/>
      <point x="51" y="621"/>
      <point x="36" y="604"/>
      <point x="36" y="573" type="curve" smooth="yes"/>
      <point x="36" y="548" type="line" smooth="yes"/>
      <point x="36" y="515"/>
      <point x="51" y="500"/>
      <point x="80" y="488" type="curve" smooth="yes"/>
      <point x="159" y="452"/>
      <point x="171" y="375"/>
      <point x="171" y="258" type="curve" smooth="yes"/>
      <point x="171" y="-39" type="line" smooth="yes"/>
      <point x="171" y="-212"/>
      <point x="263" y="-246"/>
      <point x="309" y="-246" type="curve" smooth="yes"/>
    </contour>
  </outline>
</glyph>
<glyph name="bar" format="1">
  <advance width="445"/>
  <unicode hex="007C"/>
  <outline>
    <contour>
      <point x="232" y="-249" type="line" smooth="yes"/>
      <point x="261" y="-249"/>
      <point x="274" y="-235"/>
      <point x="274" y="-210" type="curve" smooth="yes"/>
      <point x="274" y="1330" type="line" smooth="yes"/>
      <point x="274" y="1355"/>
      <point x="261" y="1369"/>
      <point x="232" y="1369" type="curve" smooth="yes"/>
      <point x="213" y="1369" type="line" smooth="yes"/>
      <point x="184" y="1369"/>
      <point x="171" y="1355"/>
      <point x="171" y="1330" type="curve" smooth="yes"/>
      <point x="171" y="-210" type="line" smooth="yes"/>
      <point x="171" y="-235"/>
      <point x="184" y="-249"/>
      <point x="213" y="-249" type="curve" smooth="yes"/>
    </contour>
  </outline>
</glyph>
<glyph name="braceright" format="1">
  <advance width="289"/>
  <unicode hex="007D"/>
  <outline>
    <contour>
      <point x="105" y="-147" type="line" smooth="yes"/>
      <point x="133" y="-147"/>
      <point x="188" y="-126"/>
      <point x="188" y="-24" type="curve" smooth="yes"/>
      <point x="188" y="153" type="line" smooth="yes"/>
      <point x="188" y="223"/>
      <point x="194" y="269"/>
      <point x="241" y="289" type="curve" smooth="yes"/>
      <point x="258" y="297"/>
      <point x="268" y="306"/>
      <point x="268" y="326" type="curve" smooth="yes"/>
      <point x="268" y="340" type="line" smooth="yes"/>
      <point x="268" y="360"/>
      <point x="258" y="369"/>
      <point x="241" y="377" type="curve" smooth="yes"/>
      <point x="194" y="397"/>
      <point x="188" y="443"/>
      <point x="188" y="512" type="curve" smooth="yes"/>
      <point x="188" y="689" type="line" smooth="yes"/>
      <point x="188" y="789"/>
      <point x="133" y="812"/>
      <point x="105" y="812" type="curve" smooth="yes"/>
      <point x="53" y="812" type="line" smooth="yes"/>
      <point x="39" y="812"/>
      <point x="31" y="803"/>
      <point x="31" y="782" type="curve" smooth="yes"/>
      <point x="31" y="776" type="line" smooth="yes"/>
      <point x="31" y="754"/>
      <point x="39" y="746"/>
      <point x="53" y="746" type="curve" smooth="yes"/>
      <point x="76" y="746" type="line" smooth="yes"/>
      <point x="105" y="746"/>
      <point x="112" y="722"/>
      <point x="112" y="681" type="curve" smooth="yes"/>
      <point x="112" y="496" type="line" smooth="yes"/>
      <point x="112" y="392"/>
      <point x="177" y="345"/>
      <point x="193" y="332" type="curve"/>
      <point x="179" y="325"/>
      <point x="112" y="277"/>
      <point x="112" y="170" type="curve" smooth="yes"/>
      <point x="112" y="-15" type="line" smooth="yes"/>
      <point x="112" y="-56"/>
      <point x="105" y="-81"/>
      <point x="76" y="-81" type="curve" smooth="yes"/>
      <point x="53" y="-81" type="line" smooth="yes"/>
      <point x="39" y="-81"/>
      <point x="31" y="-88"/>
      <point x="31" y="-111" type="curve" smooth="yes"/>
      <point x="31" y="-116" type="line" smooth="yes"/>
      <point x="31" y="-137"/>
      <point x="39" y="-147"/>
      <point x="53" y="-147" type="curve" smooth="yes"/>
    </contour>
  </outline>
</glyph>
<glyph name="exclamdown" format="1">
  <advance width="137"/>
  <unicode hex="00A1"/>
  <outline>
    <contour>
      <point x="63.5" y="193.5" type="line" smooth="yes"/>
      <point x="50.5" y="193.5"/>
      <point x="44.5" y="197"/>
      <point x="44.5" y="203.5" type="curve" smooth="yes"/>
      <point x="44.5" y="234.5" type="line" smooth="yes"/>
      <point x="44.5" y="241"/>
      <point x="50.5" y="244.5"/>
      <point x="63.5" y="244.5" type="curve" smooth="yes"/>
      <point x="71.5" y="244.5" type="line" smooth="yes"/>
      <point x="84.5" y="244.5"/>
      <point x="90" y="241"/>
      <point x="90" y="234.5" type="curve" smooth="yes"/>
      <point x="90" y="203.5" type="line" smooth="yes"/>
      <point x="90" y="197"/>
      <point x="84.5" y="193.5"/>
      <point x="71.5" y="193.5" type="curve" smooth="yes"/>
    </contour>
    <contour>
      <point x="56.5" y="-83.5" type="line" smooth="yes"/>
      <point x="43.5" y="-83.5"/>
      <point x="38" y="-79.5"/>
      <point x="38" y="-73" type="curve" smooth="yes"/>
      <point x="38" y="-61.5"/>
      <point x="46.5" y="68.5"/>
      <point x="51" y="139.5" type="curve" smooth="yes"/>
      <point x="51.5" y="146"/>
      <point x="55.5" y="149.5"/>
      <point x="65" y="149.5" type="curve" smooth="yes"/>
      <point x="70.5" y="149.5" type="line" smooth="yes"/>
      <point x="80" y="149.5"/>
      <point x="84.5" y="146"/>
      <point x="84.5" y="139.5" type="curve" smooth="yes"/>
      <point x="84.5" y="-73" type="line" smooth="yes"/>
      <point x="84.5" y="-79.5"/>
      <point x="79" y="-83.5"/>
      <point x="65.5" y="-83.5" type="curve" smooth="yes"/>
    </contour>
  </outline>
</glyph>
<glyph name="cent" format="1">
  <advance width="865"/>
  <unicode hex="00A2"/>
  <outline>
    <contour>
      <point x="539" y="-133"/>
      <point x="549" y="-125"/>
      <point x="549" y="-105" type="curve" smooth="yes"/>
      <point x="549" y="-10" type="line"/>
      <point x="690" y="-5"/>
      <point x="800" y="41"/>
      <point x="800" y="80" type="curve" smooth="yes"/>
      <point x="800" y="105"/>
      <point x="764" y="171"/>
      <point x="740" y="171" type="curve" smooth="yes"/>
      <point x="727" y="171"/>
      <point x="660" y="125"/>
      <point x="549" y="118" type="curve"/>
      <point x="549" y="811" type="line"/>
      <point x="647" y="802"/>
      <point x="704" y="763"/>
      <point x="715" y="763" type="curve" smooth="yes"/>
      <point x="738" y="763"/>
      <point x="771" y="831"/>
      <point x="771" y="858" type="curve" smooth="yes"/>
      <point x="771" y="896"/>
      <point x="669" y="933"/>
      <point x="549" y="939" type="curve"/>
      <point x="549" y="1008" type="line" smooth="yes"/>
      <point x="549" y="1027"/>
      <point x="539" y="1037"/>
      <point x="514" y="1037" type="curve" smooth="yes"/>
      <point x="489" y="1037"/>
      <point x="478" y="1027"/>
      <point x="478" y="1008" type="curve" smooth="yes"/>
      <point x="478" y="939" type="line"/>
      <point x="286" y="928"/>
      <point x="98" y="821"/>
      <point x="98" y="469" type="curve" smooth="yes"/>
      <point x="98" y="146"/>
      <point x="226" y="5"/>
      <point x="478" y="-9" type="curve"/>
      <point x="478" y="-105" type="line" smooth="yes"/>
      <point x="478" y="-125"/>
      <point x="489" y="-133"/>
      <point x="514" y="-133" type="curve" smooth="yes"/>
    </contour>
    <contour>
      <point x="317" y="137"/>
      <point x="256" y="244"/>
      <point x="256" y="473" type="curve" smooth="yes"/>
      <point x="256" y="704"/>
      <point x="343" y="798"/>
      <point x="478" y="811" type="curve"/>
      <point x="478" y="119" type="line"/>
    </contour>
  </outline>
</glyph>
<glyph name="sterling" format="1">
  <advance width="873"/>
  <unicode hex="00A3"/>
  <outline>
    <contour>
      <point x="758" y="0" type="line" smooth="yes"/>
      <point x="783" y="0"/>
      <point x="793" y="17"/>
      <point x="793" y="53" type="curve" smooth="yes"/>
      <point x="793" y="75" type="line" smooth="yes"/>
      <point x="793" y="112"/>
      <point x="783" y="128"/>
      <point x="758" y="128" type="curve" smooth="yes"/>
      <point x="259" y="128" type="line"/>
      <point x="297" y="152"/>
      <point x="361" y="198"/>
      <point x="361" y="443" type="curve" smooth="yes"/>
      <point x="361" y="603" type="line"/>
      <point x="623" y="603" type="line" smooth="yes"/>
      <point x="647" y="603"/>
      <point x="658" y="619"/>
      <point x="658" y="657" type="curve" smooth="yes"/>
      <point x="658" y="677" type="line" smooth="yes"/>
      <point x="658" y="715"/>
      <point x="647" y="730"/>
      <point x="623" y="730" type="curve" smooth="yes"/>
      <point x="361" y="730" type="line"/>
      <point x="361" y="894" type="line" smooth="yes"/>
      <point x="361" y="1056"/>
      <point x="434" y="1128"/>
      <point x="604" y="1128" type="curve" smooth="yes"/>
      <point x="662" y="1128"/>
      <point x="703" y="1111"/>
      <point x="717" y="1111" type="curve" smooth="yes"/>
      <point x="745" y="1111"/>
      <point x="756" y="1191"/>
      <point x="756" y="1198" type="curve" smooth="yes"/>
      <point x="756" y="1246"/>
      <point x="643" y="1256"/>
      <point x="576" y="1256" type="curve" smooth="yes"/>
      <point x="312" y="1256"/>
      <point x="212" y="1109"/>
      <point x="212" y="886" type="curve" smooth="yes"/>
      <point x="212" y="730" type="line"/>
      <point x="114" y="730" type="line" smooth="yes"/>
      <point x="89" y="730"/>
      <point x="78" y="715"/>
      <point x="78" y="677" type="curve" smooth="yes"/>
      <point x="78" y="657" type="line" smooth="yes"/>
      <point x="78" y="619"/>
      <point x="89" y="603"/>
      <point x="114" y="603" type="curve" smooth="yes"/>
      <point x="212" y="603" type="line"/>
      <point x="212" y="283" type="line" smooth="yes"/>
      <point x="212" y="130"/>
      <point x="59" y="159"/>
      <point x="59" y="82" type="curve" smooth="yes"/>
      <point x="59" y="53" type="line" smooth="yes"/>
      <point x="59" y="17"/>
      <point x="70" y="0"/>
      <point x="94" y="0" type="curve" smooth="yes"/>
    </contour>
  </outline>
</glyph>
<glyph name="currency" format="1">
  <advance width="564"/>
  <unicode hex="00A4"/>
  <outline>
    <contour>
      <point x="127" y="151"/>
      <point x="134" y="155"/>
      <point x="142" y="162" type="curve" smooth="yes"/>
      <point x="168" y="189" type="line"/>
      <point x="199" y="166"/>
      <point x="237" y="153"/>
      <point x="278" y="153" type="curve" smooth="yes"/>
      <point x="319" y="153"/>
      <point x="357" y="166"/>
      <point x="388" y="189" type="curve"/>
      <point x="413" y="163" type="line" smooth="yes"/>
      <point x="421" y="155"/>
      <point x="427" y="151"/>
      <point x="435" y="151" type="curve" smooth="yes"/>
      <point x="444" y="151"/>
      <point x="449" y="156"/>
      <point x="455" y="161" type="curve" smooth="yes"/>
      <point x="456" y="162" type="line" smooth="yes"/>
      <point x="460" y="167"/>
      <point x="466" y="177"/>
      <point x="466" y="181" type="curve" smooth="yes"/>
      <point x="466" y="190"/>
      <point x="462" y="197"/>
      <point x="455" y="204" type="curve" smooth="yes"/>
      <point x="428" y="230" type="line"/>
      <point x="453" y="260"/>
      <point x="466" y="298"/>
      <point x="466" y="340" type="curve" smooth="yes"/>
      <point x="466" y="381"/>
      <point x="453" y="420"/>
      <point x="428" y="450" type="curve"/>
      <point x="455" y="475" type="line" smooth="yes"/>
      <point x="463" y="485"/>
      <point x="466" y="491"/>
      <point x="466" y="499" type="curve" smooth="yes"/>
      <point x="466" y="505"/>
      <point x="463" y="510"/>
      <point x="457" y="517" type="curve" smooth="yes"/>
      <point x="455" y="519" type="line" smooth="yes"/>
      <point x="448" y="526"/>
      <point x="441" y="529"/>
      <point x="434" y="529" type="curve" smooth="yes"/>
      <point x="427" y="529"/>
      <point x="420" y="524"/>
      <point x="413" y="518" type="curve" smooth="yes"/>
      <point x="388" y="492" type="line"/>
      <point x="358" y="515"/>
      <point x="319" y="529"/>
      <point x="278" y="529" type="curve" smooth="yes"/>
      <point x="237" y="529"/>
      <point x="199" y="515"/>
      <point x="167" y="491" type="curve"/>
      <point x="142" y="517" type="line" smooth="yes"/>
      <point x="134" y="526"/>
      <point x="126" y="530"/>
      <point x="118" y="530" type="curve" smooth="yes"/>
      <point x="113" y="530"/>
      <point x="106" y="527"/>
      <point x="102" y="520" type="curve" smooth="yes"/>
      <point x="98" y="516" type="line" smooth="yes"/>
      <point x="93" y="510"/>
      <point x="91" y="504"/>
      <point x="91" y="499" type="curve" smooth="yes"/>
      <point x="91" y="490"/>
      <point x="94" y="484"/>
      <point x="102" y="475" type="curve" smooth="yes"/>
      <point x="127" y="452" type="line"/>
      <point x="104" y="420"/>
      <point x="91" y="381"/>
      <point x="91" y="340" type="curve" smooth="yes"/>
      <point x="91" y="298"/>
      <point x="104" y="260"/>
      <point x="127" y="230" type="curve"/>
      <point x="102" y="204" type="line" smooth="yes"/>
      <point x="94" y="197"/>
      <point x="89" y="189"/>
      <point x="89" y="180" type="curve" smooth="yes"/>
      <point x="89" y="173"/>
      <point x="93" y="168"/>
      <point x="99" y="163" type="curve" smooth="yes"/>
      <point x="102" y="161" type="line" smooth="yes"/>
      <point x="107" y="155"/>
      <point x="115" y="151"/>
      <point x="119" y="151" type="curve" smooth="yes"/>
    </contour>
    <contour>
      <point x="210" y="218"/>
      <point x="155" y="273"/>
      <point x="155" y="340" type="curve" smooth="yes"/>
      <point x="155" y="409"/>
      <point x="210" y="464"/>
      <point x="277" y="464" type="curve" smooth="yes"/>
      <point x="346" y="464"/>
      <point x="401" y="409"/>
      <point x="401" y="340" type="curve" smooth="yes"/>
      <point x="401" y="273"/>
      <point x="346" y="218"/>
      <point x="277" y="218" type="curve" smooth="yes"/>
    </contour>
  </outline>
</glyph>
<glyph name="yen" format="1">
  <advance width="994"/>
  <unicode hex="00A5"/>
  <outline>
    <contour>
      <point x="875" y="631" type="line"/>
      <point x="899" y="631"/>
      <point x="911" y="647"/>
      <point x="911" y="684" type="curve" smooth="yes"/>
      <point x="911" y="699" type="line" smooth="yes"/>
      <point x="911" y="737"/>
      <point x="899" y="752"/>
      <point x="875" y="752" type="curve"/>
      <point x="121" y="752" type="line"/>
      <point x="97" y="752"/>
      <point x="85" y="737"/>
      <point x="85" y="699" type="curve" smooth="yes"/>
      <point x="85" y="684" type="line" smooth="yes"/>
      <point x="85" y="647"/>
      <point x="97" y="631"/>
      <point x="121" y="631" type="curve"/>
    </contour>
    <contour>
      <point x="875" y="340" type="line"/>
      <point x="899" y="340"/>
      <point x="911" y="356"/>
      <point x="911" y="393" type="curve" smooth="yes"/>
      <point x="911" y="408" type="line" smooth="yes"/>
      <point x="911" y="445"/>
      <point x="899" y="461"/>
      <point x="875" y="461" type="curve"/>
      <point x="121" y="461" type="line"/>
      <point x="97" y="461"/>
      <point x="85" y="445"/>
      <point x="85" y="408" type="curve" smooth="yes"/>
      <point x="85" y="393" type="line" smooth="yes"/>
      <point x="85" y="356"/>
      <point x="97" y="340"/>
      <point x="121" y="340" type="curve"/>
    </contour>
    <component base="Y"/>
  </outline>
</glyph>
<glyph name="brokenbar" format="1">
  <advance width="445"/>
  <unicode hex="00A6"/>
  <outline>
    <contour>
      <point x="232" y="717" type="line" smooth="yes"/>
      <point x="261" y="717"/>
      <point x="274" y="730"/>
      <point x="274" y="756" type="curve" smooth="yes"/>
      <point x="274" y="1330" type="line" smooth="yes"/>
      <point x="274" y="1355"/>
      <point x="261" y="1369"/>
      <point x="232" y="1369" type="curve" smooth="yes"/>
      <point x="213" y="1369" type="line" smooth="yes"/>
      <point x="184" y="1369"/>
      <point x="171" y="1355"/>
      <point x="171" y="1330" type="curve" smooth="yes"/>
      <point x="171" y="756" type="line" smooth="yes"/>
      <point x="171" y="730"/>
      <point x="184" y="717"/>
      <point x="213" y="717" type="curve"/>
    </contour>
    <contour>
      <point x="232" y="-249" type="line" smooth="yes"/>
      <point x="261" y="-249"/>
      <point x="274" y="-235"/>
      <point x="274" y="-210" type="curve" smooth="yes"/>
      <point x="274" y="363" type="line" smooth="yes"/>
      <point x="274" y="387"/>
      <point x="261" y="402"/>
      <point x="232" y="402" type="curve" smooth="yes"/>
      <point x="213" y="402" type="line" smooth="yes"/>
      <point x="184" y="402"/>
      <point x="171" y="387"/>
      <point x="171" y="363" type="curve" smooth="yes"/>
      <point x="171" y="-210" type="line" smooth="yes"/>
      <point x="171" y="-235"/>
      <point x="184" y="-249"/>
      <point x="213" y="-249" type="curve" smooth="yes"/>
    </contour>
  </outline>
</glyph>
<glyph name="section" format="1">
  <advance width="763"/>
  <unicode hex="00A7"/>
  <outline>
    <contour>
      <point x="503" y="-10"/>
      <point x="647" y="61"/>
      <point x="647" y="246" type="curve" smooth="yes"/>
      <point x="647" y="319"/>
      <point x="619" y="368"/>
      <point x="576" y="404" type="curve"/>
      <point x="635" y="450"/>
      <point x="674" y="517"/>
      <point x="674" y="610" type="curve" smooth="yes"/>
      <point x="674" y="962"/>
      <point x="269" y="836"/>
      <point x="269" y="1020" type="curve" smooth="yes"/>
      <point x="269" y="1081"/>
      <point x="314" y="1128"/>
      <point x="414" y="1128" type="curve" smooth="yes"/>
      <point x="510" y="1128"/>
      <point x="568" y="1085"/>
      <point x="576" y="1085" type="curve" smooth="yes"/>
      <point x="599" y="1085"/>
      <point x="633" y="1152"/>
      <point x="633" y="1181" type="curve" smooth="yes"/>
      <point x="633" y="1220"/>
      <point x="521" y="1256"/>
      <point x="401" y="1256" type="curve" smooth="yes"/>
      <point x="259" y="1256"/>
      <point x="116" y="1184"/>
      <point x="116" y="1003" type="curve" smooth="yes"/>
      <point x="116" y="928"/>
      <point x="145" y="879"/>
      <point x="184" y="843" type="curve"/>
      <point x="130" y="797"/>
      <point x="89" y="727"/>
      <point x="89" y="638" type="curve" smooth="yes"/>
      <point x="89" y="285"/>
      <point x="496" y="409"/>
      <point x="496" y="225" type="curve" smooth="yes"/>
      <point x="496" y="165"/>
      <point x="450" y="118"/>
      <point x="348" y="118" type="curve" smooth="yes"/>
      <point x="253" y="118"/>
      <point x="198" y="160"/>
      <point x="189" y="160" type="curve" smooth="yes"/>
      <point x="165" y="160"/>
      <point x="131" y="92"/>
      <point x="131" y="64" type="curve" smooth="yes"/>
      <point x="131" y="25"/>
      <point x="244" y="-10"/>
      <point x="365" y="-10" type="curve" smooth="yes"/>
    </contour>
    <contour>
      <point x="327" y="502"/>
      <point x="240" y="530"/>
      <point x="240" y="638" type="curve" smooth="yes"/>
      <point x="240" y="722"/>
      <point x="290" y="759"/>
      <point x="340" y="773" type="curve"/>
      <point x="434" y="745"/>
      <point x="522" y="715"/>
      <point x="522" y="610" type="curve" smooth="yes"/>
      <point x="522" y="522"/>
      <point x="476" y="486"/>
      <point x="423" y="473" type="curve"/>
    </contour>
  </outline>
</glyph>
<glyph name="dieresis" format="1">
  <advance width="570"/>
  <unicode hex="00A8"/>
  <outline>
    <contour>
      <point x="468" y="1080"/>
      <point x="489" y="1095"/>
      <point x="489" y="1118" type="curve" smooth="yes"/>
      <point x="489" y="1209" type="line" smooth="yes"/>
      <point x="489" y="1234"/>
      <point x="468" y="1249"/>
      <point x="418" y="1249" type="curve" smooth="yes"/>
      <point x="361" y="1249"/>
      <point x="340" y="1232"/>
      <point x="340" y="1209" type="curve" smooth="yes"/>
      <point x="340" y="1118" type="line" smooth="yes"/>
      <point x="340" y="1094"/>
      <point x="361" y="1080"/>
      <point x="411" y="1080" type="curve"/>
    </contour>
    <contour>
      <point x="212" y="1080"/>
      <point x="233" y="1095"/>
      <point x="233" y="1118" type="curve" smooth="yes"/>
      <point x="233" y="1209" type="line" smooth="yes"/>
      <point x="233" y="1234"/>
      <point x="212" y="1249"/>
      <point x="162" y="1249" type="curve" smooth="yes"/>
      <point x="105" y="1249"/>
      <point x="84" y="1232"/>
      <point x="84" y="1209" type="curve" smooth="yes"/>
      <point x="84" y="1118" type="line" smooth="yes"/>
      <point x="84" y="1094"/>
      <point x="105" y="1080"/>
      <point x="155" y="1080" type="curve"/>
    </contour>
    <contour>
      <point x="286" y="930" type="move" name="_top"/>
    </contour>
  </outline>
</glyph>
<glyph name="copyright" format="1">
  <advance width="345"/>
  <unicode hex="00A9"/>
  <outline>
    <contour>
      <point x="172" y="-2.5" type="curve" smooth="yes"/>
      <point x="79" y="-2.5"/>
      <point x="4.5" y="72"/>
      <point x="4.5" y="165" type="curve" smooth="yes"/>
      <point x="4.5" y="257.5"/>
      <point x="79" y="331"/>
      <point x="172" y="331" type="curve" smooth="yes"/>
      <point x="264.5" y="331"/>
      <point x="339.5" y="257.5"/>
      <point x="339.5" y="165" type="curve" smooth="yes"/>
      <point x="339.5" y="72"/>
      <point x="264.5" y="-2.5"/>
    </contour>
    <contour>
      <point x="172" y="20" type="curve" smooth="yes"/>
      <point x="252" y="20"/>
      <point x="317.5" y="85.5"/>
      <point x="317.5" y="165" type="curve" smooth="yes"/>
      <point x="317.5" y="245"/>
      <point x="252" y="308.5"/>
      <point x="172" y="308.5" type="curve" smooth="yes"/>
      <point x="92.5" y="308.5"/>
      <point x="27" y="245"/>
      <point x="27" y="165" type="curve" smooth="yes"/>
      <point x="27" y="85.5"/>
      <point x="92.5" y="20"/>
    </contour>
    <contour>
      <point x="179.5" y="64" type="curve" smooth="yes"/>
      <point x="119" y="64"/>
      <point x="90" y="95"/>
      <point x="90" y="162.5" type="curve" smooth="yes"/>
      <point x="90" y="229.5"/>
      <point x="120.5" y="262"/>
      <point x="180.5" y="262" type="curve" smooth="yes"/>
      <point x="208" y="262"/>
      <point x="233.5" y="252"/>
      <point x="233.5" y="244.5" type="curve" smooth="yes"/>
      <point x="233.5" y="240"/>
      <point x="227.5" y="228.5"/>
      <point x="223.5" y="228.5" type="curve" smooth="yes"/>
      <point x="221" y="228.5"/>
      <point x="207.5" y="241"/>
      <point x="181" y="241" type="curve" smooth="yes"/>
      <point x="136" y="241"/>
      <point x="115" y="217"/>
      <point x="115" y="162.5" type="curve" smooth="yes"/>
      <point x="115" y="109"/>
      <point x="136" y="85"/>
      <point x="179.5" y="85" type="curve" smooth="yes"/>
      <point x="208.5" y="85"/>
      <point x="223.5" y="99"/>
      <point x="227.5" y="99" type="curve" smooth="yes"/>
      <point x="231" y="99"/>
      <point x="237" y="87"/>
      <point x="237" y="84" type="curve" smooth="yes"/>
      <point x="237" y="76.5"/>
      <point x="212" y="64"/>
    </contour>
  </outline>
</glyph>
<glyph name="ordfeminine" format="1">
  <advance width="568"/>
  <unicode hex="00AA"/>
  <outline>
    <contour>
      <point x="297" y="785"/>
      <point x="345" y="814"/>
      <point x="379" y="852" type="curve"/>
      <point x="382" y="827"/>
      <point x="387" y="790"/>
      <point x="409" y="790" type="curve" smooth="yes"/>
      <point x="420" y="790"/>
      <point x="457" y="793"/>
      <point x="457" y="809" type="curve" smooth="yes"/>
      <point x="457" y="814"/>
      <point x="447" y="848"/>
      <point x="447" y="920" type="curve" smooth="yes"/>
      <point x="447" y="1116" type="line" smooth="yes"/>
      <point x="447" y="1203"/>
      <point x="381" y="1256"/>
      <point x="273" y="1256" type="curve" smooth="yes"/>
      <point x="186" y="1256"/>
      <point x="107" y="1222"/>
      <point x="107" y="1198" type="curve" smooth="yes"/>
      <point x="107" y="1188"/>
      <point x="126" y="1155"/>
      <point x="138" y="1155" type="curve" smooth="yes"/>
      <point x="148" y="1155"/>
      <point x="196" y="1191"/>
      <point x="276" y="1191" type="curve" smooth="yes"/>
      <point x="348" y="1191"/>
      <point x="374" y="1157"/>
      <point x="374" y="1118" type="curve" smooth="yes"/>
      <point x="374" y="1075" type="line"/>
      <point x="237" y="1074"/>
      <point x="80" y="1065"/>
      <point x="80" y="916" type="curve" smooth="yes"/>
      <point x="80" y="827"/>
      <point x="146" y="785"/>
      <point x="230" y="785" type="curve" smooth="yes"/>
    </contour>
    <contour>
      <point x="186" y="850"/>
      <point x="160" y="873"/>
      <point x="160" y="921" type="curve" smooth="yes"/>
      <point x="160" y="1014"/>
      <point x="281" y="1014"/>
      <point x="374" y="1014" type="curve"/>
      <point x="374" y="909" type="line"/>
      <point x="338" y="877"/>
      <point x="299" y="850"/>
      <point x="233" y="850" type="curve" smooth="yes"/>
    </contour>
  </outline>
</glyph>
<glyph name="guillemetleft" format="1">
  <advance width="838"/>
  <unicode hex="00AB"/>
  <outline>
    <contour>
      <point x="706" y="109"/>
      <point x="740" y="146"/>
      <point x="740" y="167" type="curve" smooth="yes"/>
      <point x="740" y="178"/>
      <point x="734" y="189"/>
      <point x="725" y="201" type="curve" smooth="yes"/>
      <point x="529" y="459" type="line"/>
      <point x="725" y="715" type="line" smooth="yes"/>
      <point x="734" y="727"/>
      <point x="740" y="740"/>
      <point x="740" y="751" type="curve" smooth="yes"/>
      <point x="740" y="781"/>
      <point x="699" y="807"/>
      <point x="677" y="807" type="curve" smooth="yes"/>
      <point x="664" y="807"/>
      <point x="650" y="800"/>
      <point x="638" y="786" type="curve" smooth="yes"/>
      <point x="408" y="508" type="line" smooth="yes"/>
      <point x="391" y="489"/>
      <point x="384" y="475"/>
      <point x="384" y="459" type="curve" smooth="yes"/>
      <point x="384" y="443"/>
      <point x="391" y="428"/>
      <point x="408" y="409" type="curve"/>
      <point x="638" y="131" type="line" smooth="yes"/>
      <point x="650" y="118"/>
      <point x="664" y="109"/>
      <point x="677" y="109" type="curve" smooth="yes"/>
    </contour>
    <contour>
      <point x="401" y="109"/>
      <point x="434" y="146"/>
      <point x="434" y="167" type="curve" smooth="yes"/>
      <point x="434" y="178"/>
      <point x="428" y="189"/>
      <point x="420" y="201" type="curve" smooth="yes"/>
      <point x="222" y="459" type="line"/>
      <point x="420" y="715" type="line" smooth="yes"/>
      <point x="428" y="727"/>
      <point x="434" y="740"/>
      <point x="434" y="751" type="curve" smooth="yes"/>
      <point x="434" y="781"/>
      <point x="393" y="807"/>
      <point x="372" y="807" type="curve" smooth="yes"/>
      <point x="358" y="807"/>
      <point x="345" y="800"/>
      <point x="333" y="786" type="curve" smooth="yes"/>
      <point x="102" y="508" type="line" smooth="yes"/>
      <point x="85" y="489"/>
      <point x="78" y="475"/>
      <point x="78" y="459" type="curve" smooth="yes"/>
      <point x="78" y="443"/>
      <point x="85" y="428"/>
      <point x="102" y="409" type="curve" smooth="yes"/>
      <point x="333" y="131" type="line" smooth="yes"/>
      <point x="345" y="118"/>
      <point x="358" y="109"/>
      <point x="372" y="109" type="curve" smooth="yes"/>
    </contour>
  </outline>
</glyph>
<glyph name="guillemotleft" format="1">
  <advance width="498"/>
  <unicode hex="00AB"/>
  <outline>
    <contour>
      <point x="420" y="65"/>
      <point x="440" y="86"/>
      <point x="440" y="100" type="curve" smooth="yes"/>
      <point x="440" y="106"/>
      <point x="436" y="113"/>
      <point x="431" y="119" type="curve" smooth="yes"/>
      <point x="314" y="273" type="line"/>
      <point x="431" y="425" type="line" smooth="yes"/>
      <point x="436" y="432"/>
      <point x="440" y="441"/>
      <point x="440" y="446" type="curve" smooth="yes"/>
      <point x="440" y="464"/>
      <point x="414" y="479"/>
      <point x="402" y="479" type="curve" smooth="yes"/>
      <point x="394" y="479"/>
      <point x="386" y="475"/>
      <point x="380" y="467" type="curve" smooth="yes"/>
      <point x="241" y="303" type="line" smooth="yes"/>
      <point x="232" y="290"/>
      <point x="228" y="283"/>
      <point x="228" y="273" type="curve" smooth="yes"/>
      <point x="228" y="263"/>
      <point x="232" y="255"/>
      <point x="241" y="243" type="curve"/>
      <point x="380" y="78" type="line" smooth="yes"/>
      <point x="386" y="71"/>
      <point x="394" y="65"/>
      <point x="402" y="65" type="curve" smooth="yes"/>
    </contour>
    <contour>
      <point x="238" y="65"/>
      <point x="257" y="86"/>
      <point x="257" y="100" type="curve" smooth="yes"/>
      <point x="257" y="106"/>
      <point x="255" y="113"/>
      <point x="250" y="119" type="curve" smooth="yes"/>
      <point x="131" y="273" type="line"/>
      <point x="250" y="425" type="line" smooth="yes"/>
      <point x="255" y="432"/>
      <point x="257" y="441"/>
      <point x="257" y="446" type="curve" smooth="yes"/>
      <point x="257" y="464"/>
      <point x="234" y="479"/>
      <point x="221" y="479" type="curve" smooth="yes"/>
      <point x="212" y="479"/>
      <point x="205" y="475"/>
      <point x="198" y="467" type="curve" smooth="yes"/>
      <point x="61" y="303" type="line" smooth="yes"/>
      <point x="51" y="290"/>
      <point x="46" y="283"/>
      <point x="46" y="273" type="curve" smooth="yes"/>
      <point x="46" y="263"/>
      <point x="51" y="255"/>
      <point x="61" y="243" type="curve" smooth="yes"/>
      <point x="198" y="78" type="line" smooth="yes"/>
      <point x="205" y="71"/>
      <point x="212" y="65"/>
      <point x="221" y="65" type="curve" smooth="yes"/>
    </contour>
  </outline>
</glyph>
<glyph name="logicalnot" format="1">
  <advance width="996"/>
  <unicode hex="00AC"/>
  <outline>
    <contour>
      <point x="875" y="137" type="line" smooth="yes"/>
      <point x="913" y="137"/>
      <point x="928" y="152"/>
      <point x="928" y="176" type="curve" smooth="yes"/>
      <point x="928" y="548" type="line" smooth="yes"/>
      <point x="928" y="585"/>
      <point x="913" y="601"/>
      <point x="875" y="601" type="curve" smooth="yes"/>
      <point x="104" y="601" type="line" smooth="yes"/>
      <point x="78" y="601"/>
      <point x="68" y="585"/>
      <point x="68" y="548" type="curve" smooth="yes"/>
      <point x="68" y="525" type="line" smooth="yes"/>
      <point x="68" y="488"/>
      <point x="78" y="471"/>
      <point x="104" y="471" type="curve"/>
      <point x="798" y="471" type="line"/>
      <point x="798" y="176" type="line" smooth="yes"/>
      <point x="798" y="152"/>
      <point x="814" y="137"/>
      <point x="852" y="137" type="curve" smooth="yes"/>
    </contour>
  </outline>
</glyph>
<glyph name="softhyphen" format="1">
  <advance width="570"/>
  <unicode hex="00AD"/>
  <outline>
    <contour>
      <point x="450" y="409" type="line" smooth="yes"/>
      <point x="475" y="409"/>
      <point x="486" y="425"/>
      <point x="486" y="462" type="curve" smooth="yes"/>
      <point x="486" y="481" type="line" smooth="yes"/>
      <point x="486" y="517"/>
      <point x="475" y="534"/>
      <point x="450" y="534" type="curve" smooth="yes"/>
      <point x="114" y="534" type="line" smooth="yes"/>
      <point x="89" y="534"/>
      <point x="78" y="517"/>
      <point x="78" y="481" type="curve" smooth="yes"/>
      <point x="78" y="462" type="line" smooth="yes"/>
      <point x="78" y="425"/>
      <point x="89" y="409"/>
      <point x="114" y="409" type="curve"/>
    </contour>
  </outline>
</glyph>
<glyph name="uni00AD" format="1">
  <advance width="149"/>
  <unicode hex="00AD"/>
  <outline>
    <contour>
      <point x="30" y="107" type="line" smooth="yes"/>
      <point x="23.5" y="107"/>
      <point x="20.5" y="111.5"/>
      <point x="20.5" y="121" type="curve" smooth="yes"/>
      <point x="20.5" y="126" type="line" smooth="yes"/>
      <point x="20.5" y="135.5"/>
      <point x="23.5" y="140"/>
      <point x="30" y="140" type="curve" smooth="yes"/>
      <point x="118" y="140" type="line" smooth="yes"/>
      <point x="124.5" y="140"/>
      <point x="127" y="135.5"/>
      <point x="127" y="126" type="curve" smooth="yes"/>
      <point x="127" y="121" type="line" smooth="yes"/>
      <point x="127" y="111.5"/>
      <point x="124.5" y="107"/>
      <point x="118" y="107" type="curve" smooth="yes"/>
    </contour>
  </outline>
</glyph>
